<svg width="65" height="50" viewBox="0 0 65 50" fill="none" xmlns="http://www.w3.org/2000/svg">
<g clip-path="url(#clip0_14_65)">
<path fill-rule="evenodd" clip-rule="evenodd" d="M28.998 47.4292C19.9601 45.0407 11.5795 43.4193 3.85742 42.5656C1.30018 42.5309 0.0143711 41.0682 -0.000656128 38.1781V10.091C0.205805 7.5819 1.76733 6.50665 4.68327 6.8666C12.2831 19.5329 20.6239 31.64 29.7062 43.1872C30.3955 42.3637 31.3912 41.8457 32.4993 41.8457C33.6068 41.8457 34.6032 42.363 35.2924 43.1872C44.3748 31.64 52.7156 19.5336 60.3154 6.8666C63.2314 6.50731 64.7929 7.5819 64.9993 10.091V38.1781C64.9843 41.0682 63.6985 42.5309 61.1413 42.5656C53.4192 43.4193 45.0386 45.0407 36.0007 47.4292C35.4466 48.9352 34.0877 50 32.4993 50C30.9104 50 29.5514 48.9352 28.998 47.4292Z" fill="#1E5595"/>
<path fill-rule="evenodd" clip-rule="evenodd" d="M31.7924 45.872C32.0773 45.916 32.3288 46.0136 32.5 46.1677C32.6705 46.0136 32.9221 45.916 33.2076 45.872C37.9993 37.925 47.2084 23.9513 60.8342 3.95029C62.2108 3.90833 62.9609 4.58692 63.085 5.98671V35.6997C63.0465 37.5021 62.137 38.4502 60.3579 38.5439C50.3341 40.4918 40.1142 43.8828 32.5 47.3616C24.8858 43.8828 14.6659 40.4912 4.64211 38.5439C2.86302 38.4508 1.95354 37.5028 1.91499 35.6997V5.98671C2.03913 4.58692 2.78919 3.90833 4.16581 3.95029C17.7916 23.9513 27.0007 37.925 31.7924 45.872Z" fill="#BCD3E3"/>
<path fill-rule="evenodd" clip-rule="evenodd" d="M4.05017 5.44844C12.9221 5.74021 22.4056 8.34441 32.4994 13.2611C42.5937 8.34441 52.0766 5.74021 60.9485 5.44844V6.10352e-05C47.8872 1.81094 38.8964 5.71464 32.4994 11.3341C26.1023 5.71464 17.1115 1.81094 4.05017 6.10352e-05V5.44844Z" fill="#FEC513"/>
<path fill-rule="evenodd" clip-rule="evenodd" d="M60.9492 7.50192C52.0772 7.79368 42.5944 10.3979 32.5 15.3145C22.4056 10.3979 12.9228 7.79368 4.05081 7.50192V2.45151C14.7162 3.22779 24.9544 6.49354 32.5 11.3341C40.0456 6.49354 50.2844 3.22779 60.9492 2.45151V7.50192Z" fill="#FBB215"/>
<path fill-rule="evenodd" clip-rule="evenodd" d="M32.5 11.3342C22.2129 6.61419 14.7064 4.44074 4.05081 3.96933V33.6758C4.16188 35.5437 5.09423 36.5829 6.84719 36.794C15.8792 38.3715 24.4304 41.8943 32.5 47.3617C40.5703 41.8943 49.1214 38.3722 58.1528 36.794C59.9058 36.5829 60.8381 35.5431 60.9492 33.6758V3.96933C50.2935 4.44074 42.7865 6.61419 32.5 11.3342Z" fill="#FEFEFE"/>
<path d="M32.7698 11.7505H32.2295V45.9704H32.7698V11.7505Z" fill="#BCD3E3"/>
<path fill-rule="evenodd" clip-rule="evenodd" d="M5.73714 31.3129H10.1003L13.4023 21.2507L14.8182 25.058H12.8908L11.8232 28.3126H16.0282L17.1441 31.3129H21.5079L15.448 15.0169H11.0842L5.73714 31.3129Z" fill="#1E5595"/>
<path fill-rule="evenodd" clip-rule="evenodd" d="M22.0476 31.3129H26.4114V26.29H28.4557C31.3553 26.29 33.7277 23.9093 33.7277 20.9996V20.1781C33.7277 17.3392 31.4135 15.0169 28.5844 15.0169H26.4114H25.4437H22.0476V18.6216H26.214H26.8857H27.9252C29.0026 18.6216 29.8846 19.508 29.8846 20.5879V20.9013C29.8846 22.008 28.9797 22.9167 27.8762 22.9167H26.2147V19.4444H22.0482V31.3135L22.0476 31.3129Z" fill="#1E5595"/>
<path fill-rule="evenodd" clip-rule="evenodd" d="M31.586 31.3129H35.9491L39.2512 21.2507L40.667 25.058H38.7396L37.672 28.3126H41.877L42.9929 31.3129H47.3567L41.2962 15.0169H36.933L31.586 31.3129Z" fill="#1E5595"/>
<path fill-rule="evenodd" clip-rule="evenodd" d="M46.5616 12.7497H59.5634V14.5199V15.6365L52.2752 32.1331H47.5442L54.3509 16.7255H46.5616V12.7497Z" fill="#FBB215"/>
</g>
<defs>
<clipPath id="clip0_14_65">
<rect width="65" height="50" fill="white"/>
</clipPath>
</defs>
</svg>
