<?xml version="1.0" ?><svg id="Layer_1" style="enable-background:new 0 0 91 91;" version="1.1" viewBox="0 0 91 91" xml:space="preserve" xmlns="http://www.w3.org/2000/svg" xmlns:xlink="http://www.w3.org/1999/xlink"><g><path d="M69.9,39.7l-2.4,2.4l4.1,4.1h-5.4c-0.8-9-8-16.3-17.1-17.1v-5.4l4.1,4.1l2.4-2.4l-8.2-8.2l-8.2,8.2l2.4,2.4l4.1-4.1v5.4   c-9,0.8-16.3,8-17.1,17.1h-5.4l4.1-4.1L25,39.7l-8.2,8.2L25,56l2.4-2.4l-4.1-4.1h5.4c0.8,9,8,16.3,17.1,17.1V72l-4.1-4.1l-2.4,2.4   l8.2,8.2l8.2-8.2l-2.4-2.4L49.1,72v-5.4c9-0.8,16.3-8,17.1-17.1h5.4l-4.1,4.1l2.4,2.4l8.2-8.2L69.9,39.7z M62.8,46.2h-4.2   c-0.7-4.9-4.6-8.8-9.5-9.5v-4.2C56.3,33.3,62,39,62.8,46.2z M45.7,32.5v4.2c-4.9,0.7-8.8,4.6-9.5,9.5h-4.2   C32.8,39,38.6,33.3,45.7,32.5z M32.1,49.5h4.2c0.7,4.9,4.6,8.8,9.5,9.5v4.2C38.6,62.4,32.8,56.7,32.1,49.5z M49.1,63.2v-4.2   c4.9-0.7,8.8-4.6,9.5-9.5h4.2C62,56.7,56.3,62.4,49.1,63.2z"/></g></svg>