<svg width="64" height="64" viewBox="0 0 64 64" fill="none" xmlns="http://www.w3.org/2000/svg">
<path d="M32 41C40.2843 41 47 34.2843 47 26C47 17.7157 40.2843 11 32 11C23.7157 11 17 17.7157 17 26C17 34.2843 23.7157 41 32 41Z" fill="#FFCB57"/>
<path d="M61 31.184V22.815C62.161 22.401 63 21.301 63 19.999C63 18.345 61.654 16.999 60 16.999C59.656 16.999 59.33 17.069 59.022 17.176L54.541 11.574C54.827 11.117 55 10.58 55 10C55 8.346 53.654 7 52 7C51.159 7 50.401 7.35 49.855 7.909L41.972 4.271C41.981 4.18 42 4.093 42 4C42 2.346 40.654 1 39 1C37.698 1 36.598 1.839 36.184 3H24.816C24.402 1.839 23.302 1 22 1C20.346 1 19 2.346 19 4C19 4.124 19.022 4.243 19.037 4.363L14.077 6.843C13.537 6.324 12.807 6 12 6C10.346 6 9 7.346 9 9C9 9.58 9.173 10.117 9.458 10.576L4.977 16.177C4.669 16.07 4.344 16 4 16C2.346 16 1 17.346 1 19C1 20.302 1.839 21.402 3 21.816V28.185C1.839 28.598 1 29.698 1 31C1 32.654 2.346 34 4 34C5.111 34 6.071 33.386 6.59 32.487L12.049 33.48C12.28 34.905 13.51 36 15 36C15.041 36 15.078 35.99 15.118 35.988L17.026 40.758C16.402 41.309 16 42.104 16 43C16 44.654 17.346 46 19 46C20.006 46 20.893 45.498 21.437 44.736L30.019 47.188C30.096 48.406 30.896 49.422 32 49.816V57.185C30.839 57.599 30 58.699 30 60.001C30 61.655 31.346 63.001 33 63.001C34.654 63.001 36 61.655 36 60.001C36 58.699 35.161 57.599 34 57.185V49.816C35.161 49.402 36 48.302 36 47C36 46.042 35.54 45.196 34.838 44.647L36.032 41.065L45.005 44.056C45.029 45.333 45.855 46.407 46.999 46.815V57.184C45.838 57.598 44.999 58.698 44.999 60C44.999 61.654 46.345 63 47.999 63C49.653 63 50.999 61.654 50.999 60C50.999 58.698 50.16 57.598 48.999 57.184V46.816C50.16 46.402 50.999 45.302 50.999 44C50.999 43.635 50.924 43.289 50.804 42.965L58.477 36.571C58.925 36.837 59.442 37 60 37C61.654 37 63 35.654 63 34C63 32.698 62.161 31.598 61 31.184ZM17.994 32.944C17.992 32.824 17.974 32.709 17.958 32.593L26.161 28.34L28.698 36.513L17.994 32.944ZM15.762 30.11L14.376 19.482L21.229 19.139C21.664 20.193 22.683 20.939 23.881 20.987L25.56 26.398L17.043 30.814C16.685 30.481 16.248 30.239 15.762 30.11ZM6.772 17.86C6.709 17.707 6.628 17.563 6.541 17.424L11.022 11.823C11.138 11.863 11.252 11.906 11.373 11.932L12.112 17.593L6.772 17.86ZM13.355 11.662C14.327 11.165 15 10.164 15 9C15 8.876 14.978 8.757 14.963 8.637L19.923 6.157C20.463 6.676 21.193 7 22 7C22.614 7 23.185 6.813 23.661 6.495L29.871 11.152L25.375 15.348C24.961 15.134 24.498 15 24 15C22.646 15 21.512 15.907 21.14 17.142L14.116 17.493L13.355 11.662ZM36.253 5.197L31.356 9.767L24.999 5H36.184C36.208 5.066 36.225 5.133 36.253 5.197ZM39.041 19.408L30.994 23.581L26.699 19.286C26.886 18.894 27 18.462 27 18C27 17.574 26.908 17.171 26.748 16.804L31.496 12.372L39.149 18.112C39.061 18.394 39 18.689 39 19C39 19.14 39.023 19.273 39.041 19.408ZM25 18C25 18.551 24.552 19 24 19C23.448 19 23 18.551 23 18C23 17.449 23.448 17 24 17C24.552 17 25 17.449 25 18ZM29.132 24.546L27.363 25.463L26.154 21.568L29.132 24.546ZM27.965 27.404L30.615 26.03L35.3 30.715C35.114 31.106 35 31.538 35 32C35 32.959 35.46 33.804 36.162 34.353L34.768 38.535L31.034 37.29L27.965 27.404ZM38 33C37.448 33 37 32.551 37 32C37 31.449 37.448 31 38 31C38.552 31 39 31.449 39 32C39 32.551 38.552 33 38 33ZM38 29C37.538 29 37.106 29.113 36.715 29.301L32.478 25.064L39.958 21.185C40.494 21.687 41.209 22 42 22C42.558 22 43.075 21.837 43.523 21.57L48.076 25.364L39.993 29.773C39.461 29.298 38.768 29 38 29ZM50.578 12.625C51.003 12.857 51.483 13 52 13C52.344 13 52.669 12.93 52.977 12.823L57.458 18.425C57.173 18.884 57 19.42 57 20C57 20.161 57.023 20.317 57.048 20.471L49.965 24.335L44.805 20.035C44.925 19.711 45 19.365 45 19C45 18.593 44.917 18.206 44.77 17.852L50.578 12.625ZM58.478 31.429L51.617 25.711L58.008 22.225C58.295 22.483 58.63 22.683 59.001 22.815V31.184C58.817 31.25 58.643 31.331 58.478 31.429ZM43 19C43 19.551 42.552 20 42 20C41.448 20 41 19.551 41 19C41 18.449 41.448 18 42 18C42.552 18 43 18.449 43 19ZM49.728 26.742L56.894 32.714L41.368 31.302L49.728 26.742ZM61 20C61 20.551 60.552 21 60 21C59.448 21 59 20.551 59 20C59 19.449 59.448 19 60 19C60.552 19 61 19.449 61 20ZM52 9C52.552 9 53 9.449 53 10C53 10.551 52.552 11 52 11C51.448 11 51 10.551 51 10C51 9.449 51.448 9 52 9ZM49.027 9.729C49.019 9.82 49 9.907 49 10C49 10.407 49.083 10.794 49.23 11.148L43.421 16.375C42.997 16.143 42.517 16 42 16C41.386 16 40.815 16.187 40.339 16.505L32.981 10.986L37.626 6.651C38.039 6.867 38.502 7 39 7C39.841 7 40.6 6.65 41.145 6.091L49.027 9.729ZM39 3C39.552 3 40 3.449 40 4C40 4.551 39.552 5 39 5C38.448 5 38 4.551 38 4C38 3.449 38.448 3 39 3ZM22 3C22.552 3 23 3.449 23 4C23 4.551 22.552 5 22 5C21.448 5 21 4.551 21 4C21 3.449 21.448 3 22 3ZM12 8C12.552 8 13 8.449 13 9C13 9.551 12.552 10 12 10C11.448 10 11 9.551 11 9C11 8.449 11.448 8 12 8ZM4 18C4.552 18 5 18.449 5 19C5 19.551 4.552 20 4 20C3.448 20 3 19.551 3 19C3 18.449 3.448 18 4 18ZM4 32C3.448 32 3 31.551 3 31C3 30.449 3.448 30 4 30C4.552 30 5 30.449 5 31C5 31.551 4.552 32 4 32ZM5 28.184V21.815C5.894 21.496 6.585 20.771 6.86 19.857L12.372 19.581L13.766 30.271C13.192 30.531 12.723 30.969 12.41 31.511L6.952 30.52C6.775 29.432 6.015 28.546 5 28.184ZM14 33C14 32.449 14.448 32 15 32C15.552 32 16 32.449 16 33C16 33.551 15.552 34 15 34C14.448 34 14 33.551 14 33ZM16.974 35.241C17.113 35.119 17.239 34.984 17.353 34.838L29.428 38.863L31.211 44.606C30.963 44.792 30.743 45.011 30.563 45.263L21.981 42.811C21.882 41.247 20.59 40 19 40C18.96 40 18.922 40.01 18.883 40.012L16.974 35.241ZM19 44C18.448 44 18 43.551 18 43C18 42.449 18.448 42 19 42C19.552 42 20 42.449 20 43C20 43.551 19.552 44 19 44ZM33 61C32.448 61 32 60.551 32 60C32 59.449 32.448 59 33 59C33.552 59 34 59.449 34 60C34 60.551 33.552 61 33 61ZM33 48C32.448 48 32 47.551 32 47C32 46.449 32.448 46 33 46C33.552 46 34 46.449 34 47C34 47.551 33.552 48 33 48ZM33.034 43.736L31.763 39.642L34.135 40.433L33.034 43.736ZM38.056 34.994C39.238 34.972 40.25 34.264 40.718 33.251L57.104 34.741C57.13 34.841 57.16 34.939 57.195 35.035L49.522 41.429C49.074 41.163 48.558 41 48 41C47.042 41 46.196 41.46 45.647 42.162L36.665 39.168L38.056 34.994ZM48 61C47.448 61 47 60.551 47 60C47 59.449 47.448 59 48 59C48.552 59 49 59.449 49 60C49 60.551 48.552 61 48 61ZM48 45C47.448 45 47 44.551 47 44C47 43.449 47.448 43 48 43C48.552 43 49 43.449 49 44C49 44.551 48.552 45 48 45ZM60 35C59.448 35 59 34.551 59 34C59 33.449 59.448 33 60 33C60.552 33 61 33.449 61 34C61 34.551 60.552 35 60 35Z" fill="#395576"/>
<path d="M5 1H3V3H5V1Z" fill="#E56565"/>
<path d="M5 5H3V7H5V5Z" fill="#E56565"/>
<path d="M7 3H5V5H7V3Z" fill="#E56565"/>
<path d="M3 3H1V5H3V3Z" fill="#E56565"/>
<path d="M55 47H53V49H55V47Z" fill="#E56565"/>
<path d="M55 51H53V53H55V51Z" fill="#E56565"/>
<path d="M57 49H55V51H57V49Z" fill="#E56565"/>
<path d="M53 49H51V51H53V49Z" fill="#E56565"/>
<path d="M61 5H59V7H61V5Z" fill="#E56565"/>
<path d="M61 9H59V11H61V9Z" fill="#E56565"/>
<path d="M63 7H61V9H63V7Z" fill="#E56565"/>
<path d="M59 7H57V9H59V7Z" fill="#E56565"/>
<path d="M15 49H13V51H15V49Z" fill="#E56565"/>
<path d="M15 53H13V55H15V53Z" fill="#E56565"/>
<path d="M17 51H15V53H17V51Z" fill="#E56565"/>
<path d="M13 51H11V53H13V51Z" fill="#E56565"/>
<path d="M9 38H7V40H9V38Z" fill="#E56565"/>
<path d="M9 42H7V44H9V42Z" fill="#E56565"/>
<path d="M11 40H9V42H11V40Z" fill="#E56565"/>
<path d="M7 40H5V42H7V40Z" fill="#E56565"/>
</svg>
