<svg width="49" height="47" viewBox="0 0 49 47" fill="none" xmlns="http://www.w3.org/2000/svg">
<path fill-rule="evenodd" clip-rule="evenodd" d="M24.029 0C10.759 0 0 10.759 0 24.033C0 34.65 6.885 43.657 16.435 46.836C17.637 47.056 18.075 46.314 18.075 45.676C18.075 45.107 18.055 43.595 18.043 41.59C11.358 43.042 9.948 38.368 9.948 38.368C8.855 35.593 7.279 34.854 7.279 34.854C5.097 33.362 7.444 33.392 7.444 33.392C9.856 33.563 11.125 35.869 11.125 35.869C13.269 39.541 16.75 38.48 18.119 37.866C18.338 36.313 18.957 35.254 19.645 34.653C14.309 34.047 8.698 31.984 8.698 22.776C8.698 20.153 9.635 18.007 11.172 16.327C10.925 15.719 10.1 13.276 11.407 9.967C11.407 9.967 13.425 9.321 18.016 12.431C19.933 11.898 21.989 11.631 24.032 11.622C26.073 11.631 28.129 11.898 30.049 12.431C34.637 9.321 36.651 9.967 36.651 9.967C37.962 13.276 37.137 15.719 36.89 16.327C38.43 18.007 39.361 20.153 39.361 22.776C39.361 32.008 33.741 34.039 28.387 34.634C29.251 35.376 30.019 36.842 30.019 39.085C30.019 42.297 29.99 44.889 29.99 45.676C29.99 46.32 30.422 47.068 31.642 46.833C41.184 43.648 48.063 34.647 48.063 24.033C48.063 10.759 37.303 0 24.029 0Z" fill="white"/>
</svg>
