<svg width="64" height="64" viewBox="0 0 64 64" fill="none" xmlns="http://www.w3.org/2000/svg">
<path d="M39 9C39 5.094 35.802 1.936 31.881 2.001C28.227 2.062 25.136 5.09 25.004 8.742C24.94 10.527 25.545 12.166 26.588 13.433C28.064 15.226 29 17.399 29 19.721V22H35V20.057C35 17.58 35.979 15.258 37.51 13.31C38.443 12.124 39 10.628 39 9Z" fill="#FFCB57"/>
<path d="M1 52C1 54.757 3.243 57 6 57H18V61H14V63H50V61H46V57H58C60.757 57 63 54.757 63 52V49H1V52ZM44 61H20V57H44V61ZM3 51H61V52C61 53.654 59.654 55 58 55H6C4.346 55 3 53.654 3 52V51Z" fill="#395576"/>
<path d="M3 16C3 14.346 4.346 13 6 13H22V11H6C3.243 11 1 13.243 1 16V47H3V16Z" fill="#395576"/>
<path d="M58 11H42V13H58C59.654 13 61 14.346 61 16V47H63V16C63 13.243 60.757 11 58 11Z" fill="#395576"/>
<path d="M51 45H13V17H22V15H11V47H53V15H42V17H51V45Z" fill="#395576"/>
<path d="M28 19.721V23H36V20.058C36 17.958 36.794 15.839 38.296 13.929C39.411 12.511 40 10.807 40 9C40 6.838 39.151 4.812 37.609 3.296C36.101 1.812 34.114 1 32.001 1C31.956 1 31.91 1 31.864 1.001C27.68 1.07 24.155 4.527 24.006 8.706C23.935 10.66 24.578 12.564 25.817 14.069C27.245 15.804 28 17.758 28 19.721ZM34 21H30V20H34.003C34.003 20.019 34 20.038 34 20.058V21ZM31.897 3.001C33.531 2.966 35.051 3.585 36.207 4.722C37.363 5.859 38 7.378 38 9C38 10.354 37.559 11.631 36.724 12.692C35.422 14.347 34.575 16.152 34.209 18H33V13H31V18H29.843C29.517 16.17 28.678 14.397 27.361 12.797C26.433 11.67 25.951 10.243 26.004 8.777C26.116 5.645 28.76 3.053 31.897 3.001Z" fill="#395576"/>
<path d="M32 25C31.448 25 31 24.551 31 24H29C29 25.654 30.346 27 32 27C33.654 27 35 25.654 35 24H33C33 24.551 32.552 25 32 25Z" fill="#395576"/>
<path d="M33 9H31V11H33V9Z" fill="#395576"/>
<path d="M32 37C36.411 37 40 33.411 40 29C40 26.834 39.148 24.805 37.602 23.289L36.202 24.717C37.361 25.854 38 27.375 38 29C38 32.309 35.309 35 32 35C28.691 35 26 32.309 26 29C26 27.42 26.608 25.929 27.714 24.802L26.286 23.402C24.812 24.905 24 26.894 24 29C24 33.411 27.589 37 32 37Z" fill="#395576"/>
<path d="M35.781 43H28.219L27.497 40.113C27.44 40.09 27.383 40.066 27.326 40.042L24.773 41.573L19.979 36.779L21.393 35.365L25.083 39.055L27.205 37.782L27.689 38.013C28.009 38.166 28.335 38.302 28.671 38.42L29.179 38.599L29.781 41H34.219L34.82 38.599L35.328 38.42C35.664 38.302 35.99 38.166 36.31 38.013L36.794 37.782L38.916 39.055L42.055 35.917L40.782 33.794L41.014 33.309C41.166 32.991 41.302 32.663 41.421 32.327L41.6 31.821L44 31.221V26.783L41.6 26.183L41.421 25.677C41.302 25.341 41.166 25.013 41.014 24.695L42.817 23.831C42.922 24.05 43.021 24.274 43.113 24.5L46 25.219V32.781L43.112 33.503C43.089 33.561 43.065 33.617 43.042 33.674L44.572 36.227L39.226 41.573L36.673 40.042C36.616 40.066 36.559 40.09 36.502 40.113L35.781 43Z" fill="#E56565"/>
<path d="M21.184 34.172C21.079 33.953 20.98 33.729 20.888 33.503L18 32.781V25.219L20.888 24.497C20.911 24.439 20.935 24.383 20.958 24.326L19.428 21.773L24.222 16.979L25.636 18.393L21.946 22.083L23.219 24.206L22.987 24.691C22.835 25.009 22.699 25.337 22.58 25.673L22.4 26.181L20 26.781V31.219L22.4 31.819L22.579 32.325C22.698 32.661 22.834 32.989 22.986 33.307L21.184 34.172Z" fill="#E56565"/>
<path d="M39.7778 16.9799L38.3636 18.3941L42.6055 22.636L44.0197 21.2218L39.7778 16.9799Z" fill="#E56565"/>
</svg>
