<svg width="64" height="64" viewBox="0 0 64 64" fill="none" xmlns="http://www.w3.org/2000/svg">
<path d="M43.314 41.929L39.071 37.686L36.74 39.085C36.389 38.917 36.029 38.767 35.659 38.637L35 36H29L28.341 38.637C27.971 38.768 27.611 38.918 27.26 39.085L24.929 37.686L20.686 41.929L22.085 44.26C21.917 44.611 21.767 44.971 21.637 45.341L19 46V52L21.637 52.659C21.768 53.029 21.918 53.389 22.085 53.74L20.686 56.071L24.929 60.314L27.26 58.915C27.611 59.083 27.971 59.233 28.341 59.363L29 62H35L35.659 59.363C36.029 59.232 36.389 59.082 36.74 58.915L39.071 60.314L43.314 56.071L41.915 53.74C42.083 53.389 42.233 53.029 42.363 52.659L45 52V46L42.363 45.341C42.232 44.971 42.082 44.611 41.915 44.26L43.314 41.929Z" fill="#FFCB57"/>
<path d="M42 16H40V21H42V16Z" fill="#E56565"/>
<path d="M49.707 25.707L48.293 24.293L51 21.586V9H53V22.414L49.707 25.707Z" fill="#E56565"/>
<path d="M57.707 31.707L56.293 30.293L59 27.586V17H61V28.414L57.707 31.707Z" fill="#E56565"/>
<path d="M41 14C39.346 14 38 12.654 38 11C38 9.346 39.346 8 41 8C42.654 8 44 9.346 44 11C44 12.654 42.654 14 41 14ZM41 10C40.448 10 40 10.448 40 11C40 11.552 40.448 12 41 12C41.552 12 42 11.552 42 11C42 10.448 41.552 10 41 10Z" fill="#E56565"/>
<path d="M33 9H31V20H33V9Z" fill="#E56565"/>
<path d="M32 7C30.346 7 29 5.654 29 4C29 2.346 30.346 1 32 1C33.654 1 35 2.346 35 4C35 5.654 33.654 7 32 7ZM32 3C31.448 3 31 3.448 31 4C31 4.552 31.448 5 32 5C32.552 5 33 4.552 33 4C33 3.448 32.552 3 32 3Z" fill="#E56565"/>
<path d="M52 7C50.346 7 49 5.654 49 4C49 2.346 50.346 1 52 1C53.654 1 55 2.346 55 4C55 5.654 53.654 7 52 7ZM52 3C51.448 3 51 3.448 51 4C51 4.552 51.448 5 52 5C52.552 5 53 4.552 53 4C53 3.448 52.552 3 52 3Z" fill="#E56565"/>
<path d="M60 15C58.346 15 57 13.654 57 12C57 10.346 58.346 9 60 9C61.654 9 63 10.346 63 12C63 13.654 61.654 15 60 15ZM60 11C59.448 11 59 11.448 59 12C59 12.552 59.448 13 60 13C60.552 13 61 12.552 61 12C61 11.448 60.552 11 60 11Z" fill="#E56565"/>
<path d="M24 16H22V22H24V16Z" fill="#E56565"/>
<path d="M14.293 25.707L11 22.414V9H13V21.586L15.707 24.293L14.293 25.707Z" fill="#E56565"/>
<path d="M8.293 33.707L3 28.414V17H5V27.586L9.707 32.293L8.293 33.707Z" fill="#E56565"/>
<path d="M23 14C21.346 14 20 12.654 20 11C20 9.346 21.346 8 23 8C24.654 8 26 9.346 26 11C26 12.654 24.654 14 23 14ZM23 10C22.448 10 22 10.448 22 11C22 11.552 22.448 12 23 12C23.552 12 24 11.552 24 11C24 10.448 23.552 10 23 10Z" fill="#E56565"/>
<path d="M12 7C10.346 7 9 5.654 9 4C9 2.346 10.346 1 12 1C13.654 1 15 2.346 15 4C15 5.654 13.654 7 12 7ZM12 3C11.448 3 11 3.448 11 4C11 4.552 11.448 5 12 5C12.552 5 13 4.552 13 4C13 3.448 12.552 3 12 3Z" fill="#E56565"/>
<path d="M4 15C2.346 15 1 13.654 1 12C1 10.346 2.346 9 4 9C5.654 9 7 10.346 7 12C7 13.654 5.654 15 4 15ZM4 11C3.448 11 3 11.448 3 12C3 12.552 3.448 13 4 13C4.552 13 5 12.552 5 12C5 11.448 4.552 11 4 11Z" fill="#E56565"/>
<path d="M28 49C28 51.206 29.794 53 32 53C34.206 53 36 51.206 36 49C36 46.794 34.206 45 32 45C29.794 45 28 46.794 28 49ZM34 49C34 50.103 33.103 51 32 51C30.897 51 30 50.103 30 49C30 47.897 30.897 47 32 47C33.103 47 34 47.897 34 49Z" fill="#395576"/>
<path d="M42.817 43.829L41.012 44.69C41.164 45.01 41.301 45.337 41.42 45.673L41.599 46.18L43.999 46.781V51.219L41.599 51.82L41.42 52.327C41.301 52.663 41.165 52.989 41.013 53.308L40.781 53.792L42.054 55.916L38.915 59.055L36.793 57.782L36.309 58.013C35.989 58.165 35.662 58.302 35.326 58.421L34.819 58.6L34.219 61H29.781L29.18 58.6L28.673 58.421C28.337 58.302 28.01 58.165 27.69 58.013L27.206 57.782L25.084 59.055L21.394 55.365L19.98 56.779L24.774 61.573L27.327 60.042C27.384 60.066 27.441 60.09 27.498 60.113L28.219 63H35.781L36.503 60.112C36.56 60.089 36.617 60.065 36.674 60.041L39.227 61.572L44.573 56.226L43.043 53.673C43.066 53.615 43.09 53.559 43.113 53.502L46 52.781V45.219L43.112 44.497C43.021 44.271 42.922 44.048 42.817 43.829Z" fill="#395576"/>
<path d="M18 45.219V52.781L20.888 53.503C20.98 53.729 21.078 53.952 21.184 54.171L22.987 53.308C22.835 52.989 22.699 52.662 22.58 52.327L22.4 51.819L20 51.219V46.781L22.4 46.18L22.579 45.673C22.698 45.337 22.835 45.01 22.987 44.69L23.218 44.206L21.945 42.084L25.084 38.945L27.206 40.218L27.69 39.987C28.01 39.835 28.337 39.698 28.673 39.579L29.18 39.4L29.781 37H34.219L34.82 39.4L35.327 39.579C35.663 39.698 35.99 39.835 36.31 39.987L36.794 40.218L38.916 38.945L42.606 42.635L44.02 41.221L39.226 36.427L36.673 37.958C36.616 37.934 36.559 37.91 36.502 37.887L35.781 35H28.219L27.497 37.888C27.44 37.911 27.383 37.935 27.326 37.959L24.773 36.428L19.427 41.774L20.958 44.327C20.934 44.384 20.91 44.441 20.887 44.498L18 45.219Z" fill="#395576"/>
<path d="M58.994 39.079C58.995 39.053 59 39.026 59 39C59 34.654 55.515 31.114 51.194 31.01C50.392 29.623 49.053 28.589 47.462 28.188C46.299 25.114 43.323 23 40 23C38.765 23 37.548 23.289 36.441 23.842C34.877 22.649 32.971 22 31 22C28.695 22 26.489 22.892 24.825 24.461C23.935 24.166 22.987 24 22 24C17.556 24 13.784 27.26 13.113 31.622C11.281 32.448 9.863 34.04 9.284 36.037C4.656 36.403 1 40.279 1 45C1 49.963 5.037 54 10 54H16V52H10C6.141 52 3 48.859 3 45C3 41.141 6.141 38 10 38C12.137 38 14.129 38.958 15.467 40.627L17.028 39.377C15.601 37.595 13.591 36.457 11.379 36.118C12.128 34.265 13.922 33 16 33C17.778 33 19.438 33.958 20.331 35.499L22.061 34.497C20.812 32.34 18.489 31 16 31C15.758 31 15.52 31.015 15.284 31.039C16.139 28.103 18.852 26 22 26C25.859 26 29 29.141 29 33H31C31 29.804 29.321 26.999 26.803 25.402C28.005 24.501 29.475 24 31 24C32.718 24 34.374 24.637 35.664 25.792L36.221 26.29L36.857 25.897C37.808 25.311 38.895 25 40 25C42.179 25 44.159 26.215 45.208 28.058C42.273 28.448 40 30.96 40 34H42C42 31.794 43.794 30 46 30C48.206 30 50 31.794 50 34C50 36.206 48.206 38 46 38V40C49.309 40 52 37.309 52 34C52 33.686 51.968 33.38 51.922 33.078C54.549 33.486 56.615 35.599 56.948 38.25C56.323 38.093 55.673 38 55 38C52.169 38 49.605 39.449 48.144 41.877L49.857 42.908C50.953 41.087 52.876 40 55 40C58.309 40 61 42.691 61 46C61 49.309 58.309 52 55 52H48V54H55C59.411 54 63 50.411 63 46C63 43.044 61.385 40.464 58.994 39.079Z" fill="#395576"/>
<path d="M56 46H54V48H56V46Z" fill="#395576"/>
<path d="M31 41V41.069C27.06 41.564 24 44.928 24 49C24 53.411 27.589 57 32 57C36.072 57 39.436 53.94 39.931 50H40V48H39.931C39.478 44.388 36.612 41.523 33 41.069V41H31ZM38 49C38 52.309 35.309 55 32 55C28.691 55 26 52.309 26 49C26 45.691 28.691 43 32 43C35.309 43 38 45.691 38 49Z" fill="#395576"/>
<path d="M11 47H9V49H11V47Z" fill="#395576"/>
<path d="M26 30H24V32H26V30Z" fill="#395576"/>
<path d="M38 29H36V31H38V29Z" fill="#395576"/>
</svg>
