<?xml version="1.0" encoding="UTF-8"?>
<!DOCTYPE svg PUBLIC "-//W3C//DTD SVG 1.1//EN" "http://www.w3.org/Graphics/SVG/1.1/DTD/svg11.dtd">
<!-- Creator: CorelDRAW -->
<svg xmlns="http://www.w3.org/2000/svg" xml:space="preserve" width="103.854mm" height="47.5482mm" version="1.1" style="shape-rendering:geometricPrecision; text-rendering:geometricPrecision; image-rendering:optimizeQuality; fill-rule:evenodd; clip-rule:evenodd"
viewBox="0 0 2056.98 941.77"
 xmlns:xlink="http://www.w3.org/1999/xlink"
 xmlns:xodm="http://www.corel.com/coreldraw/odm/2003">
 <defs>
  <style type="text/css">
   <![CDATA[
    .fil0 {fill:#1966B3}
    .fil1 {fill:#586980}
    .fil2 {fill:#586980;fill-rule:nonzero}
   ]]>
  </style>
 </defs>
 <g id="Capa_x0020_1">
  <metadata id="CorelCorpID_0Corel-Layer"/>
  <g id="_2256701521312">
   <path class="fil0" d="M688.76 518.72c-0.6,-19.11 -1.42,-36.99 1.97,-55.69 3.58,-19.75 9.34,-27.19 28.01,-31.51 17.98,-4.16 36.74,-1.37 48.42,8.38 11.81,9.86 11.23,28.86 11.4,47.39 0.17,18.87 0.85,37.66 -1.51,56.15 -2.33,18.19 -11.07,27.19 -28.06,31.19 -15.98,3.77 -38.44,0.71 -47.82,-9.36 -10.88,-11.66 -11.82,-27.79 -12.41,-46.56zm19.93 -156.19c-37.79,4.75 -74.85,18.69 -97.25,47.82 -30.77,40.02 -37.27,124.55 -8.1,172.46 50.88,83.58 205.83,77.19 252.91,12.97 21.32,-29.08 30.79,-74.04 25.13,-117.73 -6.09,-47.02 -23.88,-74.53 -53.23,-92.14 -31.51,-18.91 -75.92,-28.87 -119.46,-23.39z"/>
   <path class="fil0" d="M315.96 538.39c0.18,33.69 -1.22,66.31 0.11,100.26l60.12 -0.26 1.06 -18.51c11.19,3.86 19.87,10.43 33.2,14.9 60.96,20.47 150.89,11.67 165.29,-58.65 8.49,-41.41 -14.72,-77.16 -47.83,-93.73 -29.28,-14.66 -120.63,-31.83 -127.6,-42.36 -4.69,-7.08 0.14,-12.39 5.75,-14.98 19.81,-9.14 70.59,3.23 94.34,24.35 18.39,16.34 -10.45,12.95 67.46,12.98 3.21,-11.42 0.02,-76.48 -0.13,-93.27 -7.17,-2.55 -48.93,-1.3 -58.24,-0.13l-0.86 15.13c-7.26,-0.22 -26.93,-20.12 -79.87,-22.62 -32.1,-1.52 -62.29,5.52 -84.15,20.72 -10.59,7.37 -17.05,14.41 -23.51,27.72 -12.07,24.88 -10.34,61.48 6.55,83.01 25.09,31.97 66.04,39.39 104.84,51.19 9.3,2.83 52.77,13.61 57.56,20.48 12.76,18.32 -56.94,24.6 -95.05,-0.51 -20.91,-13.78 -20.2,-24.8 -26.76,-26.12 -5.38,-1.08 -44.81,-0.1 -52.3,0.41z"/>
   <path class="fil0" d="M121.84 430.85l39.88 1.52 0.07 131.85c-0.17,15.86 -11.56,7.13 -40.1,9.37l-0.58 65.09 178.03 0.19 0.03 -65.02 -40.98 -1.19 0.28 -140.35 40.75 -0.65c0.09,-20.53 0.69,-40.79 -0.03,-60.93 -0.31,-8.64 -0.05,-6.33 -22.9,-6.36 -28.55,-0.04 -137.84,-1.77 -154.02,0.32l-0.41 66.15z"/>
   <path class="fil1" d="M497.19 309.97l-0.16 -66.13 25.6 -3.33 11.23 14.82c3.61,5.1 7.41,9.98 10.76,14.87 6.38,9.32 14.04,20.51 18.72,31.6 -15.46,5.79 -48.66,8.12 -66.14,8.17zm-39.44 -69.56l25.58 3.07c3.41,7.71 1.69,62.69 0.66,66.17 -20.54,2.65 -47.84,-3.67 -66.88,-7.36 8.16,-21.57 38.37,-57.4 40.64,-61.88zm78 -3.4c3.15,-2.74 8.08,-4.43 12.37,-6.39 7.17,-3.27 7.24,-1.95 13.4,1.7 32.11,19.01 27.82,17.28 54.26,38.84 3.98,3.25 7.89,5.65 10.24,10.08l-23.04 10.07c-8.76,3.17 -17.49,5.89 -26.93,7.56 -4.34,-9.86 -13.36,-22.06 -19.35,-31.46 -3.37,-5.29 -6.82,-10.19 -10.37,-15.26 -3.35,-4.79 -8.02,-9.94 -10.58,-15.15zm-131.43 61.81c-8.51,0.2 -44.63,-11.96 -48.78,-16.41 2.82,-8.55 51.33,-42.34 62.86,-48.78 10.68,-5.96 7.9,-5.29 26.56,2.21 -1.16,4.41 -16.76,24.59 -20.54,30.56 -6.03,9.54 -13.33,23.74 -20.1,32.42zm162.63 -78.11c5.66,-9.46 16.08,-3.84 26.34,-0.41 19.95,6.66 63.3,26.84 74.93,38.83 -2.19,3.7 -8.15,5.7 -12.44,8.15 -16.01,9.17 -15.7,12.33 -26.86,0.05l-21.32 -18.17c-0.2,-0.14 -0.48,-0.34 -0.68,-0.48 -0.28,-0.2 -1.06,-0.79 -1.34,-1l-38.63 -26.97zm-222.83 56.09c-8.27,-1.29 -26.91,-12.06 -31.27,-16.51 6.8,-10.49 56.81,-33.25 74.96,-39.77 8.97,-3.22 18.42,-10.39 26.72,1.21 -15.06,8.44 -41.34,27.63 -54.36,39.8 -6.18,5.78 -10.34,8.06 -16.06,15.27zm79.13 -65.4c13.66,-10.25 120.19,-11.52 134.27,0 -24.01,20.51 -72.14,25.64 -105.25,14.94 -8.93,-2.89 -23.62,-9.57 -29.03,-14.94zm-197.77 122.84c16.58,0.15 8.87,2.08 29.29,-22.1 10.97,-13 22.33,-25.01 35.43,-35.61 3.15,-2.54 8,-5.82 10.05,-8.22l32.87 17.85c-1.25,3.97 -13.61,18.24 -17.24,23.03 -3.53,4.65 -14.8,19.45 -16.42,25.51 14.75,1.02 10.58,-0.12 25.21,-19.04l20.32 -23.53 53.13 18.53 -9.49 23.6 10.95 0.19c3.38,-4.24 8.56,-15.08 10.42,-20.95 11.47,1.09 23.36,4.32 35.53,5.65 9.56,1.05 31.12,1.42 38.54,3.39l1.74 11.74c16.39,-0.1 8.22,0.09 12.08,-11.76 12.18,-0.94 24.23,-1.67 36.37,-3.23 9.05,-1.16 28.33,-5.75 35.37,-5.57 5.23,6.5 6.76,14.77 11.86,20.56 19.14,0.48 7.54,-0.94 0.95,-24.31 18.4,-6.1 35.8,-11.72 53.54,-18.89 6.59,4.47 25.49,29.04 30.99,37.17 5.3,7.86 4.56,6.56 16.02,5.59 -2.73,-8.64 -11.73,-18.38 -16.58,-24.81 -1.18,-1.57 -2.5,-3.69 -3.83,-5.49 -1.64,-2.22 -3.05,-3.78 -4.66,-5.82 -3.71,-4.7 -7.18,-6.26 -9.6,-11.83 2.36,-2.71 10.48,-6.86 13.83,-8.77 18.53,-10.58 14.61,-16.12 39.61,8.19 19.35,18.82 25.09,24.21 42.31,48.15l12.37 0.5c-5.34,-16.86 -42.95,-53.44 -59.83,-67.96 -5.54,-4.76 -8.49,-6.86 -14.3,-11.31 -49.13,-37.61 -122.84,-64.54 -191.89,-62.85 -96.89,2.38 -184.89,40.55 -244.01,113.09 -3.9,4.79 -20.05,24.06 -20.94,29.3z"/>
   <path class="fil1" d="M425.13 792.29l2.31 -2.48c0.97,-0.8 2.64,-1.78 3.53,-2.3 36.51,-21.32 86.34,-21.45 122.9,-0.42 1.39,0.8 1.97,0.9 3.64,2.17l2.76 3.03c-19.19,10.55 -115.57,10.27 -135.14,0zm-110.84 -48.89c5.13,-4.68 22.12,-15.54 30.94,-16.51 5.87,7.76 25.21,23 33.41,29.38 11.55,9 24.48,18 37.2,25.48 -5.42,10.12 -14.62,5.15 -25.63,1.41 -19.94,-6.78 -35.09,-13.76 -52.8,-24.05l-21.32 -13.71c-1.61,-1.52 -0.59,-0.26 -1.79,-2zm254.77 38.42l37.45 -25.98c12.26,-9.3 24.04,-19.9 34.13,-29.5 6.08,1.68 16.93,7.77 23.11,11.43 0.77,0.46 3.37,2 3.6,2.17 0.1,0.07 1.94,1.64 1.97,1.67 1.51,1.55 0.46,0.28 1.75,2.22 -21.99,12.76 -16.73,13.35 -48.53,28.02 -8.73,4.03 -18.23,8 -27.4,11 -10.54,3.45 -20.59,9.24 -26.09,-1.03zm-212.45 -60.53c6.28,-4.88 40.85,-17.55 50.04,-17.39 3.4,4.32 6.68,11.24 9.53,16l31.02 46.99c-13.78,8.1 -17.62,8.37 -25.26,4.29 -16.8,-8.97 -61.11,-39.43 -65.33,-49.89zm182.27 45.4l30.52 -46.79c3.04,-5 5.6,-11.49 9.54,-16.07 17.96,0.95 33.88,11.1 49.1,16.01 -3.17,7.87 -32.23,30.05 -40.3,35.83 -5.4,3.86 -28.14,20.07 -35.17,17.65 -4.62,-1.59 -10.27,-3.98 -13.69,-6.63zm-39.84 -7.34c-1.68,-18.6 -1.91,-48.31 -0.02,-66.8 24.19,-1.26 45.09,4.62 67.3,7.57 -1.84,8.72 -34.25,56.86 -39.34,61.14 -3.76,3.15 -22.38,-0.76 -27.95,-1.91zm-79.52 -59.03c8.61,-3.46 56.76,-9.69 66.8,-7.41l0.05 66.22c-6.9,1.71 -22.94,5.69 -27.35,1.81 -7.1,-6.25 -37.11,-51.54 -39.5,-60.62zm-119.37 -31.98c12.88,23.73 31.51,43.22 34.13,48.29 -2.35,2.28 -27.01,17.29 -30.63,17.97 -7.66,1.43 -47.41,-42.04 -50.4,-46.15 -17,-23.32 -13.73,-20.71 -26.69,-20.12 0.33,4.68 17.25,25.9 20.68,29.6l12.3 13.3c25.17,24.85 38.46,37.9 71.21,56.84 100.23,57.98 223.8,58.51 324,-0.08 42.87,-25.07 70.63,-53.69 99.59,-92.52 1.1,-1.47 1.79,-2.13 2.46,-3.35 1.33,-2.41 1.19,-0.83 1.09,-3.8 -14.56,-0.36 -10.39,-1.49 -21.73,13.43 -5.24,6.89 -10.46,12.89 -15.73,19.22l-18.1 17.96c-3.42,3.94 -5.59,4.81 -9.34,8.14 -3.44,3.05 -6.04,5.5 -9.29,7.84 -2.29,-0.49 -30.91,-15.92 -33.33,-19.43 6.28,-9.63 26.93,-29.93 33.97,-47.33l-11.92 0.01c-5.44,7.61 -10.26,14.9 -15.96,22.38 -2.4,3.14 -5.89,7.85 -8.23,10.4 -3.58,3.9 -6.06,6.15 -8.67,9.92l-54.5 -18.97c1.13,-7.58 8.34,-15.53 8.76,-23.78l-10.34 -0.12 -10.32 21.04c-11.66,-0.38 -42.21,-7.04 -65.25,-8.34 -14.95,-0.85 -7.32,-1.43 -10.81,-12.55l-10.15 -0.04 -1.03 11.27c-5.02,2.65 -30.06,3.09 -38.11,4.1 -10.78,1.35 -25.18,4.79 -35.16,5.26 -2.45,-5.9 -7.24,-15.73 -10.68,-20.72l-10.28 0.12c0.33,5.85 7.2,17.28 9.08,24.27 -7.54,3.42 -22.21,7.2 -31.18,10.44 -19.45,7.02 -22.33,11.25 -27.45,5.05 -8.26,-9.99 -20.8,-24.16 -27.45,-35.5 -3.79,-6.47 -5.34,-4.95 -14.53,-4.05z"/>
   <path class="fil1" d="M266.49 132.78c11.03,13.3 -12.19,22.28 -17.83,18.97 -2.02,-1.19 -4.03,-4.09 -4.62,-7.18 -1.06,-5.47 -0.17,-6.1 3.17,-7.64 4.08,-1.88 14.52,-4.57 19.28,-4.16zm-31.9 -33.35c13.08,-6.13 22.38,12.67 4.66,20.26 -12.77,5.46 -24.24,-11.08 -4.66,-20.26zm-6.31 28.53c-0.58,8.38 1.15,11.21 8.9,11.78 -3.32,29.84 27.72,21.08 38.49,5.87 6.7,-9.46 -0.63,-21.05 -12,-20.17 -7.04,0.55 -24.26,9.72 -28.81,5.62 0.52,-6.15 0.04,-1.21 9.87,-7.07 3.5,-2.08 7.55,-5.26 9.98,-8.71 6.1,-8.67 0.14,-19.84 -7.4,-23.05 1.07,-5.51 3.43,-1.11 0.63,-7.38 -5.88,-0.96 -25.04,13.52 -27.3,16.22 -8.29,9.88 -4.12,22.8 7.65,26.89z"/>
   <path class="fil1" d="M153.77 139.88c16.55,-5.51 55.03,37.57 25.89,48.24 -11.41,4.18 -18.52,-6.64 -24.44,-11.66 -2.8,-2.37 -3.52,-3.07 -5.74,-5.91 -10.3,-13.1 -9.96,-25.92 4.3,-30.67zm-0.96 -8.06c-16.31,5.69 -26.37,24.41 -12.59,41.02 6.89,8.31 22.38,29.45 40.56,23.36 14.63,-4.9 25.52,-22.09 12.46,-40.3 -7.64,-10.65 -24.76,-29.55 -40.43,-24.08z"/>
   <path class="fil1" d="M894.52 319.8c-11.61,-12.74 -8.88,-20.95 5.52,-28.3 5.09,-2.6 11.82,-6.74 18.05,-3.69 3.68,1.81 8.03,10.38 8.92,15.55l-32.49 16.44zm-1.27 9.81c8.06,-3.32 57.03,-27.32 60.59,-30.91l-2.3 -6.01c-6.71,0.72 -11.36,4.93 -17.55,7.07 -5.23,-8.63 -5.2,-15.64 -13.94,-19.77 -10.59,-5.01 -43.9,7.39 -39.9,27.97 1.33,6.82 9.04,18.81 13.09,21.65z"/>
   <path class="fil1" d="M967.09 431.62l-36.28 6.53c-5.66,-16.85 -3.8,-22.66 13.22,-25.96 18.45,-3.57 22.45,0.33 23.06,19.43zm-41.19 15.09c6.24,0.44 62.5,-9.97 67.96,-12.47l-1 -6.79c-5.95,-0.7 -14.18,3.34 -18.36,1.7 -4.43,-14.79 -0.49,-31.92 -34.75,-24.58 -24.42,5.23 -20.55,20.93 -13.85,42.13z"/>
   <path class="fil1" d="M766.36 158.98l-3.2 3.57c1.82,7.39 25.98,32.32 41,14.48 14.51,-17.23 -15.36,-42.21 1.78,-52.02 9.58,-2.96 19.21,14.55 25.61,16.42l4.04 -4.36c-4.57,-7.57 -28.03,-32.04 -40.98,-13.83 -11.09,15.59 16.3,44.82 -1.37,51.07 -10.51,3.72 -20.29,-12.27 -26.88,-15.33z"/>
   <path class="fil1" d="M25.39 563.41l3.26 23.95c-10.04,0.75 -16.01,-0.92 -17.04,-10.43 -1.01,-9.29 4.65,-14.87 13.79,-13.52zm9.46 22.2c-1.24,-9.53 -1.32,-23.72 -5.11,-31.23 -31.89,-7.66 -41.23,54.17 12.72,39.1 6.59,-1.84 10.32,-4.78 12.57,-9.64 3.46,-7.46 1.46,-19.19 -0.95,-26.85 -1.69,-5.37 -1.58,-4.76 -7.4,-4.41 -0.43,7.88 3.87,15.05 2.89,23.21 -0.83,6.9 -7.77,10.97 -14.72,9.82z"/>
   <path class="fil1" d="M34.13 431.12c3.23,0.15 11.93,0.68 13.97,2.73 4.22,6.46 4.29,20.7 -7.85,19.32 -12.8,-1.46 -7.88,-18.31 -6.13,-22.05zm-24.45 22.42c3.25,-6.97 0.46,-15.43 5.25,-23.6l11.73 -0.53c2.54,12.11 -8.44,33.16 16.77,32.22 19.48,-0.73 10.9,-23.41 12.6,-26.94l2.56 -4.49c0.62,-3.2 0.18,-1.32 0.02,-3.43 -5.04,-2.52 -36.73,-6.89 -42.69,-5.39 -10.21,2.57 -11.6,16 -11.91,25.27 -0.21,6.48 -0.54,6.92 5.67,6.91z"/>
   <path class="fil1" d="M566.46 49.59c-1.39,9.55 -3.07,19.09 -14.16,18.45 -11.4,-0.65 -12.45,-8.88 -11.03,-19.98 1.26,-9.82 3.24,-18.84 14.28,-18.21 11.18,0.63 12.39,9.59 10.91,19.74zm-19.69 -25.7c-23.3,9.28 -18.95,62.51 14.85,50.34 10.4,-3.75 14.82,-19.32 13.57,-33.82 -1.11,-12.87 -14.37,-22.11 -28.42,-16.52z"/>
   <path class="fil1" d="M456.71 47.27l1.73 13.94c-6.84,5.19 -10.98,6.43 -19.78,4.11 -4.74,-14.77 1.54,-19.88 18.05,-18.04zm-27.88 -23.29l0.3 5.22c12.39,0.91 29.4,-8.73 26.77,11.42 -14.24,1.96 -29.19,1.82 -27.25,19.41 2.24,20.27 24.22,13.45 28.78,7.98 3.12,2.44 2.45,3.79 9.64,2.49 0.51,-5.99 -2.17,-36.17 -4.17,-41.04 -4.67,-11.35 -24.08,-11.6 -34.08,-5.47z"/>
   <path class="fil1" d="M284.42 112.36c-3.74,-2.5 -8.92,-9.03 -4.64,-14.94 1.58,-2.18 10.5,-6.56 13.95,-8.02 3.33,2.9 6.17,9.34 7.13,14.25 -5.64,3.41 -6.8,9.41 -16.44,8.71zm1.45 -38.2c2.66,2.48 4.29,4.82 5.3,9.19 -10.1,6.7 -27.38,11.28 -18.61,28.17 2.78,5.35 7.4,10.08 15.77,8.3 7.99,-1.69 10.79,-6.73 14.72,-10.86 4.63,-0.45 -2.29,2.7 5.36,0.8 7.36,-1.83 1.01,-9.14 -3.62,-18.84 -6.89,-14.44 -11.76,-31.83 -31.43,-22.16 -20.43,10.04 -14.54,16.68 -3.82,10.18 4.96,-3.01 9.17,-6.02 16.34,-4.77z"/>
   <path class="fil1" d="M720.07 96.15c-11.71,32.61 -34.94,19.12 -28.77,1.83 11.37,-31.87 34.38,-17.46 28.77,-1.83zm-18.77 -23.59c-8.89,3.51 -19.12,18.15 -19.41,30.69 -0.3,13.04 14.4,23.6 27.41,19.65 8.63,-2.63 19.15,-18.63 19.78,-30.29 0.72,-13.3 -13.73,-25.61 -27.79,-20.05z"/>
   <path class="fil1" d="M952.13 550.86c-5.4,1 -14.32,1.11 -16.45,-3.56 -8.21,-18.03 10.63,-22.1 15.43,-14.35 2.43,3.93 1.34,12.86 1.01,17.91zm-24.56 6.87c7.6,1.55 37.25,3.88 43.37,1.42 6.08,-2.45 8.35,-7.45 9.07,-15.26 1.64,-17.71 -0.07,-17.39 -6.59,-17.25 -1.03,16.49 4.43,26.01 -14.71,25.39 -1.49,-7.75 1.48,-14.91 -1.95,-23.45 -2.38,-5.91 -10.08,-8.69 -18.77,-6.94 -17.95,3.63 -6.34,23.49 -8.98,28.29 -1.09,1.98 -3.19,1.73 -1.44,7.8z"/>
   <path class="fil1" d="M855.76 224.2c-2.89,3.33 -6.97,7.28 -11.4,9.52 -24.33,-9.51 -7.25,-28.97 2.91,-19.42 3.4,3.19 5.83,6.29 8.49,9.91zm-0.15 -34.12c1.77,9.46 25.49,20.93 5.06,30.34 -6.86,-10.41 -18.59,-22.56 -30.46,-12.7 -13.91,11.55 -4.55,23.86 8.98,29.82 -1.45,4.74 -1.22,5.36 2.79,8.42 3.91,-1.52 30.4,-23.3 32,-25.91 8.26,-13.42 -10.75,-35.52 -18.37,-29.97z"/>
   <path class="fil1" d="M105.07 259.54c-0.86,-9.03 4.22,-14.07 8.22,-19.17 4.29,1.73 8.62,5.16 12.03,8.28 -0.5,7.71 -3.36,12.91 -7.21,16.15 -8.22,0.83 -7.7,-1.5 -13.05,-5.26zm-27.51 -12.2l4.2 2.77c4.23,-3.94 6.43,-10.64 10.06,-14.83 6.34,-7.31 10.12,-2.01 16.12,0.17 -3.04,10.3 -19.71,22.11 -3.81,34 14.58,10.91 24.16,-2.17 26.33,-16.15 1.81,-0.92 4.49,0.56 7.06,-5.82 -2.13,-3.17 -26.31,-19.71 -31.23,-22.13 -9.03,-4.45 -15.58,-0.04 -19.61,4.84 -3.01,3.65 -8.06,11.62 -9.12,17.13z"/>
   <path class="fil1" d="M923.9 632.57c6.04,-1.87 20.82,3.03 24.98,6.3 7.2,5.66 4.87,17.77 -3.15,20.75 -7.26,2.69 -21.09,-2.56 -25.61,-5.96 -8.22,-6.17 -5.12,-18.34 3.78,-21.09zm-1.01 -8.01c-15.89,4.38 -17.66,23.26 -11.62,32.15 4.19,6.15 23.77,14.8 35.61,11.02 10.31,-3.29 19.23,-19.42 10.54,-31.55 -4.92,-6.86 -22.26,-15 -34.53,-11.62z"/>
   <path class="fil1" d="M906.06 344.89c14.7,-10.29 19.36,-1.19 22.29,13.08 -4.61,0.99 -10.45,4.68 -14.5,4.09 -4.56,-2.66 -8.3,-8.89 -7.79,-17.18zm28.32 10.36c-6,-11.76 -8.29,-28.71 -26.03,-21.62 -16.48,6.59 -9.41,25.64 -0.11,30.5 -2.53,4.88 -3.32,1.21 -0.53,8.61 5.53,0.96 22.83,-7.03 29.22,-9.37 10.75,-3.95 18.65,-8.06 14.41,-22.67 -1.13,-3.91 -6.07,-20.57 -11.63,-15.35 -0.94,0.88 -2.63,-0.37 0.88,7.42 1.8,4 4.97,10.18 4.44,14.52 -0.7,5.74 -5.09,6.04 -10.65,7.97z"/>
   <path class="fil1" d="M40.07 337.12c-2.08,-23.9 35.85,-12.32 37.35,1.26 2.74,24.82 -36.29,10.92 -37.35,-1.26zm6.71 -21.47c-10.64,3.49 -19.85,20.45 -10.43,32.04 5.01,6.16 23.3,16.16 35.5,12.09 10.37,-3.46 17.89,-20.32 9.9,-31.85 -4.14,-5.98 -23.53,-16.04 -34.96,-12.28z"/>
   <path class="fil1" d="M586.98 80.65c5.91,-9.51 5.45,-30.91 11.71,-39.48 4.68,-1.73 13.49,-1.77 17.4,1.52 4.45,3.73 2.3,11.19 0.78,16.83 -6.94,25.79 -10.03,28.3 0.48,28.57 2.28,-3.58 9.15,-30.63 9.62,-36.18 1.31,-15.4 -11.17,-21.08 -25.92,-17.78 -0.18,-0.19 -0.36,-0.83 -0.43,-0.65 -0.39,1.01 0.84,-3.29 -7.71,-3.74 -3.19,4.99 -8.66,31.22 -11.36,41.2 -2.18,8.04 -3.24,8.86 5.43,9.72z"/>
   <path class="fil1" d="M848.87 255.63l2.68 4.58c6.91,-0.06 27.58,-17.1 35.88,-20.84 10.87,5.14 17.97,14.89 4.28,24.05 -5.28,3.53 -23.42,13.71 -25.81,17.82 1.24,3.88 0.93,3.32 4.07,5.64 5.4,-1.72 30.82,-19.19 34.03,-22.85 5.99,-6.83 3.46,-14.65 -0.95,-20.55 -3.27,-4.39 -4.92,-4.1 -7.5,-6.44 -4.88,-4.42 1.41,2.12 -3.05,-9.69 -5.2,0.83 -18.25,10.07 -22.64,13.06 -4.5,3.07 -19.11,11.04 -20.99,15.22z"/>
   <path class="fil1" d="M32.27 674.33c-2.2,4.77 -2.2,3.69 -0.62,9.79 5.89,-0.54 45.16,-13.68 48.89,-16.06l-2.23 -6.99c-9.32,1.21 -34.68,12.67 -39.94,11.83 -2.82,-2.1 -6.58,-6.83 -7.44,-12.53 -1.12,-7.39 3.43,-9.2 9.05,-11.22 9.95,-3.57 20.82,-7.11 30.34,-10.27l-1.49 -6.97c-4.66,-0.47 -31.47,8.81 -36.13,11.08 -16.89,8.23 -8.93,26.06 -0.43,31.35z"/>
   <path class="fil1" d="M314.17 54.82c-3.61,-3.61 -3.96,-2.04 -8.38,-0.14 -0.26,4.83 14.31,44.27 16.85,48.19l6.86 -2.14 -13.49 -39.32c26.84,-25.81 24.78,13.06 35.94,30.32 11.36,-0.54 5.41,-7.44 2.56,-15.6 -4.59,-13.13 -8.43,-31.35 -22.27,-31.01 -7.81,0.19 -15.49,6.1 -18.06,9.71z"/>
   <path class="fil1" d="M897.83 673.47c6.53,6.05 29.4,11.6 37.07,17.54 3.54,36.84 -31.33,7.54 -46.31,4.88l-3.51 6.42c3.78,2.63 26.9,12.73 32.34,14.59 16.49,5.61 24.51,-6.83 23.89,-22.4 3.86,-1.9 4.56,-1.48 5.64,-6.98 -3.15,-2.98 -42.14,-19.78 -47.26,-20.34l-1.87 6.3z"/>
   <path class="fil1" d="M55.82 288.23c-4.19,2.76 -4.77,0.45 -6.17,6.98 2.78,2.95 40.56,23.27 44.68,24.02 1.23,-1.96 2.33,-3.58 2.8,-6.56l-35.22 -19.53c-0.76,-14.27 6.07,-22.73 19.07,-15.69 6.81,3.69 21.11,12.23 27.66,14.13l4.03 -6.8c-18.23,-8.98 -53.72,-37.21 -56.85,3.45z"/>
   <path class="fil1" d="M3.46 500.15c-3.6,3.31 -3.87,2.79 -2.9,9.05l50.23 2.3 0.88 -7.73c-22.94,-5.16 -46.52,8.27 -44.2,-16.37 1.6,-17.08 29.5,-2.5 44.44,-7.92 1.47,-3.33 1.23,-2.71 0.57,-7.02 -6.77,-1.24 -35.14,-2.42 -41.11,-0.88 -12.21,3.14 -13.92,16.79 -7.91,28.57z"/>
   <path class="fil1" d="M929.51 512.77l6.26 -0.01 -0.24 -26.61c4.22,0.49 5.07,2.45 10.53,6.55l19.93 14.99c5.45,4.39 5.89,4.92 14.02,3.52 1.27,-5.98 0.96,-28.77 -0.9,-34l-5.31 -0.15c-1.97,6.68 -0.43,18.14 -0.27,25.41 -4.95,-2.03 -11.05,-7.57 -15.75,-11.03 -4.77,-3.52 -9.92,-8.03 -15.21,-11.62 -6.79,-4.6 -14.24,-5.16 -14.19,6.23 0.03,7.78 0.14,19.21 1.13,26.72z"/>
   <path class="fil1" d="M380.31 31.39l0.43 5.43c4.76,1.58 19.42,-2.7 25.28,-3.62 -2.08,6.9 -7.93,16.27 -11.46,22.95 -3.82,7.24 -11,15.6 -5.38,23.82 4.91,2.63 27.32,-3.39 33.85,-4.73 0.1,-9.15 -2.88,-6.6 -10.84,-4.97 -5.34,1.1 -11.47,2.92 -16.7,2.53 6.1,-19.01 22.46,-32 18.24,-46.68 -5.79,-1.47 -26.96,2.77 -33.42,5.27z"/>
   <path class="fil1" d="M673.23 53.44c-5.72,-1 -6.4,-3.79 -10.65,-1.53 -2.02,5.67 2.57,5.23 7.83,8.65 -3.31,11.64 -14.6,31.03 -15.98,41.83l7.29 2.25 16.48 -40.26c3.34,0.58 2.84,0.92 5.48,1.78 0.37,0.12 2.41,0.71 2.65,0.71l3.59 -0.96c2.96,-6.13 -2.52,-6.24 -8.49,-8.32l4.05 -10.75c6.96,-0.18 6.64,1.61 11.62,2.16l1.85 -4.02c-2.97,-3.42 -9.65,-7.1 -15.75,-5.23 -5.88,1.8 -7.07,8.74 -9.97,13.68z"/>
   <path class="fil1" d="M56.03 608.36c-4.55,2.64 -29.84,9.13 -36.79,9.3l-2.36 -10.65c-10.34,0.73 -5.88,3.47 -4.39,13.13l-10.61 2.41 2.15 7.47 10.27 -1.8c3.14,6.27 -0.01,10.86 7.02,9.21 2.03,-3.65 0.34,-6.39 0.46,-11.16 19.74,-5.38 40.57,-5.29 41.41,-16.8 0.16,-2.24 -0.35,-6 -1.01,-8.14 -1.62,-5.27 -1.24,-4.95 -5.94,-4.53 -2.92,3.61 -0.17,5.62 -0.22,11.57z"/>
   <path class="fil1" d="M968.81 579.4c-18.3,-0.1 -39.52,-10.46 -45.02,-1 -2.2,3.78 -3.36,10.96 -1.44,14.81l4.15 0.76c0.79,-1.82 2.26,-9.66 3.64,-10.6 4.33,-1.13 32.1,3.1 36.61,5.2 -0.1,4.26 -1.68,7.91 -0.17,11.24l4.62 0.97c3.03,-4.88 1.34,-6.4 3.53,-11.21 10.03,0.45 12.06,4.85 11.08,-6.32l-9.53 -2.35c-0.78,-4.83 1.27,-6.91 -0.39,-10.75 -4.37,-0.63 -4.56,-3.53 -7.09,9.24z"/>
   <path class="fil1" d="M14.29 391.48l-11.46 -2.31 -0.6 7.3c4.1,2.71 5.35,1.49 9.69,3.51 -0.18,5.52 -3.77,10.43 1.41,11.14 3.65,0.5 4.68,-6.1 6.08,-9.55 9.2,1.42 20.15,4.7 29.52,6.91 23.09,5.45 17.46,-16.61 17.21,-17.15 -6.2,-1.14 -3.59,-1.93 -5.39,2.58 -0.9,2.24 -1.5,5.2 -2.36,6.95 -7.12,0.79 -29.17,-5.74 -36.87,-7.55l2.18 -11.39 -5.93 -1.73 -3.47 11.3z"/>
   <path class="fil1" d="M481.7 18.65l-10.38 0.84c-0.56,7.49 3.05,5.35 10.11,6.53 4.32,15.85 -4.65,41.13 8.01,44.56 1.86,0.5 7.47,0.77 9.32,0.46 5.18,-0.86 4.3,-0.53 4.54,-5.16 -7.47,-5.93 -12.33,6.05 -12.47,-13.94 -0.05,-7.35 -1.52,-19.57 0.27,-26.12l11.01 -0.39 0.27 -6.44 -12.08 -0.34c-0.05,-4.18 0.43,-7.69 -0.99,-11.26l-6.72 0.49 -0.89 10.76z"/>
   <path class="fil1" d="M832.35 168.38c-10.82,14.27 -30.53,23.08 -27.34,34.41 1.24,4.41 6.15,8.97 10.25,10.5l3.57 -2.89c-2.7,-4.74 -4.47,-3.81 -6.23,-9.47 2.65,-4.94 21.42,-22.45 25.95,-26.31l8.73 7.51c2.12,-1.86 2.03,-1.77 3.65,-3.56 -1.45,-5.64 -4.66,-4.33 -7.07,-10.79 2.98,-2.04 5.67,-3.94 7.42,-7.85l-5.64 -3.77 -6.65 6.73c-6.67,-2.82 -6.69,-9.52 -10.97,-5.16 -3.17,3.23 2.5,7.03 4.34,10.66z"/>
   <path class="fil1" d="M26.06 715.06c6.29,-1.95 59.5,-24.69 63.2,-27.72l-2.74 -6.61c-4.02,0.43 -59.66,24.33 -63.48,27.07 0.43,3.63 1.1,4.98 3.02,7.27z"/>
   <path class="fil1" d="M91.52 192.68c1.88,4.85 20.8,18.64 25.9,22.74 4.95,3.98 23.54,19.99 28.46,21.71l4.42 -5.63c-4.88,-5.46 -52.44,-42.4 -54.47,-43.21l-4.31 4.39z"/>
   <path class="fil1" d="M911.55 383.42l0.88 6.59c6.81,3.05 31.08,-7.02 40.18,-8.73 5.87,5.12 4.6,5.83 8.27,12.54l6.02 -1.52c-0.75,-6.2 -3.67,-10.35 -7.06,-12.42 1.48,-2.28 3.23,-1.93 1.79,-6.32 -1.85,-5.62 -5.4,-2.21 -20.66,1.97 -9.01,2.47 -20.57,6.37 -29.43,7.9z"/>
   <path class="fil1" d="M720.42 135.15c2.49,2.31 2.82,2.62 6.36,3.09 3.82,-3.9 7.57,-11.33 10.82,-16.15 3.63,-5.37 7.2,-12.59 11.3,-16.88 8.85,-0.14 8.86,2.79 15.1,3.62 1.49,-2.46 1.96,-2.64 2.59,-6.2 -3.75,-1.33 -8.09,-3.4 -13.75,-3.54 0.53,-4.85 -0.73,-5.09 -5.11,-6.66 -5.45,4.41 -9.91,14.44 -14.32,20.82 -2.75,3.99 -12.57,18.19 -13,21.9z"/>
   <path class="fil1" d="M194.4 122.69c-4.42,-1.81 -5.06,-0.85 -8.1,2.56 1.43,4.86 11.12,16.07 14.71,20.54 5.02,6.23 9.83,14.78 15.88,19.63 3.94,-1.34 2.78,-1.34 5.52,-4.08 -2.73,-7.52 -23.65,-29.04 -23.46,-33.59 0.17,-4.22 6.13,-9.11 8.02,-11.81l-3.03 -4.37c-4.46,1.13 -7.78,5.5 -9.54,11.12z"/>
   <path class="fil1" d="M3.62 533.88c-0.04,0.28 -0.29,0.37 -0.34,0.78l-1.4 3.25c-0.93,3.49 -0.91,2.04 0.2,5.87l49.79 -2.02 0.36 -7.4c-7.95,-2.38 -31.09,1.53 -41.46,0.85 -2.12,-5.76 -2.8,-7.48 -4.33,-14.21l-6.08 0.24c-1.05,5.56 0.21,9.33 3.26,12.64z"/>
   <path class="fil1" d="M927.06 459.35l-0.43 7.34c7.27,0.44 34.33,-2.89 44.69,-3.97 6.38,-0.66 8.12,-1.13 5.75,-8.08 -5.96,-1.13 -43.68,2.63 -50.01,4.7z"/>
   <path class="fil1" d="M518.96 71.08c2.53,-5.73 2.22,-21.32 2.57,-28.46 0.38,-7.81 4.34,-29.01 -5.6,-22.43 -2.83,1.88 -2.78,23.44 -3.05,28.43 -1.12,20.42 -3.79,23.16 6.09,22.46z"/>
   <path class="fil1" d="M358.23 37.04c-0.33,4.84 10.92,46.24 13.5,49.31l6.73 -1.74c-0.5,-5.26 -11.51,-45.74 -13.71,-48.86l-6.51 1.29z"/>
   <path class="fil1" d="M919.71 602.24l-1.77 6.05 41.88 10.43c7.55,1.78 9.23,3.11 9.18,-5.71 -4.19,-2.77 -45.71,-11.82 -49.29,-10.77z"/>
   <path class="fil1" d="M38.79 374.27c4.01,2.57 12.57,4.18 17.6,5.79 8.51,2.71 14.34,7.51 15.21,-3.36 -5.09,-3.16 -27.5,-9.49 -34.48,-11.01 -0.6,5.55 -0.72,3.02 1.67,8.58z"/>
   <path class="fil1" d="M38.79 374.27c-2.39,-5.55 -2.27,-3.03 -1.67,-8.58 -2.28,-1.29 -10.29,-4.01 -13.85,-3.53l-2.08 6.31c4.65,3.15 12.19,4.72 17.6,5.8z"/>
   <path class="fil1" d="M986.2 453.53l0.16 7.01c4.49,0.62 6.84,0.63 10.67,-1.19l0.06 -7.33c-4.39,-0.26 -7.3,-0.36 -10.89,1.51z"/>
   <path class="fil1" d="M4.57 356.44l-2.09 7.06 10.26 2.95 2.14 -8.13c-5.01,-1.46 -6.4,-2.83 -10.31,-1.88z"/>
   <path class="fil1" d="M977.15 622.33l9.24 2.32 2.23 -7.67c-6.93,-3.02 -13.22,-5.17 -11.46,5.35z"/>
   <path class="fil1" d="M352.88 17.99l1.95 10.84 7.57 -1.41c0.28,-4.32 -0.27,-6.76 -2.32,-10.36l-7.21 0.92z"/>
   <path class="fil1" d="M515.24 10.56c4.59,1.57 3.56,1.35 7.82,0.39l0.98 -9.8c-4.75,-1.55 -3.59,-1.38 -7.96,-0.31l-0.83 9.73z"/>
  </g>
  <g id="_2256701508592">
   <path class="fil0" d="M2056.98 283.84l-14.19 -15.07c-22.91,27.96 -70.02,94.49 -135.58,74.84 -128.01,-38.38 -110.99,-370.6 60.99,-309.13 14.42,5.16 28.08,14.07 36.47,21.46 19.17,16.91 16.94,16.47 24.67,24.47 5.83,-5.31 12.61,-8.53 15.4,-13.94 -2.3,-6.08 -7.03,-11.77 -9.83,-16.4 -10.65,-17.56 -38.09,-31.78 -55.14,-38.93 -104.15,-43.62 -224.71,45.82 -222.14,180.48 3.63,190.37 231.6,246.44 299.36,92.21zm-56.03 166.45c27.15,0 49.17,22.01 49.17,49.17 0,27.15 -22.01,49.17 -49.17,49.17 -27.15,0 -49.17,-22.01 -49.17,-49.17 0,-27.15 22.01,-49.17 49.17,-49.17zm-639.5 98.34l585.65 0c-4.17,-4.56 -7.76,-9.66 -10.68,-15.18l-574.97 0 0 15.18zm0 -83.16l574.97 0c2.91,-5.52 6.51,-10.62 10.68,-15.18l-585.65 0 0 15.18zm0 41.58l566.97 0c-0.26,-2.5 -0.39,-5.03 -0.39,-7.59 0,-2.56 0.13,-5.09 0.39,-7.59l-566.97 0 0 15.18zm73.34 -489.38l-73.05 0 0 346.38 73.05 0 0 -346.38zm306.32 -11.78l-166.23 0c-26.08,0 -47.41,21.34 -47.41,47.41l0 255.16c0,30.57 25.01,55.59 55.59,55.59l158.05 0 0 -29.06 -120.27 0c-12.83,0 -23.33,-10.5 -23.33,-23.34l0 -110.14c0,-5.21 4.26,-9.48 9.48,-9.48l99.8 0 0 -27.49 -101.1 0c-4.48,0 -8.17,-3.68 -8.17,-8.18l0 -102.06c0,-7.19 5.88,-13.08 13.08,-13.08l130.53 0 0 -35.34z"/>
   <g>
    <path class="fil2" d="M1392.41 700.87l0 1.93 -30.43 0 0 -1.93 2.52 0c2.95,0 5.07,-0.86 6.41,-2.55 0.84,-1.13 1.25,-3.8 1.25,-8.06l0 -45.97c0,-3.59 -0.23,-5.97 -0.68,-7.11 -0.36,-0.88 -1.07,-1.63 -2.16,-2.25 -1.54,-0.84 -3.14,-1.25 -4.82,-1.25l-2.52 0 0 -1.93 30.43 0 0 1.93 -2.56 0c-2.89,0 -5,0.86 -6.32,2.55 -0.88,1.13 -1.3,3.8 -1.3,8.06l0 45.97c0,3.59 0.23,5.97 0.68,7.11 0.34,0.88 1.07,1.62 2.2,2.25 1.5,0.84 3.07,1.25 4.75,1.25l2.56 0zm19.93 -37.42c5.61,-6.7 10.95,-10.05 16.02,-10.05 2.61,0 4.86,0.66 6.73,1.96 1.89,1.31 3.38,3.47 4.5,6.47 0.77,2.11 1.14,5.32 1.14,9.64l0 20.5c0,3.02 0.25,5.05 0.73,6.14 0.37,0.86 1,1.54 1.84,2.02 0.86,0.48 2.43,0.73 4.72,0.73l0 1.93 -23.68 0 0 -1.93 1 0c2.21,0 3.77,-0.34 4.66,-1.02 0.88,-0.68 1.5,-1.68 1.84,-2.98 0.14,-0.52 0.22,-2.16 0.22,-4.89l0 -19.74c0,-4.38 -0.57,-7.57 -1.7,-9.56 -1.13,-1.98 -3.02,-2.96 -5.7,-2.96 -4.13,0 -8.23,2.27 -12.32,6.82l0 25.43c0,3.23 0.2,5.22 0.57,5.98 0.5,1 1.18,1.73 2.04,2.21 0.86,0.47 2.59,0.7 5.22,0.7l0 1.93 -23.79 0 0 -1.93 1.05 0c2.45,0 4.09,-0.61 4.95,-1.84 0.86,-1.23 1.29,-3.59 1.29,-7.05l0 -17.79c0,-5.75 -0.12,-9.25 -0.39,-10.5 -0.27,-1.27 -0.66,-2.13 -1.2,-2.57 -0.54,-0.45 -1.27,-0.68 -2.16,-0.68 -0.98,0 -2.14,0.27 -3.5,0.79l-0.78 -1.93 14.47 -5.89 2.25 0 0 10.05zm53.58 -24.41l0 15.75 11.2 0 0 3.54 -11.2 0.11 0 31.09c0,3.11 0.45,5.22 1.34,6.29 0.88,1.09 2.02,1.63 3.41,1.63 1.16,0 2.27,-0.36 3.36,-1.09 1.07,-0.72 1.91,-1.79 2.5,-3.2l2.04 0c-1.21,3.45 -2.95,6.04 -5.18,7.79 -2.25,1.73 -4.56,2.61 -6.93,2.61 -1.61,0 -3.18,-0.45 -4.71,-1.34 -1.54,-0.89 -2.66,-2.18 -3.39,-3.84 -0.73,-1.66 -1.11,-4.21 -1.11,-7.68l0 -32.36 -7.61 0 0 -1.66c1.93,-0.77 3.89,-2.05 5.91,-3.86 2.02,-1.82 3.8,-3.98 5.39,-6.5 0.8,-1.32 1.93,-3.75 3.38,-7.27l1.61 0zm23.77 33.86c-0.04,7.09 1.7,12.64 5.18,16.68 3.48,4.02 7.59,6.04 12.31,6.04 3.13,0 5.86,-0.86 8.18,-2.57 2.32,-1.7 4.27,-4.68 5.84,-8.9l1.61 1.05c-0.73,4.82 -2.86,9.2 -6.38,13.11 -3.52,3.91 -7.93,5.87 -13.22,5.87 -5.75,0 -10.68,-2.23 -14.77,-6.71 -4.09,-4.48 -6.14,-10.5 -6.14,-18.06 0,-8.18 2.11,-14.57 6.3,-19.15 4.2,-4.59 9.47,-6.87 15.81,-6.87 5.36,0 9.77,1.77 13.22,5.3 3.45,3.54 5.18,8.27 5.18,14.2l-33.11 0zm0 -3l22.18 0c-0.18,-3.07 -0.53,-5.23 -1.09,-6.48 -0.88,-1.95 -2.18,-3.48 -3.91,-4.59 -1.71,-1.13 -3.52,-1.68 -5.41,-1.68 -2.89,0 -5.48,1.13 -7.77,3.38 -2.29,2.25 -3.61,5.38 -4,9.38zm53.67 -16.5l0 10.82c3.98,-7.22 8.07,-10.82 12.27,-10.82 1.89,0 3.46,0.59 4.71,1.77 1.25,1.16 1.88,2.52 1.88,4.05 0,1.37 -0.45,2.54 -1.34,3.48 -0.91,0.95 -1.98,1.41 -3.21,1.41 -1.22,0 -2.57,-0.61 -4.07,-1.82 -1.52,-1.21 -2.64,-1.82 -3.36,-1.82 -0.62,0 -1.3,0.36 -2.04,1.05 -1.55,1.43 -3.18,3.8 -4.84,7.09l0 22.93c0,2.66 0.34,4.7 1,6.05 0.45,0.95 1.25,1.73 2.39,2.34 1.16,0.63 2.8,0.93 4.97,0.93l0 1.93 -24.54 0 0 -1.93c2.43,0 4.23,-0.37 5.41,-1.14 0.88,-0.57 1.48,-1.45 1.82,-2.68 0.18,-0.59 0.27,-2.29 0.27,-5.07l0 -18.54c0,-5.57 -0.11,-8.88 -0.34,-9.95 -0.23,-1.05 -0.64,-1.84 -1.25,-2.32 -0.61,-0.48 -1.37,-0.73 -2.27,-0.73 -1.09,0 -2.3,0.27 -3.66,0.79l-0.52 -1.93 14.52 -5.89 2.2 0zm35.58 10.05c5.61,-6.7 10.95,-10.05 16.02,-10.05 2.61,0 4.86,0.66 6.73,1.96 1.89,1.31 3.38,3.47 4.5,6.47 0.77,2.11 1.14,5.32 1.14,9.64l0 20.5c0,3.02 0.25,5.05 0.73,6.14 0.37,0.86 1,1.54 1.84,2.02 0.86,0.48 2.43,0.73 4.72,0.73l0 1.93 -23.68 0 0 -1.93 1 0c2.21,0 3.77,-0.34 4.66,-1.02 0.88,-0.68 1.5,-1.68 1.84,-2.98 0.14,-0.52 0.22,-2.16 0.22,-4.89l0 -19.74c0,-4.38 -0.57,-7.57 -1.7,-9.56 -1.13,-1.98 -3.02,-2.96 -5.7,-2.96 -4.13,0 -8.23,2.27 -12.32,6.82l0 25.43c0,3.23 0.2,5.22 0.57,5.98 0.5,1 1.18,1.73 2.04,2.21 0.86,0.47 2.59,0.7 5.22,0.7l0 1.93 -23.79 0 0 -1.93 1.05 0c2.45,0 4.09,-0.61 4.95,-1.84 0.86,-1.23 1.29,-3.59 1.29,-7.05l0 -17.79c0,-5.75 -0.12,-9.25 -0.39,-10.5 -0.27,-1.27 -0.66,-2.13 -1.2,-2.57 -0.54,-0.45 -1.27,-0.68 -2.16,-0.68 -0.98,0 -2.14,0.27 -3.5,0.79l-0.78 -1.93 14.47 -5.89 2.25 0 0 10.05zm66.65 32.38c-4.91,3.8 -8,6.02 -9.27,6.61 -1.87,0.87 -3.87,1.32 -6,1.32 -3.32,0 -6.05,-1.14 -8.2,-3.41 -2.14,-2.27 -3.21,-5.25 -3.21,-8.95 0,-2.34 0.52,-4.38 1.57,-6.07 1.43,-2.37 3.91,-4.61 7.45,-6.71 3.56,-2.09 9.43,-4.64 17.66,-7.65l0 -1.87c0,-4.77 -0.75,-8.04 -2.27,-9.82 -1.52,-1.77 -3.71,-2.66 -6.61,-2.66 -2.18,0 -3.93,0.59 -5.22,1.78 -1.32,1.18 -1.98,2.54 -1.98,4.07l0.11 3.04c0,1.61 -0.41,2.86 -1.23,3.73 -0.82,0.88 -1.91,1.3 -3.23,1.3 -1.31,0 -2.38,-0.45 -3.2,-1.36 -0.82,-0.91 -1.23,-2.16 -1.23,-3.73 0,-3 1.54,-5.77 4.61,-8.29 3.07,-2.52 7.39,-3.77 12.95,-3.77 4.27,0 7.75,0.71 10.48,2.14 2.05,1.07 3.57,2.77 4.56,5.07 0.62,1.48 0.95,4.56 0.95,9.18l0 16.25c0,4.55 0.09,7.36 0.27,8.38 0.18,1.04 0.46,1.72 0.86,2.07 0.41,0.34 0.88,0.52 1.39,0.52 0.57,0 1.05,-0.12 1.48,-0.36 0.73,-0.46 2.14,-1.73 4.25,-3.82l0 2.93c-3.93,5.27 -7.68,7.89 -11.25,7.89 -1.72,0 -3.09,-0.59 -4.11,-1.77 -1.02,-1.2 -1.54,-3.21 -1.57,-6.05zm0 -3.41l0 -18.24c-5.3,2.09 -8.71,3.57 -10.27,4.45 -2.77,1.54 -4.75,3.13 -5.95,4.8 -1.2,1.68 -1.79,3.5 -1.79,5.48 0,2.52 0.75,4.59 2.27,6.25 1.5,1.66 3.25,2.48 5.22,2.48 2.66,0 6.16,-1.75 10.52,-5.23zm34.49 -53.38l0 15.75 11.2 0 0 3.54 -11.2 0.11 0 31.09c0,3.11 0.45,5.22 1.34,6.29 0.88,1.09 2.02,1.63 3.41,1.63 1.16,0 2.27,-0.36 3.36,-1.09 1.07,-0.72 1.91,-1.79 2.5,-3.2l2.04 0c-1.21,3.45 -2.95,6.04 -5.18,7.79 -2.25,1.73 -4.56,2.61 -6.93,2.61 -1.61,0 -3.18,-0.45 -4.71,-1.34 -1.54,-0.89 -2.66,-2.18 -3.39,-3.84 -0.73,-1.66 -1.11,-4.21 -1.11,-7.68l0 -32.36 -7.61 0 0 -1.66c1.93,-0.77 3.89,-2.05 5.91,-3.86 2.02,-1.82 3.8,-3.98 5.39,-6.5 0.8,-1.32 1.93,-3.75 3.38,-7.27l1.61 0zm28.04 -10.72c1.45,0 2.7,0.52 3.73,1.54 1.02,1.04 1.54,2.29 1.54,3.73 0,1.47 -0.52,2.73 -1.54,3.77 -1.04,1.05 -2.29,1.57 -3.73,1.57 -1.46,0 -2.73,-0.52 -3.77,-1.57 -1.05,-1.04 -1.57,-2.3 -1.57,-3.77 0,-1.45 0.52,-2.7 1.54,-3.73 1.04,-1.02 2.31,-1.54 3.8,-1.54zm4.3 25.08l0 38.58c0,2.98 0.21,4.96 0.66,5.95 0.43,1 1.07,1.73 1.93,2.21 0.86,0.48 2.43,0.73 4.7,0.73l0 1.93 -23.25 0 0 -1.93c2.32,0 3.89,-0.23 4.68,-0.68 0.8,-0.45 1.43,-1.2 1.91,-2.23 0.47,-1.04 0.7,-3.04 0.7,-5.98l0 -18.54c0,-5.16 -0.16,-8.5 -0.47,-10.04 -0.25,-1.11 -0.62,-1.88 -1.16,-2.3 -0.52,-0.45 -1.23,-0.66 -2.13,-0.66 -0.98,0 -2.16,0.27 -3.55,0.79l-0.73 -1.93 14.41 -5.89 2.3 0zm36.79 0c7.27,0 13.09,2.75 17.49,8.27 3.73,4.7 5.61,10.11 5.61,16.22 0,4.29 -1.04,8.63 -3.09,13.02 -2.05,4.39 -4.89,7.71 -8.5,9.95 -3.63,2.23 -7.64,3.34 -12.07,3.34 -7.23,0 -12.98,-2.87 -17.23,-8.63 -3.59,-4.86 -5.39,-10.29 -5.39,-16.32 0,-4.39 1.09,-8.77 3.27,-13.11 2.18,-4.34 5.05,-7.56 8.63,-9.63 3.55,-2.07 7.32,-3.11 11.31,-3.11zm-1.63 3.43c-1.84,0 -3.7,0.55 -5.57,1.64 -1.86,1.11 -3.38,3.02 -4.52,5.77 -1.16,2.75 -1.73,6.29 -1.73,10.61 0,6.97 1.39,12.97 4.16,18.02 2.77,5.05 6.43,7.57 10.97,7.57 3.38,0 6.16,-1.39 8.36,-4.18 2.2,-2.79 3.3,-7.57 3.3,-14.36 0,-8.5 -1.84,-15.18 -5.5,-20.06 -2.46,-3.34 -5.63,-5.02 -9.47,-5.02zm45.61 6.63c5.61,-6.7 10.95,-10.05 16.02,-10.05 2.61,0 4.86,0.66 6.73,1.96 1.89,1.31 3.38,3.47 4.5,6.47 0.77,2.11 1.14,5.32 1.14,9.64l0 20.5c0,3.02 0.25,5.05 0.73,6.14 0.37,0.86 1,1.54 1.84,2.02 0.86,0.48 2.43,0.73 4.72,0.73l0 1.93 -23.68 0 0 -1.93 1 0c2.21,0 3.77,-0.34 4.66,-1.02 0.88,-0.68 1.5,-1.68 1.84,-2.98 0.14,-0.52 0.22,-2.16 0.22,-4.89l0 -19.74c0,-4.38 -0.57,-7.57 -1.7,-9.56 -1.13,-1.98 -3.02,-2.96 -5.7,-2.96 -4.13,0 -8.23,2.27 -12.32,6.82l0 25.43c0,3.23 0.2,5.22 0.57,5.98 0.5,1 1.18,1.73 2.04,2.21 0.86,0.47 2.59,0.7 5.22,0.7l0 1.93 -23.79 0 0 -1.93 1.05 0c2.45,0 4.09,-0.61 4.95,-1.84 0.86,-1.23 1.29,-3.59 1.29,-7.05l0 -17.79c0,-5.75 -0.12,-9.25 -0.39,-10.5 -0.27,-1.27 -0.66,-2.13 -1.2,-2.57 -0.54,-0.45 -1.27,-0.68 -2.16,-0.68 -0.98,0 -2.14,0.27 -3.5,0.79l-0.78 -1.93 14.47 -5.89 2.25 0 0 10.05zm66.65 32.38c-4.91,3.8 -8,6.02 -9.27,6.61 -1.87,0.87 -3.87,1.32 -6,1.32 -3.32,0 -6.05,-1.14 -8.2,-3.41 -2.14,-2.27 -3.21,-5.25 -3.21,-8.95 0,-2.34 0.52,-4.38 1.57,-6.07 1.43,-2.37 3.91,-4.61 7.45,-6.71 3.56,-2.09 9.43,-4.64 17.66,-7.65l0 -1.87c0,-4.77 -0.75,-8.04 -2.27,-9.82 -1.52,-1.77 -3.71,-2.66 -6.61,-2.66 -2.18,0 -3.93,0.59 -5.22,1.78 -1.32,1.18 -1.98,2.54 -1.98,4.07l0.11 3.04c0,1.61 -0.41,2.86 -1.23,3.73 -0.82,0.88 -1.91,1.3 -3.23,1.3 -1.31,0 -2.38,-0.45 -3.2,-1.36 -0.82,-0.91 -1.23,-2.16 -1.23,-3.73 0,-3 1.54,-5.77 4.61,-8.29 3.07,-2.52 7.39,-3.77 12.95,-3.77 4.27,0 7.75,0.71 10.48,2.14 2.05,1.07 3.57,2.77 4.56,5.07 0.62,1.48 0.95,4.56 0.95,9.18l0 16.25c0,4.55 0.09,7.36 0.27,8.38 0.18,1.04 0.46,1.72 0.86,2.07 0.41,0.34 0.88,0.52 1.39,0.52 0.57,0 1.05,-0.12 1.48,-0.36 0.73,-0.46 2.14,-1.73 4.25,-3.82l0 2.93c-3.93,5.27 -7.68,7.89 -11.25,7.89 -1.72,0 -3.09,-0.59 -4.11,-1.77 -1.02,-1.2 -1.54,-3.21 -1.57,-6.05zm0 -3.41l0 -18.24c-5.3,2.09 -8.71,3.57 -10.27,4.45 -2.77,1.54 -4.75,3.13 -5.95,4.8 -1.2,1.68 -1.79,3.5 -1.79,5.48 0,2.52 0.75,4.59 2.27,6.25 1.5,1.66 3.25,2.48 5.22,2.48 2.66,0 6.16,-1.75 10.52,-5.23zm37.06 -64.1l0 63.65c0,2.98 0.21,4.96 0.64,5.93 0.45,0.96 1.11,1.72 2.02,2.21 0.89,0.5 2.59,0.75 5.05,0.75l0 1.93 -23.47 0 0 -1.93c2.2,0 3.7,-0.23 4.5,-0.68 0.8,-0.45 1.43,-1.2 1.89,-2.23 0.45,-1.04 0.68,-3.04 0.68,-5.98l0 -43.61c0,-5.36 -0.12,-8.65 -0.36,-9.86 -0.25,-1.23 -0.64,-2.07 -1.18,-2.52 -0.53,-0.45 -1.23,-0.68 -2.07,-0.68 -0.89,0 -2.04,0.29 -3.43,0.84l-0.89 -1.93 14.25 -5.89 2.36 0zm-515.22 125.97l0 28.08 15.65 0c4.05,0 6.75,-0.61 8.11,-1.82 1.82,-1.61 2.82,-4.43 3.04,-8.47l1.93 0 0 24.75 -1.93 0c-0.48,-3.46 -0.98,-5.7 -1.46,-6.68 -0.63,-1.21 -1.66,-2.18 -3.09,-2.88 -1.43,-0.7 -3.63,-1.05 -6.59,-1.05l-15.65 0 0 23.43c0,3.14 0.14,5.05 0.41,5.73 0.29,0.68 0.77,1.23 1.46,1.63 0.7,0.41 2.04,0.61 3.98,0.61l12.02 0c4,0 6.91,-0.29 8.73,-0.84 1.8,-0.55 3.56,-1.66 5.22,-3.3 2.16,-2.16 4.38,-5.43 6.65,-9.79l2.14 0 -6.13 17.79 -54.74 0 0 -1.93 2.52 0c1.68,0 3.27,-0.41 4.77,-1.21 1.13,-0.55 1.89,-1.39 2.29,-2.52 0.41,-1.13 0.61,-3.41 0.61,-6.88l0 -46.18c0,-4.5 -0.45,-7.27 -1.36,-8.3 -1.27,-1.39 -3.36,-2.09 -6.31,-2.09l-2.52 0 0 -1.93 54.76 0 0.75 15.65 -2.04 0c-0.73,-3.77 -1.54,-6.36 -2.43,-7.77 -0.89,-1.41 -2.21,-2.48 -3.95,-3.23 -1.39,-0.52 -3.86,-0.79 -7.38,-0.79l-19.47 0zm62.99 -7.29l0 63.65c0,2.98 0.21,4.96 0.64,5.93 0.45,0.96 1.11,1.72 2.02,2.21 0.89,0.5 2.59,0.75 5.05,0.75l0 1.93 -23.47 0 0 -1.93c2.2,0 3.7,-0.23 4.5,-0.68 0.8,-0.45 1.43,-1.2 1.89,-2.23 0.45,-1.04 0.68,-3.04 0.68,-5.98l0 -43.61c0,-5.36 -0.12,-8.65 -0.36,-9.86 -0.25,-1.23 -0.64,-2.07 -1.18,-2.52 -0.53,-0.45 -1.23,-0.68 -2.07,-0.68 -0.89,0 -2.04,0.29 -3.43,0.84l-0.89 -1.93 14.25 -5.89 2.36 0zm21.2 44.58c-0.04,7.09 1.7,12.64 5.18,16.68 3.48,4.02 7.59,6.04 12.31,6.04 3.13,0 5.86,-0.86 8.18,-2.57 2.32,-1.7 4.27,-4.68 5.84,-8.9l1.61 1.05c-0.73,4.82 -2.86,9.2 -6.38,13.11 -3.52,3.91 -7.93,5.87 -13.22,5.87 -5.75,0 -10.68,-2.23 -14.77,-6.71 -4.09,-4.48 -6.14,-10.5 -6.14,-18.06 0,-8.18 2.11,-14.57 6.3,-19.15 4.2,-4.59 9.47,-6.87 15.81,-6.87 5.36,0 9.77,1.77 13.22,5.3 3.45,3.54 5.18,8.27 5.18,14.2l-33.11 0zm0 -3l22.18 0c-0.18,-3.07 -0.53,-5.23 -1.09,-6.48 -0.88,-1.95 -2.18,-3.48 -3.91,-4.59 -1.71,-1.13 -3.52,-1.68 -5.41,-1.68 -2.89,0 -5.48,1.13 -7.77,3.38 -2.29,2.25 -3.61,5.38 -4,9.38zm80.35 14.66c-1.29,6.34 -3.82,11.18 -7.59,14.56 -3.77,3.38 -7.93,5.07 -12.5,5.07 -5.45,0 -10.2,-2.29 -14.23,-6.86 -4.05,-4.56 -6.07,-10.74 -6.07,-18.52 0,-7.52 2.23,-13.64 6.71,-18.36 4.48,-4.7 9.86,-7.05 16.13,-7.05 4.71,0 8.57,1.25 11.61,3.75 3.04,2.48 4.55,5.07 4.55,7.77 0,1.32 -0.43,2.39 -1.29,3.21 -0.86,0.82 -2.04,1.23 -3.57,1.23 -2.05,0 -3.59,-0.66 -4.61,-2 -0.63,-0.73 -1.04,-2.14 -1.23,-4.21 -0.2,-2.07 -0.89,-3.66 -2.11,-4.75 -1.23,-1.05 -2.91,-1.57 -5.07,-1.57 -3.5,0 -6.3,1.29 -8.43,3.88 -2.82,3.43 -4.23,7.95 -4.23,13.59 0,5.73 1.41,10.79 4.21,15.18 2.82,4.38 6.61,6.57 11.39,6.57 3.43,0 6.5,-1.14 9.22,-3.45 1.93,-1.59 3.79,-4.52 5.61,-8.77l1.5 0.73zm20.77 -45.52l0 15.75 11.2 0 0 3.54 -11.2 0.11 0 31.09c0,3.11 0.45,5.22 1.34,6.29 0.88,1.09 2.02,1.63 3.41,1.63 1.16,0 2.27,-0.36 3.36,-1.09 1.07,-0.72 1.91,-1.79 2.5,-3.2l2.04 0c-1.21,3.45 -2.95,6.04 -5.18,7.79 -2.25,1.73 -4.56,2.61 -6.93,2.61 -1.61,0 -3.18,-0.45 -4.71,-1.34 -1.54,-0.89 -2.66,-2.18 -3.39,-3.84 -0.73,-1.66 -1.11,-4.21 -1.11,-7.68l0 -32.36 -7.61 0 0 -1.66c1.93,-0.77 3.89,-2.05 5.91,-3.86 2.02,-1.82 3.8,-3.98 5.39,-6.5 0.8,-1.32 1.93,-3.75 3.38,-7.27l1.61 0zm29.88 14.36l0 10.82c3.98,-7.22 8.07,-10.82 12.27,-10.82 1.89,0 3.46,0.59 4.71,1.77 1.25,1.16 1.88,2.52 1.88,4.05 0,1.37 -0.45,2.54 -1.34,3.48 -0.91,0.95 -1.98,1.41 -3.21,1.41 -1.22,0 -2.57,-0.61 -4.07,-1.82 -1.52,-1.21 -2.64,-1.82 -3.36,-1.82 -0.62,0 -1.3,0.36 -2.04,1.05 -1.55,1.43 -3.18,3.8 -4.84,7.09l0 22.93c0,2.66 0.34,4.7 1,6.05 0.45,0.95 1.25,1.73 2.39,2.34 1.16,0.63 2.8,0.93 4.97,0.93l0 1.93 -24.54 0 0 -1.93c2.43,0 4.23,-0.37 5.41,-1.14 0.88,-0.57 1.48,-1.45 1.82,-2.68 0.18,-0.59 0.27,-2.29 0.27,-5.07l0 -18.54c0,-5.57 -0.11,-8.88 -0.34,-9.95 -0.23,-1.05 -0.64,-1.84 -1.25,-2.32 -0.61,-0.48 -1.37,-0.73 -2.27,-0.73 -1.09,0 -2.3,0.27 -3.66,0.79l-0.52 -1.93 14.52 -5.89 2.2 0zm45.17 0c7.27,0 13.09,2.75 17.49,8.27 3.73,4.7 5.61,10.11 5.61,16.22 0,4.29 -1.04,8.63 -3.09,13.02 -2.05,4.39 -4.89,7.71 -8.5,9.95 -3.63,2.23 -7.64,3.34 -12.07,3.34 -7.23,0 -12.98,-2.87 -17.23,-8.63 -3.59,-4.86 -5.39,-10.29 -5.39,-16.32 0,-4.39 1.09,-8.77 3.27,-13.11 2.18,-4.34 5.05,-7.56 8.63,-9.63 3.55,-2.07 7.32,-3.11 11.31,-3.11zm-1.63 3.43c-1.84,0 -3.7,0.55 -5.57,1.64 -1.86,1.11 -3.38,3.02 -4.52,5.77 -1.16,2.75 -1.73,6.29 -1.73,10.61 0,6.97 1.39,12.97 4.16,18.02 2.77,5.05 6.43,7.57 10.97,7.57 3.38,0 6.16,-1.39 8.36,-4.18 2.2,-2.79 3.3,-7.57 3.3,-14.36 0,-8.5 -1.84,-15.18 -5.5,-20.06 -2.46,-3.34 -5.63,-5.02 -9.47,-5.02zm45.61 -17.79l0 15.75 11.2 0 0 3.54 -11.2 0.11 0 31.09c0,3.11 0.45,5.22 1.34,6.29 0.88,1.09 2.02,1.63 3.41,1.63 1.16,0 2.27,-0.36 3.36,-1.09 1.07,-0.72 1.91,-1.79 2.5,-3.2l2.04 0c-1.21,3.45 -2.95,6.04 -5.18,7.79 -2.25,1.73 -4.56,2.61 -6.93,2.61 -1.61,0 -3.18,-0.45 -4.71,-1.34 -1.54,-0.89 -2.66,-2.18 -3.39,-3.84 -0.73,-1.66 -1.11,-4.21 -1.11,-7.68l0 -32.36 -7.61 0 0 -1.66c1.93,-0.77 3.89,-2.05 5.91,-3.86 2.02,-1.82 3.8,-3.98 5.39,-6.5 0.8,-1.32 1.93,-3.75 3.38,-7.27l1.61 0zm23.77 33.86c-0.04,7.09 1.7,12.64 5.18,16.68 3.48,4.02 7.59,6.04 12.31,6.04 3.13,0 5.86,-0.86 8.18,-2.57 2.32,-1.7 4.27,-4.68 5.84,-8.9l1.61 1.05c-0.73,4.82 -2.86,9.2 -6.38,13.11 -3.52,3.91 -7.93,5.87 -13.22,5.87 -5.75,0 -10.68,-2.23 -14.77,-6.71 -4.09,-4.48 -6.14,-10.5 -6.14,-18.06 0,-8.18 2.11,-14.57 6.3,-19.15 4.2,-4.59 9.47,-6.87 15.81,-6.87 5.36,0 9.77,1.77 13.22,5.3 3.45,3.54 5.18,8.27 5.18,14.2l-33.11 0zm0 -3l22.18 0c-0.18,-3.07 -0.53,-5.23 -1.09,-6.48 -0.88,-1.95 -2.18,-3.48 -3.91,-4.59 -1.71,-1.13 -3.52,-1.68 -5.41,-1.68 -2.89,0 -5.48,1.13 -7.77,3.38 -2.29,2.25 -3.61,5.38 -4,9.38zm80.35 14.66c-1.29,6.34 -3.82,11.18 -7.59,14.56 -3.77,3.38 -7.93,5.07 -12.5,5.07 -5.45,0 -10.2,-2.29 -14.23,-6.86 -4.05,-4.56 -6.07,-10.74 -6.07,-18.52 0,-7.52 2.23,-13.64 6.71,-18.36 4.48,-4.7 9.86,-7.05 16.13,-7.05 4.71,0 8.57,1.25 11.61,3.75 3.04,2.48 4.55,5.07 4.55,7.77 0,1.32 -0.43,2.39 -1.29,3.21 -0.86,0.82 -2.04,1.23 -3.57,1.23 -2.05,0 -3.59,-0.66 -4.61,-2 -0.63,-0.73 -1.04,-2.14 -1.23,-4.21 -0.2,-2.07 -0.89,-3.66 -2.11,-4.75 -1.23,-1.05 -2.91,-1.57 -5.07,-1.57 -3.5,0 -6.3,1.29 -8.43,3.88 -2.82,3.43 -4.23,7.95 -4.23,13.59 0,5.73 1.41,10.79 4.21,15.18 2.82,4.38 6.61,6.57 11.39,6.57 3.43,0 6.5,-1.14 9.22,-3.45 1.93,-1.59 3.79,-4.52 5.61,-8.77l1.5 0.73zm20.88 -56.24l0 35.06c3.88,-4.25 6.95,-6.98 9.22,-8.18 2.27,-1.2 4.55,-1.8 6.82,-1.8 2.72,0 5.05,0.75 7.02,2.25 1.95,1.5 3.39,3.86 4.34,7.07 0.66,2.25 1,6.34 1,12.27l0 16.99c0,3.02 0.25,5.07 0.73,6.2 0.34,0.82 0.93,1.48 1.77,1.96 0.82,0.48 2.36,0.73 4.57,0.73l0 1.93 -23.47 0 0 -1.93 1.09 0c2.23,0 3.77,-0.34 4.64,-1.02 0.88,-0.68 1.48,-1.68 1.82,-2.98 0.11,-0.55 0.16,-2.2 0.16,-4.89l0 -16.99c0,-5.25 -0.27,-8.7 -0.82,-10.34 -0.54,-1.64 -1.39,-2.87 -2.59,-3.7 -1.18,-0.82 -2.62,-1.23 -4.3,-1.23 -1.71,0 -3.48,0.45 -5.34,1.36 -1.86,0.91 -4.07,2.75 -6.66,5.5l0 25.4c0,3.25 0.18,5.29 0.55,6.09 0.36,0.79 1.04,1.47 2.04,2 0.98,0.54 2.7,0.8 5.13,0.8l0 1.93 -23.68 0 0 -1.93c2.13,0 3.79,-0.32 5,-0.98 0.7,-0.36 1.25,-1.02 1.66,-1.98 0.41,-0.96 0.62,-2.95 0.62,-5.93l0 -43.4c0,-5.45 -0.12,-8.79 -0.39,-10.04 -0.27,-1.25 -0.66,-2.11 -1.2,-2.55 -0.54,-0.45 -1.27,-0.68 -2.16,-0.68 -0.73,0 -1.93,0.29 -3.56,0.84l-0.73 -1.93 14.3 -5.89 2.41 0zm53.47 35.13c5.61,-6.7 10.95,-10.05 16.02,-10.05 2.61,0 4.86,0.66 6.73,1.96 1.89,1.31 3.38,3.47 4.5,6.47 0.77,2.11 1.14,5.32 1.14,9.64l0 20.5c0,3.02 0.25,5.05 0.73,6.14 0.37,0.86 1,1.54 1.84,2.02 0.86,0.48 2.43,0.73 4.72,0.73l0 1.93 -23.68 0 0 -1.93 1 0c2.21,0 3.77,-0.34 4.66,-1.02 0.88,-0.68 1.5,-1.68 1.84,-2.98 0.14,-0.52 0.22,-2.16 0.22,-4.89l0 -19.74c0,-4.38 -0.57,-7.57 -1.7,-9.56 -1.13,-1.98 -3.02,-2.96 -5.7,-2.96 -4.13,0 -8.23,2.27 -12.32,6.82l0 25.43c0,3.23 0.2,5.22 0.57,5.98 0.5,1 1.18,1.73 2.04,2.21 0.86,0.47 2.59,0.7 5.22,0.7l0 1.93 -23.79 0 0 -1.93 1.05 0c2.45,0 4.09,-0.61 4.95,-1.84 0.86,-1.23 1.29,-3.59 1.29,-7.05l0 -17.79c0,-5.75 -0.12,-9.25 -0.39,-10.5 -0.27,-1.27 -0.66,-2.13 -1.2,-2.57 -0.54,-0.45 -1.27,-0.68 -2.16,-0.68 -0.98,0 -2.14,0.27 -3.5,0.79l-0.78 -1.93 14.47 -5.89 2.25 0 0 10.05zm51.85 -35.13c1.45,0 2.7,0.52 3.73,1.54 1.02,1.04 1.54,2.29 1.54,3.73 0,1.47 -0.52,2.73 -1.54,3.77 -1.04,1.05 -2.29,1.57 -3.73,1.57 -1.46,0 -2.73,-0.52 -3.77,-1.57 -1.05,-1.04 -1.57,-2.3 -1.57,-3.77 0,-1.45 0.52,-2.7 1.54,-3.73 1.04,-1.02 2.31,-1.54 3.8,-1.54zm4.3 25.08l0 38.58c0,2.98 0.21,4.96 0.66,5.95 0.43,1 1.07,1.73 1.93,2.21 0.86,0.48 2.43,0.73 4.7,0.73l0 1.93 -23.25 0 0 -1.93c2.32,0 3.89,-0.23 4.68,-0.68 0.8,-0.45 1.43,-1.2 1.91,-2.23 0.47,-1.04 0.7,-3.04 0.7,-5.98l0 -18.54c0,-5.16 -0.16,-8.5 -0.47,-10.04 -0.25,-1.11 -0.62,-1.88 -1.16,-2.3 -0.52,-0.45 -1.23,-0.66 -2.13,-0.66 -0.98,0 -2.16,0.27 -3.55,0.79l-0.73 -1.93 14.41 -5.89 2.3 0z"/>
    <path class="fil2" d="M1974.66 803.24c-1.29,6.34 -3.82,11.18 -7.59,14.56 -3.77,3.38 -7.93,5.07 -12.5,5.07 -5.45,0 -10.2,-2.29 -14.23,-6.86 -4.05,-4.56 -6.07,-10.74 -6.07,-18.52 0,-7.52 2.23,-13.64 6.71,-18.36 4.48,-4.7 9.86,-7.05 16.13,-7.05 4.71,0 8.57,1.25 11.61,3.75 3.04,2.48 4.55,5.07 4.55,7.77 0,1.32 -0.43,2.39 -1.29,3.21 -0.86,0.82 -2.04,1.23 -3.57,1.23 -2.05,0 -3.59,-0.66 -4.61,-2 -0.63,-0.73 -1.04,-2.14 -1.23,-4.21 -0.2,-2.07 -0.89,-3.66 -2.11,-4.75 -1.23,-1.05 -2.91,-1.57 -5.07,-1.57 -3.5,0 -6.3,1.29 -8.43,3.88 -2.82,3.43 -4.23,7.95 -4.23,13.59 0,5.73 1.41,10.79 4.21,15.18 2.82,4.38 6.61,6.57 11.39,6.57 3.43,0 6.5,-1.14 9.22,-3.45 1.93,-1.59 3.79,-4.52 5.61,-8.77l1.5 0.73zm33.85 11.27c-4.91,3.8 -8,6.02 -9.27,6.61 -1.87,0.87 -3.87,1.32 -6,1.32 -3.32,0 -6.05,-1.14 -8.2,-3.41 -2.14,-2.27 -3.21,-5.25 -3.21,-8.95 0,-2.34 0.52,-4.38 1.57,-6.07 1.43,-2.37 3.91,-4.61 7.45,-6.71 3.56,-2.09 9.43,-4.64 17.66,-7.65l0 -1.87c0,-4.77 -0.75,-8.04 -2.27,-9.82 -1.52,-1.77 -3.71,-2.66 -6.61,-2.66 -2.18,0 -3.93,0.59 -5.22,1.78 -1.32,1.18 -1.98,2.54 -1.98,4.07l0.11 3.04c0,1.61 -0.41,2.86 -1.23,3.73 -0.82,0.88 -1.91,1.3 -3.23,1.3 -1.31,0 -2.38,-0.45 -3.2,-1.36 -0.82,-0.91 -1.23,-2.16 -1.23,-3.73 0,-3 1.54,-5.77 4.61,-8.29 3.07,-2.52 7.39,-3.77 12.95,-3.77 4.27,0 7.75,0.71 10.48,2.14 2.05,1.07 3.57,2.77 4.56,5.07 0.62,1.48 0.95,4.56 0.95,9.18l0 16.25c0,4.55 0.09,7.36 0.27,8.38 0.18,1.04 0.46,1.72 0.86,2.07 0.41,0.34 0.88,0.52 1.39,0.52 0.57,0 1.05,-0.12 1.48,-0.36 0.73,-0.46 2.14,-1.73 4.25,-3.82l0 2.93c-3.93,5.27 -7.68,7.89 -11.25,7.89 -1.72,0 -3.09,-0.59 -4.11,-1.77 -1.02,-1.2 -1.54,-3.21 -1.57,-6.05zm0 -3.41l0 -18.24c-5.3,2.09 -8.71,3.57 -10.27,4.45 -2.77,1.54 -4.75,3.13 -5.95,4.8 -1.2,1.68 -1.79,3.5 -1.79,5.48 0,2.52 0.75,4.59 2.27,6.25 1.5,1.66 3.25,2.48 5.22,2.48 2.66,0 6.16,-1.75 10.52,-5.23zm37.06 -64.1l0 63.65c0,2.98 0.21,4.96 0.64,5.93 0.45,0.96 1.11,1.72 2.02,2.21 0.89,0.5 2.59,0.75 5.05,0.75l0 1.93 -23.47 0 0 -1.93c2.2,0 3.7,-0.23 4.5,-0.68 0.8,-0.45 1.43,-1.2 1.89,-2.23 0.45,-1.04 0.68,-3.04 0.68,-5.98l0 -43.61c0,-5.36 -0.12,-8.65 -0.36,-9.86 -0.25,-1.23 -0.64,-2.07 -1.18,-2.52 -0.53,-0.45 -1.23,-0.68 -2.07,-0.68 -0.89,0 -2.04,0.29 -3.43,0.84l-0.89 -1.93 14.25 -5.89 2.36 0zm-621.76 120.5l1.61 24.11 -1.61 0c-2.16,-7.22 -5.23,-12.43 -9.23,-15.59 -4,-3.18 -8.79,-4.77 -14.4,-4.77 -4.68,0 -8.93,1.2 -12.72,3.59 -3.79,2.39 -6.77,6.2 -8.95,11.45 -2.16,5.23 -3.25,11.75 -3.25,19.54 0,6.43 1.02,12 3.07,16.72 2.05,4.72 5.14,8.32 9.25,10.84 4.13,2.52 8.82,3.77 14.09,3.77 4.59,0 8.64,-0.98 12.14,-2.95 3.52,-1.96 7.38,-5.87 11.57,-11.73l1.62 1.07c-3.55,6.3 -7.7,10.91 -12.43,13.84 -4.73,2.91 -10.36,4.38 -16.86,4.38 -11.73,0 -20.82,-4.36 -27.25,-13.09 -4.81,-6.5 -7.22,-14.15 -7.22,-22.93 0,-7.09 1.59,-13.61 4.75,-19.54 3.16,-5.95 7.52,-10.54 13.06,-13.81 5.55,-3.27 11.61,-4.89 18.18,-4.89 5.11,0 10.14,1.25 15.13,3.77 1.45,0.77 2.5,1.16 3.13,1.16 0.93,0 1.75,-0.34 2.45,-1 0.91,-0.95 1.55,-2.25 1.93,-3.93l1.93 0zm33.92 23.25c7.27,0 13.09,2.75 17.49,8.27 3.73,4.7 5.61,10.11 5.61,16.22 0,4.29 -1.04,8.63 -3.09,13.02 -2.05,4.39 -4.89,7.71 -8.5,9.95 -3.63,2.23 -7.64,3.34 -12.07,3.34 -7.23,0 -12.98,-2.87 -17.23,-8.63 -3.59,-4.86 -5.39,-10.29 -5.39,-16.32 0,-4.39 1.09,-8.77 3.27,-13.11 2.18,-4.34 5.05,-7.56 8.63,-9.63 3.55,-2.07 7.32,-3.11 11.31,-3.11zm-1.63 3.43c-1.84,0 -3.7,0.55 -5.57,1.64 -1.86,1.11 -3.38,3.02 -4.52,5.77 -1.16,2.75 -1.73,6.29 -1.73,10.61 0,6.97 1.39,12.97 4.16,18.02 2.77,5.05 6.43,7.57 10.97,7.57 3.38,0 6.16,-1.39 8.36,-4.18 2.2,-2.79 3.3,-7.57 3.3,-14.36 0,-8.5 -1.84,-15.18 -5.5,-20.06 -2.46,-3.34 -5.63,-5.02 -9.47,-5.02zm45.94 6.82c3.46,-3.5 5.52,-5.52 6.14,-6.05 1.55,-1.32 3.23,-2.36 5.04,-3.09 1.8,-0.73 3.59,-1.11 5.36,-1.11 3,0 5.55,0.87 7.71,2.62 2.14,1.75 3.59,4.29 4.3,7.63 3.61,-4.21 6.65,-6.96 9.13,-8.29 2.48,-1.3 5.04,-1.96 7.66,-1.96 2.54,0 4.8,0.66 6.79,1.96 1.96,1.31 3.54,3.45 4.68,6.43 0.77,2.02 1.16,5.2 1.16,9.54l0 20.65c0,2.98 0.21,5.03 0.66,6.14 0.34,0.75 0.98,1.41 1.89,1.95 0.93,0.54 2.43,0.8 4.52,0.8l0 1.93 -23.47 0 0 -1.93 1 0c2.04,0 3.64,-0.39 4.79,-1.2 0.8,-0.55 1.37,-1.45 1.71,-2.66 0.14,-0.59 0.21,-2.27 0.21,-5.03l0 -20.63c0,-3.91 -0.46,-6.66 -1.41,-8.27 -1.37,-2.23 -3.55,-3.36 -6.57,-3.36 -1.84,0 -3.72,0.46 -5.59,1.39 -1.86,0.91 -4.13,2.64 -6.79,5.14l-0.11 0.59 0.21 2.25 0 22.88c0,3.25 0.18,5.29 0.53,6.09 0.38,0.79 1.05,1.47 2.05,2 1,0.54 2.72,0.8 5.13,0.8l0 1.93 -24.11 0 0 -1.93c2.63,0 4.43,-0.3 5.41,-0.93 0.98,-0.62 1.66,-1.57 2.04,-2.82 0.18,-0.59 0.27,-2.31 0.27,-5.14l0 -20.63c0,-3.91 -0.57,-6.73 -1.72,-8.47 -1.54,-2.25 -3.66,-3.38 -6.41,-3.38 -1.88,0 -3.73,0.52 -5.57,1.54 -2.87,1.54 -5.11,3.29 -6.66,5.22l0 25.72c0,3.13 0.21,5.14 0.64,6.09 0.43,0.93 1.07,1.63 1.93,2.11 0.84,0.47 2.56,0.7 5.14,0.7l0 1.93 -23.68 0 0 -1.93c2.2,0 3.73,-0.23 4.61,-0.7 0.88,-0.48 1.54,-1.21 2,-2.25 0.45,-1.02 0.68,-3 0.68,-5.95l0 -18.33c0,-5.25 -0.16,-8.64 -0.47,-10.18 -0.25,-1.16 -0.62,-1.95 -1.16,-2.37 -0.52,-0.45 -1.23,-0.66 -2.13,-0.66 -0.98,0 -2.14,0.27 -3.5,0.79l-0.79 -1.93 14.47 -5.89 2.25 0 0 10.25zm83.35 0c3.46,-3.5 5.52,-5.52 6.14,-6.05 1.55,-1.32 3.23,-2.36 5.04,-3.09 1.8,-0.73 3.59,-1.11 5.36,-1.11 3,0 5.55,0.87 7.71,2.62 2.14,1.75 3.59,4.29 4.3,7.63 3.61,-4.21 6.65,-6.96 9.13,-8.29 2.48,-1.3 5.04,-1.96 7.66,-1.96 2.54,0 4.8,0.66 6.79,1.96 1.96,1.31 3.54,3.45 4.68,6.43 0.77,2.02 1.16,5.2 1.16,9.54l0 20.65c0,2.98 0.21,5.03 0.66,6.14 0.34,0.75 0.98,1.41 1.89,1.95 0.93,0.54 2.43,0.8 4.52,0.8l0 1.93 -23.47 0 0 -1.93 1 0c2.04,0 3.64,-0.39 4.79,-1.2 0.8,-0.55 1.37,-1.45 1.71,-2.66 0.14,-0.59 0.21,-2.27 0.21,-5.03l0 -20.63c0,-3.91 -0.46,-6.66 -1.41,-8.27 -1.37,-2.23 -3.55,-3.36 -6.57,-3.36 -1.84,0 -3.72,0.46 -5.59,1.39 -1.86,0.91 -4.13,2.64 -6.79,5.14l-0.11 0.59 0.21 2.25 0 22.88c0,3.25 0.18,5.29 0.53,6.09 0.38,0.79 1.05,1.47 2.05,2 1,0.54 2.72,0.8 5.13,0.8l0 1.93 -24.11 0 0 -1.93c2.63,0 4.43,-0.3 5.41,-0.93 0.98,-0.62 1.66,-1.57 2.04,-2.82 0.18,-0.59 0.27,-2.31 0.27,-5.14l0 -20.63c0,-3.91 -0.57,-6.73 -1.72,-8.47 -1.54,-2.25 -3.66,-3.38 -6.41,-3.38 -1.88,0 -3.73,0.52 -5.57,1.54 -2.87,1.54 -5.11,3.29 -6.66,5.22l0 25.72c0,3.13 0.21,5.14 0.64,6.09 0.43,0.93 1.07,1.63 1.93,2.11 0.84,0.47 2.56,0.7 5.14,0.7l0 1.93 -23.68 0 0 -1.93c2.2,0 3.73,-0.23 4.61,-0.7 0.88,-0.48 1.54,-1.21 2,-2.25 0.45,-1.02 0.68,-3 0.68,-5.95l0 -18.33c0,-5.25 -0.16,-8.64 -0.47,-10.18 -0.25,-1.16 -0.62,-1.95 -1.16,-2.37 -0.52,-0.45 -1.23,-0.66 -2.13,-0.66 -0.98,0 -2.14,0.27 -3.5,0.79l-0.79 -1.93 14.47 -5.89 2.25 0 0 10.25zm81.3 -35.33c1.45,0 2.7,0.52 3.73,1.54 1.02,1.04 1.54,2.29 1.54,3.73 0,1.47 -0.52,2.73 -1.54,3.77 -1.04,1.05 -2.29,1.57 -3.73,1.57 -1.46,0 -2.73,-0.52 -3.77,-1.57 -1.05,-1.04 -1.57,-2.3 -1.57,-3.77 0,-1.45 0.52,-2.7 1.54,-3.73 1.04,-1.02 2.31,-1.54 3.8,-1.54zm4.3 25.08l0 38.58c0,2.98 0.21,4.96 0.66,5.95 0.43,1 1.07,1.73 1.93,2.21 0.86,0.48 2.43,0.73 4.7,0.73l0 1.93 -23.25 0 0 -1.93c2.32,0 3.89,-0.23 4.68,-0.68 0.8,-0.45 1.43,-1.2 1.91,-2.23 0.47,-1.04 0.7,-3.04 0.7,-5.98l0 -18.54c0,-5.16 -0.16,-8.5 -0.47,-10.04 -0.25,-1.11 -0.62,-1.88 -1.16,-2.3 -0.52,-0.45 -1.23,-0.66 -2.13,-0.66 -0.98,0 -2.16,0.27 -3.55,0.79l-0.73 -1.93 14.41 -5.89 2.3 0zm44.13 0l0 16.29 -1.72 0c-1.32,-5.11 -3.02,-8.57 -5.09,-10.41 -2.05,-1.84 -4.7,-2.77 -7.89,-2.77 -2.43,0 -4.39,0.64 -5.89,1.93 -1.48,1.29 -2.23,2.72 -2.23,4.29 0,1.95 0.55,3.63 1.64,5.02 1.07,1.43 3.27,2.95 6.57,4.56l7.64 3.7c7.07,3.47 10.61,8.02 10.61,13.66 0,4.36 -1.64,7.88 -4.95,10.54 -3.29,2.66 -6.98,4 -11.06,4 -2.93,0 -6.29,-0.52 -10.04,-1.54 -1.16,-0.34 -2.11,-0.5 -2.84,-0.5 -0.79,0 -1.43,0.43 -1.88,1.29l-1.72 0 0 -17.15 1.72 0c0.98,4.89 2.84,8.59 5.61,11.07 2.75,2.48 5.84,3.71 9.27,3.71 2.39,0 4.36,-0.7 5.88,-2.11 1.52,-1.41 2.29,-3.13 2.29,-5.11 0,-2.39 -0.86,-4.41 -2.55,-6.05 -1.7,-1.64 -5.07,-3.7 -10.14,-6.2 -5.05,-2.5 -8.36,-4.75 -9.93,-6.79 -1.55,-1.98 -2.34,-4.5 -2.34,-7.54 0,-3.95 1.36,-7.25 4.05,-9.91 2.7,-2.66 6.18,-3.98 10.47,-3.98 1.89,0 4.16,0.41 6.86,1.23 1.77,0.53 2.95,0.8 3.54,0.8 0.57,0 1,-0.12 1.32,-0.37 0.31,-0.25 0.68,-0.8 1.09,-1.66l1.72 0zm41.7 0l0 16.29 -1.72 0c-1.32,-5.11 -3.02,-8.57 -5.09,-10.41 -2.05,-1.84 -4.7,-2.77 -7.89,-2.77 -2.43,0 -4.39,0.64 -5.89,1.93 -1.48,1.29 -2.23,2.72 -2.23,4.29 0,1.95 0.55,3.63 1.64,5.02 1.07,1.43 3.27,2.95 6.57,4.56l7.64 3.7c7.07,3.47 10.61,8.02 10.61,13.66 0,4.36 -1.64,7.88 -4.95,10.54 -3.29,2.66 -6.98,4 -11.06,4 -2.93,0 -6.29,-0.52 -10.04,-1.54 -1.16,-0.34 -2.11,-0.5 -2.84,-0.5 -0.79,0 -1.43,0.43 -1.88,1.29l-1.72 0 0 -17.15 1.72 0c0.98,4.89 2.84,8.59 5.61,11.07 2.75,2.48 5.84,3.71 9.27,3.71 2.39,0 4.36,-0.7 5.88,-2.11 1.52,-1.41 2.29,-3.13 2.29,-5.11 0,-2.39 -0.86,-4.41 -2.55,-6.05 -1.7,-1.64 -5.07,-3.7 -10.14,-6.2 -5.05,-2.5 -8.36,-4.75 -9.93,-6.79 -1.55,-1.98 -2.34,-4.5 -2.34,-7.54 0,-3.95 1.36,-7.25 4.05,-9.91 2.7,-2.66 6.18,-3.98 10.47,-3.98 1.89,0 4.16,0.41 6.86,1.23 1.77,0.53 2.95,0.8 3.54,0.8 0.57,0 1,-0.12 1.32,-0.37 0.31,-0.25 0.68,-0.8 1.09,-1.66l1.72 0zm23.04 -25.08c1.45,0 2.7,0.52 3.73,1.54 1.02,1.04 1.54,2.29 1.54,3.73 0,1.47 -0.52,2.73 -1.54,3.77 -1.04,1.05 -2.29,1.57 -3.73,1.57 -1.46,0 -2.73,-0.52 -3.77,-1.57 -1.05,-1.04 -1.57,-2.3 -1.57,-3.77 0,-1.45 0.52,-2.7 1.54,-3.73 1.04,-1.02 2.31,-1.54 3.8,-1.54zm4.3 25.08l0 38.58c0,2.98 0.21,4.96 0.66,5.95 0.43,1 1.07,1.73 1.93,2.21 0.86,0.48 2.43,0.73 4.7,0.73l0 1.93 -23.25 0 0 -1.93c2.32,0 3.89,-0.23 4.68,-0.68 0.8,-0.45 1.43,-1.2 1.91,-2.23 0.47,-1.04 0.7,-3.04 0.7,-5.98l0 -18.54c0,-5.16 -0.16,-8.5 -0.47,-10.04 -0.25,-1.11 -0.62,-1.88 -1.16,-2.3 -0.52,-0.45 -1.23,-0.66 -2.13,-0.66 -0.98,0 -2.16,0.27 -3.55,0.79l-0.73 -1.93 14.41 -5.89 2.3 0zm36.79 0c7.27,0 13.09,2.75 17.49,8.27 3.73,4.7 5.61,10.11 5.61,16.22 0,4.29 -1.04,8.63 -3.09,13.02 -2.05,4.39 -4.89,7.71 -8.5,9.95 -3.63,2.23 -7.64,3.34 -12.07,3.34 -7.23,0 -12.98,-2.87 -17.23,-8.63 -3.59,-4.86 -5.39,-10.29 -5.39,-16.32 0,-4.39 1.09,-8.77 3.27,-13.11 2.18,-4.34 5.05,-7.56 8.63,-9.63 3.55,-2.07 7.32,-3.11 11.31,-3.11zm-1.63 3.43c-1.84,0 -3.7,0.55 -5.57,1.64 -1.86,1.11 -3.38,3.02 -4.52,5.77 -1.16,2.75 -1.73,6.29 -1.73,10.61 0,6.97 1.39,12.97 4.16,18.02 2.77,5.05 6.43,7.57 10.97,7.57 3.38,0 6.16,-1.39 8.36,-4.18 2.2,-2.79 3.3,-7.57 3.3,-14.36 0,-8.5 -1.84,-15.18 -5.5,-20.06 -2.46,-3.34 -5.63,-5.02 -9.47,-5.02zm45.61 6.63c5.61,-6.7 10.95,-10.05 16.02,-10.05 2.61,0 4.86,0.66 6.73,1.96 1.89,1.31 3.38,3.47 4.5,6.47 0.77,2.11 1.14,5.32 1.14,9.64l0 20.5c0,3.02 0.25,5.05 0.73,6.14 0.37,0.86 1,1.54 1.84,2.02 0.86,0.48 2.43,0.73 4.72,0.73l0 1.93 -23.68 0 0 -1.93 1 0c2.21,0 3.77,-0.34 4.66,-1.02 0.88,-0.68 1.5,-1.68 1.84,-2.98 0.14,-0.52 0.22,-2.16 0.22,-4.89l0 -19.74c0,-4.38 -0.57,-7.57 -1.7,-9.56 -1.13,-1.98 -3.02,-2.96 -5.7,-2.96 -4.13,0 -8.23,2.27 -12.32,6.82l0 25.43c0,3.23 0.2,5.22 0.57,5.98 0.5,1 1.18,1.73 2.04,2.21 0.86,0.47 2.59,0.7 5.22,0.7l0 1.93 -23.79 0 0 -1.93 1.05 0c2.45,0 4.09,-0.61 4.95,-1.84 0.86,-1.23 1.29,-3.59 1.29,-7.05l0 -17.79c0,-5.75 -0.12,-9.25 -0.39,-10.5 -0.27,-1.27 -0.66,-2.13 -1.2,-2.57 -0.54,-0.45 -1.27,-0.68 -2.16,-0.68 -0.98,0 -2.14,0.27 -3.5,0.79l-0.78 -1.93 14.47 -5.89 2.25 0 0 10.05z"/>
   </g>
  </g>
 </g>
</svg>
