<svg width="50" height="50" viewBox="0 0 50 50" fill="none" xmlns="http://www.w3.org/2000/svg">
<g clip-path="url(#clip0_13_2)">
<path fill-rule="evenodd" clip-rule="evenodd" d="M11.1952 34.8615L23.4439 41.9146C23.8768 42.1976 24.2823 42.2179 24.6605 41.9765L37.1079 34.7937C37.3873 34.5392 37.5431 34.2669 37.5776 33.9779V27.2196L43.5522 23.7781C43.8816 23.5403 44.0255 23.2727 43.9826 22.9754L43.9672 15.908C43.916 15.5667 43.7567 15.3205 43.4867 15.1718L37.2173 11.5602C37.0187 11.4377 36.8427 11.4294 36.6893 11.5353L30.3936 15.1445C30.0904 15.2801 29.9215 15.5167 29.8858 15.8556L29.8454 22.753L24.7687 25.6309V12.7471C24.8519 12.2214 24.7152 11.8349 24.3561 11.5852L18.1984 8.04376C17.8666 7.81187 17.5324 7.79522 17.1935 7.99501L11.1488 11.5257C10.88 11.6708 10.7183 11.8825 10.6624 12.1608L10.6541 33.6794C10.6327 34.2383 10.8146 34.6319 11.1975 34.8603L11.1952 34.8615ZM22.772 12.2345L17.6965 9.29242L12.6377 12.2345L17.6965 15.1124L22.772 12.2345ZM36.2481 27.9724L24.7663 34.5285V40.3639L36.2481 33.7579V27.9724ZM19.0605 30.5137L24.1016 33.3738L35.5488 26.8177L30.5066 23.9089L19.0605 30.5137ZM42.6531 22.753L37.5764 25.6309V19.8953L42.6531 16.9854V22.753ZM36.2469 19.8953V25.6309L31.1702 22.753V16.9854L36.2469 19.8953ZM31.8361 15.8295L36.9116 12.904L41.9717 15.8307L36.9128 18.7394L31.8361 15.8295ZM23.4368 26.4324V13.3226L18.3601 16.2647V29.3578L23.4368 26.4312V26.4324ZM11.9551 33.7579V13.3238L17.0318 16.2659V30.2343C16.9866 30.6612 17.1661 30.9775 17.5693 31.1821L23.438 34.5297V40.3651L11.9562 33.7591L11.9551 33.7579Z" fill="#FF3D3D"/>
<path fill-rule="evenodd" clip-rule="evenodd" d="M3.54739 6.79629H5.63681V4.70686H7.72624V6.79629H9.81567V8.88572H7.72624V10.9751H5.63681V8.88572H3.54739V6.79629ZM7.72743 8.88572V6.79629H5.638V8.88572H7.72743Z" fill="#FFCB57"/>
<path fill-rule="evenodd" clip-rule="evenodd" d="M27.7274 4.82578H29.8169V2.73635H31.9063V4.82578H33.9957V6.91521H31.9063V9.00464H29.8169V6.91521H27.7274V4.82578ZM31.9075 6.91521V4.82578H29.8181V6.91521H31.9075Z" fill="#FFCB57"/>
<path fill-rule="evenodd" clip-rule="evenodd" d="M42.885 30.5589H44.9744V28.4695H47.0639V30.5589H49.1533V32.6484H47.0639V34.7378H44.9744V32.6484H42.885V30.5589ZM47.0651 32.6484V30.5589H44.9756V32.6484H47.0651Z" fill="#FFCB57"/>
<path fill-rule="evenodd" clip-rule="evenodd" d="M32.9801 40.7397H35.0696V38.6503H37.159V40.7397H39.2484V42.8291H37.159V44.9185H35.0696V42.8291H32.9801V40.7397ZM37.1602 42.8291V40.7397H35.0708V42.8291H37.1602Z" fill="#FFCB57"/>
<path fill-rule="evenodd" clip-rule="evenodd" d="M11.0215 45.2099H13.111V43.1205H15.2004V45.2099H17.2898V47.2993H15.2004V49.3888H13.111V47.2993H11.0215V45.2099ZM15.2016 47.2993V45.2099H13.1121V47.2993H15.2016Z" fill="#FFCB57"/>
<path fill-rule="evenodd" clip-rule="evenodd" d="M0.620766 26.493H2.71019V24.4036H4.79962V26.493H6.88905V28.5825H4.79962V30.6719H2.71019V28.5825H0.620766V26.493ZM4.80081 28.5825V26.493H2.71138V28.5825H4.80081Z" fill="#FFCB57"/>
</g>
<defs>
<clipPath id="clip0_13_2">
<rect width="50" height="50" fill="white"/>
</clipPath>
</defs>
</svg>
