<?xml version="1.0" encoding="UTF-8"?>
<!DOCTYPE svg PUBLIC "-//W3C//DTD SVG 1.1//EN" "http://www.w3.org/Graphics/SVG/1.1/DTD/svg11.dtd">
<!-- Creator: CorelDRAW -->
<svg xmlns="http://www.w3.org/2000/svg" xml:space="preserve" width="179.853mm" height="166.138mm" version="1.1" style="shape-rendering:geometricPrecision; text-rendering:geometricPrecision; image-rendering:optimizeQuality; fill-rule:evenodd; clip-rule:evenodd"
viewBox="0 0 5408.78 4996.33"
 xmlns:xlink="http://www.w3.org/1999/xlink"
 xmlns:xodm="http://www.corel.com/coreldraw/odm/2003">
 <defs>
  <style type="text/css">
   <![CDATA[
    .fil0 {fill:black}
   ]]>
  </style>
 </defs>
 <g id="Capa_x0020_1">
  <metadata id="CorelCorpID_0Corel-Layer"/>
  <path class="fil0" d="M2164.28 1145.8c0,-45.1 100.91,-141.7 139.4,-189.48 138.46,-171.86 249.3,-122.23 450.42,-71.46 184.03,46.46 1335.9,315.81 1405.08,345.44 148.07,63.44 6.4,160.92 -70.15,259.48 -134.01,172.55 -247.01,131.35 -458.55,78.25l-1296.48 -316.12c-81.44,-20.15 -169.73,-30.3 -169.73,-106.11zm-2164.28 2111.23c0,227.36 25.83,420.86 131.74,600.3 111.24,188.47 275.83,350.84 491.92,409.87 321.68,87.87 645.46,192.07 965.7,287.28l1135.9 337.69c112.24,34.76 375.42,132.52 480.27,96.21 85.07,-29.46 235.38,-232.1 297,-308.22 547.68,-659.98 1103.92,-1318.57 1645.38,-1982.97 74.74,-91.71 241.57,-250.95 241.57,-373.76 0,-55.61 -20.16,-84.49 -32.18,-126.96 -64.08,-226.43 32.18,-291.88 32.18,-424.72 0,-250.84 -332.9,-299.59 -420.57,-38.64 -59.64,177.51 -68.22,373.04 -25.02,558.49 -35.84,24 -36.36,32.95 -62.18,65.13 -301.75,359.93 -601.96,721.35 -901.94,1082.94 -103.87,125.2 -898.92,1056.29 -913.71,1111.69 -315.61,-151.41 -1104.74,-329.67 -1470.87,-438.79 -250.48,-74.65 -492.14,-146.49 -737.1,-217.74 -126.05,-36.66 -222.2,-65.17 -305.23,-172.18 -100.63,-129.71 -128.49,-249.89 -128.49,-433.8 0,-228.93 85.72,-339.5 297.06,-339.5 80.71,0 1838.34,520.74 2100.63,594.12 95.72,26.78 199.44,52.51 286.89,-10.17 42.66,-30.57 42.69,-46.71 76.39,-82.75 151.18,-167.63 314.94,-346.68 455.18,-520.86 474.1,-547.96 949.18,-1094.82 1423.22,-1642.85 98.21,-116.76 206.69,-225.23 300.26,-346.91 67.84,-88.22 57.31,-220.19 -22.75,-297.59 -82.75,-80 -742.28,-198.63 -891.83,-232.74l-737.05 -164.73c-118,-24.65 -1049.85,-244.89 -1113.1,-244.89 -111.41,0 -161.16,70.86 -225.25,135.46l-780.17 864.26c-425.74,427.78 -887.01,986.42 -1299.49,1448.29 -165.44,162.2 -294.34,561.24 -294.34,809.02z"/>
 </g>
</svg>
