<svg width="50" height="50" viewBox="0 0 50 50" fill="none" xmlns="http://www.w3.org/2000/svg">
<g clip-path="url(#clip0_13_12)">
<path fill-rule="evenodd" clip-rule="evenodd" d="M8.09019 12.4588C7.33017 12.4588 0.665802 12.3865 0.665802 10.1127C0.665802 7.83895 7.33017 7.76672 8.09019 7.76672C8.85022 7.76672 15.5146 7.83895 15.5146 10.1127C15.5146 12.3865 8.85022 12.4588 8.09019 12.4588ZM1.57187 10.1127C1.92204 10.5823 4.26179 11.3753 8.09019 11.3753C11.9202 11.3753 14.2882 10.5807 14.6085 10.1127C14.2583 9.64323 11.9186 8.85023 8.09019 8.85023C4.26022 8.85023 1.89378 9.60868 1.57187 10.1127Z" fill="#00AFEF"/>
<path fill-rule="evenodd" clip-rule="evenodd" d="M14.6384 23.6095H15.5161V10.1127H14.6384V23.6095Z" fill="#00AFEF"/>
<path fill-rule="evenodd" clip-rule="evenodd" d="M0.665802 23.6095H1.54203V10.1127H0.665802V23.6095Z" fill="#00AFEF"/>
<path fill-rule="evenodd" clip-rule="evenodd" d="M8.09019 17.1854C6.33616 17.1854 0.665802 17.0048 0.665802 14.5504H1.54203C1.54203 15.2005 4.02625 16.1019 8.09019 16.1019C12.1541 16.1019 14.6384 15.199 14.6384 14.5504H15.5146C15.5146 17.0048 9.81438 17.1854 8.09019 17.1854Z" fill="#00AFEF"/>
<path fill-rule="evenodd" clip-rule="evenodd" d="M8.09019 21.6969C6.33616 21.6969 0.665802 21.5163 0.665802 19.0619H1.54203C1.54203 19.712 4.02625 20.6134 8.09019 20.6134C12.1541 20.6134 14.6384 19.7104 14.6384 19.0619H15.5146C15.5146 21.4802 9.81438 21.6969 8.09019 21.6969Z" fill="#00AFEF"/>
<path fill-rule="evenodd" clip-rule="evenodd" d="M8.09019 26.1707C6.33616 26.1707 0.665802 25.9901 0.665802 23.5357H1.54203C1.54203 24.1858 4.02625 25.0872 8.09019 25.0872C12.1541 25.0872 14.6384 24.1858 14.6384 23.5357H15.5146C15.5146 25.954 9.84422 26.1707 8.09019 26.1707Z" fill="#00AFEF"/>
<path d="M26.3041 41.1718H23.6927C23.3488 41.1718 23.0379 41.032 22.8133 40.8075V40.8059C22.5888 40.5813 22.449 40.2704 22.449 39.9281V38.5776C22.259 38.5148 22.0737 38.4457 21.8916 38.3703C21.7094 38.295 21.5288 38.2117 21.3514 38.1207L20.3935 39.077C20.1548 39.3157 19.8329 39.435 19.5157 39.435V39.4334C19.1954 39.4334 18.8735 39.3141 18.6363 39.077L16.7897 37.2287C16.6735 37.1125 16.5824 36.9759 16.5211 36.8267C16.4599 36.6791 16.4269 36.5174 16.4269 36.3509H16.4254C16.4254 36.1861 16.4583 36.0259 16.5211 35.8751C16.5824 35.7275 16.6735 35.5909 16.7912 35.4731L17.7742 34.4901C17.6895 34.3158 17.6109 34.1384 17.5371 33.9562C17.4665 33.7788 17.4005 33.5982 17.3424 33.416H15.937C15.5947 33.416 15.2837 33.2763 15.0576 33.0502C14.8331 32.8256 14.6933 32.5147 14.6933 32.1724V29.5609C14.6933 29.2186 14.8331 28.9077 15.0576 28.6831C15.2837 28.457 15.5947 28.3157 15.937 28.3157H17.4115C17.4727 28.1414 17.5387 27.9702 17.6125 27.8022C17.6832 27.6373 17.7601 27.474 17.8449 27.3123L16.7912 26.2586C16.675 26.1424 16.584 26.0058 16.5227 25.8566C16.4615 25.7106 16.4285 25.5488 16.4285 25.3808C16.4285 25.2143 16.4599 25.0542 16.5211 24.905V24.9034C16.5824 24.7558 16.6735 24.6192 16.7912 24.5014L18.6395 22.6516C18.8782 22.4145 19.2001 22.2967 19.5173 22.2967C19.8361 22.2967 20.1564 22.4145 20.3951 22.65L21.499 23.7508C21.6576 23.6739 21.8146 23.6032 21.9732 23.5404C22.1303 23.4776 22.2904 23.4179 22.4537 23.3645V21.7989C22.4537 21.4566 22.5935 21.1457 22.8196 20.9196C23.0442 20.6966 23.3535 20.5568 23.6974 20.5568V20.5553H26.3104C26.6527 20.5553 26.9637 20.695 27.1882 20.9196C27.4143 21.1457 27.5557 21.4566 27.5557 21.7989V23.3802C27.7127 23.4336 27.8713 23.4933 28.0283 23.5592C28.1869 23.6252 28.3424 23.6943 28.4931 23.7681L29.6112 22.65C29.8483 22.4129 30.1718 22.2936 30.4906 22.2936V22.2952C30.8093 22.2952 31.1312 22.4129 31.3684 22.65C31.3715 22.65 33.0596 24.3413 33.2182 24.4999C33.46 24.7433 33.5825 25.062 33.5825 25.3777C33.5825 25.6949 33.4616 26.0121 33.2182 26.2539L32.1284 27.3437C32.2069 27.4976 32.2807 27.6562 32.3498 27.8179C32.4189 27.9812 32.4833 28.1461 32.5429 28.311H34.0693C34.4116 28.311 34.7225 28.4507 34.9486 28.6753C35.1748 28.9014 35.3161 29.2123 35.3161 29.5547V32.1661C35.3161 32.5084 35.1748 32.8193 34.9486 33.0454C34.7225 33.27 34.4116 33.4098 34.0693 33.4098H32.612C32.5555 33.5841 32.4943 33.7568 32.4252 33.9295C32.3561 34.1038 32.2791 34.2766 32.1975 34.4462L33.2182 35.4669C33.4584 35.7087 33.5793 36.0259 33.5793 36.3447H33.5809C33.5809 36.6619 33.46 36.9791 33.2182 37.2225C33.0596 37.3811 31.3668 39.0754 31.3636 39.0754C31.1265 39.311 30.8062 39.4287 30.4906 39.4287C30.1749 39.4287 29.8546 39.311 29.6159 39.0738C29.6128 39.0738 28.7224 38.1803 28.6376 38.0955C28.4633 38.185 28.2859 38.2683 28.1068 38.3452C27.9247 38.4222 27.7394 38.4928 27.5541 38.5572V39.9249H27.5525C27.5525 40.2688 27.4128 40.5813 27.1898 40.8043C26.9621 41.0289 26.6512 41.1686 26.3104 41.1686L26.3041 41.1718ZM23.6927 40.1495H26.3041C26.3669 40.1495 26.4219 40.1244 26.4612 40.0867V40.0851C26.502 40.0443 26.5287 39.9878 26.5287 39.9281H26.5271V37.8003L26.8993 37.6935C27.1772 37.615 27.4457 37.5192 27.7033 37.4109C27.9655 37.2994 28.2215 37.1722 28.468 37.0277L28.8072 36.8314C29.1432 37.1675 30.0776 38.1945 30.3335 38.3562C30.3696 38.3923 30.4262 38.4112 30.4874 38.4112C30.5487 38.4112 30.6052 38.3939 30.6413 38.3578C30.7842 38.1285 32.1881 36.811 32.4927 36.508C32.5351 36.4656 32.5555 36.4075 32.5555 36.3494H32.5571C32.5571 36.2928 32.5351 36.2347 32.4911 36.1908L30.9412 34.6393L31.1234 34.3048C31.2553 34.063 31.3731 33.8133 31.4736 33.5589C31.5741 33.3061 31.6604 33.0439 31.7327 32.7738L31.8347 32.3922H34.0646C34.1274 32.3922 34.1839 32.3671 34.2247 32.3278C34.264 32.2886 34.2891 32.2336 34.2891 32.1708V29.5594C34.2891 29.4966 34.264 29.4416 34.2247 29.4023C34.1839 29.3615 34.1274 29.3364 34.0646 29.3364H31.7876L31.6793 28.9705C31.6023 28.713 31.5113 28.4617 31.4076 28.2199C31.3055 27.9812 31.1862 27.7425 31.0527 27.5086L30.8596 27.1709L32.4943 25.5363C32.5351 25.4954 32.5571 25.4389 32.5571 25.3808C32.5571 25.3227 32.5351 25.2646 32.4927 25.2222L30.6444 23.3755C30.6068 23.3363 30.5487 23.3174 30.4874 23.3174V23.319C30.4262 23.319 30.3696 23.3378 30.332 23.3755L28.68 25.0275L28.344 24.8422C28.1115 24.7134 27.876 24.6004 27.6389 24.503C27.4049 24.4072 27.1584 24.3208 26.9024 24.247L26.5303 24.1403V21.7989C26.5303 21.7377 26.5067 21.6827 26.4674 21.6435C26.4282 21.6042 26.3717 21.5791 26.3088 21.5791H23.6974V21.5775C23.6362 21.5775 23.5812 21.6027 23.5388 21.6435C23.4996 21.6827 23.476 21.7377 23.476 21.7989V24.1293L23.1007 24.2345C22.8526 24.3036 22.6045 24.3884 22.3564 24.4889C22.1051 24.5909 21.868 24.7024 21.6435 24.8233L21.3074 25.0055L19.6743 23.3724C19.6366 23.3331 19.5785 23.3143 19.5189 23.3143C19.4592 23.3143 19.3995 23.3347 19.3603 23.374L17.5151 25.2222C17.4947 25.2426 17.4775 25.2677 17.4665 25.2944C17.4555 25.3211 17.4492 25.351 17.4492 25.3808C17.4492 25.4075 17.4555 25.4373 17.4665 25.464C17.4775 25.4907 17.4932 25.5143 17.5136 25.5347C17.5183 25.5347 18.8986 26.9181 19.1153 27.1348L18.9174 27.4756C18.7824 27.708 18.6599 27.9514 18.5515 28.2042C18.4432 28.4555 18.3505 28.7114 18.272 28.9705L18.1637 29.3364H15.9386C15.8773 29.3364 15.8224 29.3599 15.7831 29.3992C15.7438 29.4385 15.7187 29.495 15.7187 29.5578V32.1692C15.7187 32.232 15.7438 32.2886 15.7831 32.3278C15.8224 32.3671 15.8773 32.3906 15.9386 32.3906H18.1181L18.2186 32.7722C18.2909 33.0454 18.3804 33.3124 18.484 33.5746C18.5877 33.8337 18.7086 34.0897 18.8468 34.3378L19.0321 34.6723L17.5136 36.1908C17.4932 36.2112 17.4775 36.2363 17.4665 36.263C17.4555 36.2881 17.4508 36.3164 17.4508 36.3478H17.4492C17.4492 36.3761 17.4555 36.4043 17.4665 36.4326V36.4342C17.4775 36.4593 17.4932 36.4828 17.5136 36.5048C17.669 36.6603 19.3587 38.3531 19.3618 38.3515C19.4011 38.3908 19.4592 38.4112 19.5189 38.4112V38.4096C19.5801 38.4096 19.6382 38.3908 19.6775 38.3531C19.6759 38.3499 20.9777 37.0513 21.1755 36.8534L21.5131 37.0466C21.7612 37.1879 22.0203 37.3151 22.2873 37.4266C22.5558 37.5381 22.8275 37.6323 23.1007 37.7077L23.476 37.8113V39.9265C23.476 39.9878 23.5011 40.0443 23.5404 40.0835C23.5812 40.1228 23.6362 40.1479 23.6974 40.1479L23.6927 40.1495Z" fill="#00AFEF"/>
<path d="M25.0008 27.4976C24.0727 27.4976 23.231 27.876 22.6218 28.4853C22.0125 29.0946 21.6341 29.9362 21.6341 30.8643C21.6341 31.7923 22.0125 32.634 22.6218 33.2433C23.231 33.8526 24.0727 34.231 25.0008 34.231C25.9288 34.231 26.7705 33.8526 27.3798 33.2433C27.9891 32.634 28.3675 31.7923 28.3675 30.8643C28.3675 29.9362 27.9891 29.0946 27.3798 28.4853C26.7705 27.876 25.9288 27.4976 25.0008 27.4976ZM21.8979 27.7614C22.6924 26.9668 23.7901 26.4737 25.0008 26.4737C26.2115 26.4737 27.3076 26.9652 28.1037 27.7614C28.8983 28.5559 29.3913 29.6536 29.3913 30.8643C29.3913 32.075 28.8998 33.1711 28.1037 33.9656C27.3091 34.7602 26.2115 35.2517 25.0008 35.2517C23.7901 35.2517 22.6924 34.7602 21.8979 33.9656C21.1033 33.1711 20.6102 32.0734 20.6102 30.8643C20.6102 29.6536 21.1017 28.5559 21.8979 27.7614Z" fill="#00AFEF"/>
<path d="M35.5721 7.76672H43.7062C44.1836 7.76672 44.617 7.963 44.9342 8.27706L44.9358 8.27863C45.2514 8.59427 45.4461 9.02924 45.4461 9.50661V21.141C45.4461 21.6184 45.2498 22.0518 44.9358 22.369L44.9342 22.3705C44.6186 22.6862 44.1836 22.8809 43.7062 22.8809H35.5721C35.0947 22.8809 34.6613 22.6846 34.3441 22.3705L34.3425 22.369C34.0269 22.0533 33.8322 21.6184 33.8322 21.141V9.50661C33.8322 9.02924 34.0285 8.59584 34.3425 8.27863L34.3441 8.27706C34.6597 7.96143 35.0947 7.76672 35.5721 7.76672ZM43.7062 8.78898H35.5721C35.3742 8.78898 35.1952 8.86907 35.0664 8.99783L35.0649 8.9994C34.9361 9.12817 34.856 9.30718 34.856 9.50504V21.1394C34.856 21.3373 34.9361 21.5163 35.0649 21.645L35.0664 21.6466C35.1952 21.7754 35.3742 21.8555 35.5721 21.8555H43.7062C43.9041 21.8555 44.0831 21.7754 44.2119 21.6466L44.2134 21.645C44.3422 21.5163 44.4223 21.3373 44.4223 21.1394V9.50504C44.4223 9.30718 44.3422 9.12817 44.2134 8.9994L44.2119 8.99783C44.0831 8.86907 43.9041 8.78898 43.7062 8.78898Z" fill="#00AFEF"/>
<path d="M46.5626 11.5276H47.61C48.0874 11.5276 48.5208 11.7239 48.838 12.0379L48.8396 12.0395C49.1552 12.3551 49.3499 12.7901 49.3499 13.2675V24.9019C49.3499 25.3792 49.1536 25.8126 48.8396 26.1298L48.838 26.1314C48.5224 26.447 48.0874 26.6418 47.61 26.6418H39.4758C38.9985 26.6418 38.5651 26.4455 38.2479 26.1314L38.2463 26.1298C37.9307 25.8142 37.7359 25.3792 37.7359 24.9019V24.1481H38.7582V24.9019C38.7582 25.0997 38.8383 25.2787 38.9671 25.4075L38.9686 25.4091C39.0974 25.5378 39.2764 25.6179 39.4743 25.6179H47.6084C47.8063 25.6179 47.9853 25.5378 48.1141 25.4091L48.1156 25.4075C48.2444 25.2787 48.3245 25.0997 48.3245 24.9019V13.2675C48.3245 13.0696 48.2444 12.8906 48.1156 12.7618L48.1141 12.7603C47.9853 12.6315 47.8063 12.5514 47.6084 12.5514H46.561V11.5292L46.5626 11.5276Z" fill="#00AFEF"/>
<path fill-rule="evenodd" clip-rule="evenodd" d="M34.9958 42.1359H37.0858V40.0459H39.1759V42.1359H41.266V44.226H39.1759V46.3161H37.0858V44.226H34.9958V42.1359ZM39.1759 44.226V42.1359H37.0858V44.226H39.1759Z" fill="#FFCB57"/>
<path fill-rule="evenodd" clip-rule="evenodd" d="M25.5834 13.3743H27.6734V11.2842H29.7635V13.3743H31.8536V15.4643H29.7635V17.5544H27.6734V15.4643H25.5834V13.3743ZM29.7635 15.4643V13.3743H27.6734V15.4643H29.7635Z" fill="#FFCB57"/>
<path fill-rule="evenodd" clip-rule="evenodd" d="M17.4445 4.7533H19.5346V2.66323H21.6246V4.7533H23.7147V6.84338H21.6246V8.93345H19.5346V6.84338H17.4445V4.7533ZM21.6246 6.84338V4.7533H19.5346V6.84338H21.6246Z" fill="#FFCB57"/>
<path fill-rule="evenodd" clip-rule="evenodd" d="M41.5219 31.3024H43.612V29.2123H45.7021V31.3024H47.7922V33.3925H45.7021V35.4826H43.612V33.3925H41.5219V31.3024ZM45.7021 33.3925V31.3024H43.612V33.3925H45.7021Z" fill="#FFCB57"/>
<path fill-rule="evenodd" clip-rule="evenodd" d="M10.0845 43.1503H12.1746V41.0603H14.2646V43.1503H16.3547V45.2404H14.2646V47.3305H12.1746V45.2404H10.0845V43.1503ZM14.2646 45.2404V43.1503H12.1746V45.2404H14.2646Z" fill="#FFCB57"/>
<path fill-rule="evenodd" clip-rule="evenodd" d="M4.62611 33.0407H6.71619V30.9507H8.80626V33.0407H10.8963V35.1308H8.80626V37.2209H6.71619V35.1308H4.62611V33.0407ZM8.80626 35.1308V33.0407H6.71619V35.1308H8.80626Z" fill="#FFCB57"/>
</g>
<defs>
<clipPath id="clip0_13_12">
<rect width="50" height="50" fill="white"/>
</clipPath>
</defs>
</svg>
