<svg width="50" height="50" viewBox="0 0 50 50" fill="none" xmlns="http://www.w3.org/2000/svg">
<path d="M45.5224 0H4.47761C2.00469 0 0 2.00469 0 4.47761V45.5224C0 47.9953 2.00469 50 4.47761 50H45.5224C47.9953 50 50 47.9953 50 45.5224V4.47761C50 2.00469 47.9953 0 45.5224 0Z" fill="#4C9F38"/>
<path fill-rule="evenodd" clip-rule="evenodd" d="M11.7271 13.3262C11.0874 14.1791 10.5544 15.2452 10.1279 16.4179C9.70148 17.484 9.48826 18.7633 9.48826 20.0426C9.48826 20.7889 9.59487 21.5351 9.70148 22.1748C9.80809 22.8145 10.0213 23.4541 10.1279 23.9872H18.2303L21.9616 17.484L24.0938 24.9466L26.3326 22.0682H33.2622V24.84H27.6119L22.9211 30.9168L21.1087 24.5202L19.8294 26.759H4.79742V23.9872H7.35606C7.14284 23.4541 7.03623 22.8145 6.92962 22.2814C6.82301 21.5351 6.82301 20.7889 6.82301 20.0426C6.82301 18.4435 7.03623 16.9509 7.56928 15.565C7.99572 14.0724 8.74199 12.6865 9.59487 11.6204C10.5544 10.4477 11.7271 9.38162 13.0064 8.74196C14.2857 8.1023 15.6716 7.78247 17.0576 7.78247C18.8699 7.78247 20.3625 8.20891 21.6418 8.95518C23.0277 9.80806 24.0938 10.8742 24.9467 12.1535C25.9062 10.8742 26.9723 9.80806 28.3582 8.95518C29.6375 8.20891 31.13 7.78247 32.8358 7.78247C34.3283 7.78247 35.7143 8.1023 36.9936 8.74196C38.2729 9.38162 39.4456 10.4477 40.4051 11.6204C41.258 12.6865 42.0042 14.0724 42.4307 15.565C42.9637 16.9509 43.177 18.4435 43.177 20.0426C43.177 23.3475 42.0042 26.4392 40.2985 29.1044C38.6993 31.7697 36.4605 34.1151 34.3283 35.9275C33.2622 36.8869 32.0895 37.7398 31.13 38.4861C30.0639 39.2324 29.2111 39.872 28.3582 40.4051C28.0384 40.6183 27.7185 40.8315 27.3987 41.0447C26.9723 41.2579 26.6524 41.4712 26.4392 41.5778L25.9062 41.791L25.0533 42.324L24.7335 42.1108V42.2174C24.5202 42.0042 24.307 41.8976 24.0938 41.791L23.4541 41.4712C23.1343 41.3646 22.8145 41.1513 22.388 40.9381C21.9616 40.7249 21.5352 40.4051 21.1087 40.0852C20.0426 39.4456 18.9765 38.6993 17.8038 37.8464C16.6311 36.9936 15.3518 35.9275 14.1791 34.7548C13.5394 34.1151 12.8998 33.4754 12.2601 32.8358C11.6205 32.0895 11.0874 31.4498 10.5544 30.7036V30.597C10.3411 30.3837 10.2345 29.9573 10.3411 29.6375C10.3411 29.3177 10.5544 28.9978 10.7676 28.7846H10.8742C11.194 28.5714 11.5138 28.4648 11.8337 28.4648C12.1535 28.5714 12.4733 28.7846 12.7932 29.1044C13.2196 29.7441 13.7526 30.3837 14.2857 30.9168C14.8187 31.5565 15.4584 32.1961 15.9915 32.8358C17.0576 33.7953 18.017 34.6481 19.0831 35.3944C20.2558 36.3539 21.5352 37.2068 22.4946 37.8464C22.9211 38.0597 23.3475 38.2729 23.6674 38.4861C24.0938 38.6993 24.4136 38.9125 24.7335 39.1258L24.9467 39.2324H25.0533C25.2665 39.0191 25.5863 38.9125 25.9062 38.6993C26.226 38.4861 26.5458 38.2729 26.8657 38.0597C27.7185 37.5266 28.7846 36.8869 29.8507 36.0341C30.7036 35.3944 31.5565 34.7548 32.516 33.9019C34.7548 31.9829 36.9936 29.5309 38.4861 26.9722C39.6588 24.84 40.4051 22.4946 40.4051 20.0426C40.4051 18.7633 40.2985 17.484 39.872 16.4179C39.4456 15.2452 38.9126 14.1791 38.1663 13.3262C37.5266 12.3667 36.6738 11.6204 35.7143 11.194C34.8614 10.7675 33.9019 10.4477 32.8358 10.4477C31.4499 10.4477 30.1706 10.8742 29.1045 11.727C27.9318 12.5799 26.9723 13.8592 26.226 15.4584L24.9467 17.9104L23.774 15.4584C23.0277 13.8592 22.0682 12.5799 20.8955 11.727C19.7228 10.8742 18.5501 10.4477 17.0576 10.4477C16.0981 10.4477 15.1386 10.7675 14.2857 11.194C13.3262 11.6204 12.4733 12.3667 11.7271 13.3262Z" fill="#FEFEFE"/>
</svg>
