<svg width="50" height="50" viewBox="0 0 50 50" fill="none" xmlns="http://www.w3.org/2000/svg">
<path d="M45.5128 0H4.48718C2.00898 0 0 2.00898 0 4.48718V45.5128C0 47.991 2.00898 50 4.48718 50H45.5128C47.991 50 50 47.991 50 45.5128V4.48718C50 2.00898 47.991 0 45.5128 0Z" fill="#FD6925"/>
<path d="M43.4829 26.8162L34.4017 21.9017C34.188 21.7948 33.9743 21.7948 33.7607 21.9017L29.9145 24.5726L25 26.6025L20.8333 25L16.2393 21.9017C16.0256 21.7948 15.8119 21.7948 15.5983 21.9017L6.51707 26.8162C6.3034 26.923 6.08972 27.2435 6.08972 27.4572V37.3931C6.08972 37.6068 6.3034 37.9273 6.51707 38.0341L15.5983 42.9487C15.8119 43.0555 16.0256 43.0555 16.2393 42.9487L25 38.2478L33.7607 42.9487C33.9743 43.0555 34.188 43.0555 34.4017 42.9487L43.4829 38.0341C43.8034 37.9273 43.9102 37.6068 43.9102 37.3931V27.4572C43.9102 27.2435 43.8034 26.923 43.4829 26.8162ZM15.1709 41.0256L7.58545 36.9658V28.6324L15.1709 31.8376V41.0256ZM15.9188 30.5555L8.54699 27.3504L15.9188 23.3974L20.2991 25L23.2906 27.3504L15.9188 30.5555ZM24.2521 36.9658L16.6666 41.0256V31.8376L24.2521 28.6324V36.9658ZM33.3333 41.0256L25.7478 36.9658V28.6324L33.3333 31.8376V41.0256ZM34.0812 30.5555L26.7094 27.3504L30.1282 24.7863L34.0812 23.3974L41.453 27.3504L34.0812 30.5555ZM42.4145 36.9658L34.829 41.0256V31.8376L42.4145 28.6324V36.9658Z" fill="#FEFEFE"/>
<path d="M34.4017 11.9658L25.3205 7.05126C25.1068 6.94442 24.8931 6.94442 24.6794 7.05126L15.5982 11.9658C15.3846 12.1795 15.1709 12.3931 15.1709 12.7137V22.5427C15.1709 22.8632 15.3846 23.0769 15.5982 23.1837C25.3205 28.4188 24.6794 28.2051 24.7863 28.2051C25 28.2051 25.2136 28.2051 25.3205 28.0983L34.4017 23.1837C34.7222 23.0769 34.829 22.8632 34.829 22.5427V12.7137C34.829 12.3931 34.7222 12.1795 34.4017 11.9658ZM24.2521 26.282L16.6666 22.1154V13.782L24.2521 16.9872V26.282ZM25 15.7051L17.6282 12.6068L25 8.54698L32.3718 12.6068L25 15.7051ZM33.3333 22.1154L25.7478 26.282V16.9872L33.3333 13.782V22.1154Z" fill="#FEFEFE"/>
</svg>
