<svg width="167" height="50" viewBox="0 0 167 50" fill="none" xmlns="http://www.w3.org/2000/svg">
<path d="M30.0588 26.5005C24.0192 26.5005 20 21.8336 20 16.2478C20 10.6621 24.0192 6 30.0588 6C36.0985 6 40.1177 10.6669 40.1177 16.2478C40.1177 21.8287 36.1033 26.5005 30.0588 26.5005ZM30.0588 8.58734C25.4461 8.58734 22.8587 12.183 22.8587 16.2527C22.8587 20.3223 25.4461 23.918 30.0588 23.918C34.6716 23.918 37.2638 20.3223 37.2638 16.2527C37.2638 12.1854 34.6716 8.58251 30.0588 8.58251V8.58976V8.58734Z" fill="#4C48F2"/>
<path d="M49.5055 26.5003C49.5006 26.5003 49.4933 26.5003 49.4885 26.5003C47.6255 26.5003 45.8981 25.5331 44.9266 23.9493V30.5385C44.9266 31.3099 44.2992 31.9362 43.5264 31.9362C42.7535 31.9362 42.1261 31.3099 42.1261 30.5385V14.4099C42.1236 14.3761 42.1212 14.3422 42.1212 14.3084C42.1212 13.5926 42.7027 13.0099 43.4198 13.0099C43.4367 13.0099 43.4513 13.0099 43.4682 13.0099C43.4755 13.0099 43.4827 13.0099 43.49 13.0099C44.2362 13.0099 44.8394 13.6144 44.8394 14.3568C44.8394 14.3833 44.8394 14.4124 44.837 14.439V15.4473C45.8109 13.8586 47.5455 12.889 49.411 12.889C49.4425 12.889 49.474 12.889 49.5055 12.889C52.9262 12.889 55.7268 15.7423 55.7268 19.691C55.7268 23.7921 52.9262 26.5003 49.5055 26.5003ZM48.9386 15.2152C46.528 15.2152 44.9242 17.3237 44.9242 19.6983C44.9242 22.0728 46.528 24.1887 48.9386 24.1887C51.3491 24.1887 52.9262 22.3751 52.9262 19.6983C52.9262 17.0215 51.3491 15.2079 48.9386 15.2079V15.2152Z" fill="#4C48F2"/>
<path d="M69.7176 19.7224C69.7176 20.2012 69.4463 20.6727 68.6444 20.6727H59.7533C59.9059 22.7209 61.2989 24.2684 63.7725 24.2684C63.804 24.2684 63.8403 24.2684 63.8718 24.2684C65.1437 24.2684 66.3574 23.7413 67.2247 22.8127C67.4597 22.5492 67.7916 22.3872 68.1453 22.3654C68.155 22.3654 68.1671 22.3654 68.1768 22.3654C68.7995 22.3654 69.3058 22.8708 69.3058 23.4922C69.3058 23.5019 69.3058 23.514 69.3058 23.5237C69.2864 23.8235 69.158 24.1088 68.9472 24.324C67.6075 25.712 65.7566 26.4979 63.8233 26.4979C63.7652 26.4979 63.7046 26.4955 63.6465 26.4955C59.23 26.4955 56.8558 23.41 56.8558 19.6934C56.8534 19.6112 56.851 19.5242 56.851 19.4419C56.851 15.8221 59.792 12.8865 63.4188 12.8865C63.4575 12.8865 63.4987 12.8865 63.5375 12.8865C67.2732 12.8865 69.7152 15.9164 69.7152 19.72L69.7176 19.7224ZM63.5399 15.1184C63.5254 15.1184 63.5084 15.1184 63.4939 15.1184C61.6042 15.1184 60.0174 16.5427 59.8163 18.4191H67.1303C66.9631 16.562 65.4077 15.1329 63.5399 15.1184Z" fill="#4C48F2"/>
<path d="M77.5743 12.889C77.6203 12.889 77.6688 12.8866 77.7148 12.8866C81.0871 12.8866 83.8223 15.6166 83.8223 18.9826C83.8223 19.0213 83.8223 19.06 83.8223 19.0962V24.9794C83.8247 25.0109 83.8247 25.0423 83.8247 25.0737C83.8247 25.8451 83.1973 26.4714 82.4244 26.4714C81.6516 26.4714 81.0241 25.8451 81.0241 25.0737C81.0241 25.0423 81.0241 25.0109 81.0266 24.9794V18.7698C80.949 16.9321 79.4325 15.4836 77.5912 15.4836C75.75 15.4836 74.2335 16.9321 74.1559 18.7674V24.977C74.1559 25.7484 73.5285 26.3747 72.7556 26.3747C71.9828 26.3747 71.3553 25.7484 71.3553 24.977V19.0938C71.3553 19.0503 71.3553 19.0043 71.3553 18.9584C71.3553 15.6021 74.0808 12.8818 77.4435 12.8818C77.4871 12.8818 77.5331 12.8818 77.5767 12.8842L77.5743 12.889Z" fill="#4C48F2"/>
<path d="M99.9547 21.7754H91.1217L89.4307 25.3977C89.1787 25.9925 88.5925 26.3794 87.9432 26.3794C87.9311 26.3794 87.9214 26.3794 87.9093 26.3794C87.8947 26.3794 87.8802 26.3794 87.8657 26.3794C86.9378 26.3794 86.1868 25.6298 86.1868 24.7037C86.1868 24.6964 86.1868 24.6892 86.1868 24.6844C86.194 24.4377 86.2619 24.1959 86.383 23.9783L93.9998 7.07349C94.2493 6.49557 94.8187 6.12077 95.451 6.12077C95.4825 6.12077 95.5164 6.12077 95.5479 6.12318C95.5915 6.12077 95.6351 6.11835 95.6787 6.11835C96.3037 6.11835 96.8658 6.49799 97.1008 7.07591L104.718 23.9807C104.834 24.2007 104.894 24.445 104.894 24.6916C104.894 24.6989 104.894 24.7037 104.894 24.711C104.894 25.6371 104.143 26.3867 103.216 26.3867C103.201 26.3867 103.186 26.3867 103.172 26.3867C103.153 26.3867 103.131 26.3891 103.109 26.3891C102.467 26.3891 101.89 25.9998 101.651 25.4049L99.9595 21.7778L99.9547 21.7754ZM95.5382 11.0682L92.4469 18.6246H98.6368L95.5382 11.0682Z" fill="#4687E6"/>
<path d="M108.075 26.3794C107.058 26.3722 106.237 25.55 106.234 24.5344V7.95851C106.241 6.94533 107.063 6.1256 108.078 6.11835C109.066 6.1256 109.863 6.92599 109.863 7.91256C109.863 7.92707 109.863 7.94158 109.863 7.95609V24.532C109.863 24.5465 109.863 24.561 109.863 24.5755C109.863 25.5621 109.066 26.3673 108.078 26.377L108.075 26.3794Z" fill="#4687E6"/>
<path d="M129.656 24.5659C129.656 24.5708 129.656 24.5732 129.656 24.578C129.656 25.5719 128.847 26.3795 127.851 26.3795C127.849 26.3795 127.847 26.3795 127.844 26.3795C127.808 26.3819 127.769 26.3843 127.733 26.3843C127.081 26.3843 126.492 25.995 126.236 25.3978L122.752 18.2378H116.77V24.5369C116.773 24.5708 116.773 24.6071 116.773 24.6433C116.773 25.6444 115.959 26.4569 114.956 26.4569C113.953 26.4569 113.139 25.6444 113.139 24.6433C113.139 24.6071 113.139 24.5708 113.141 24.5369V8.1617C113.141 8.15687 113.141 8.14961 113.141 8.14236C113.141 7.15095 113.945 6.34814 114.939 6.34814C114.944 6.34814 114.948 6.34814 114.951 6.34814H122.599C127.539 6.34814 129.654 8.78557 129.654 12.2869C129.654 14.6059 128.644 16.596 126.378 17.5777L129.446 23.7825C129.576 24.0243 129.647 24.2951 129.654 24.5684L129.656 24.5659ZM123.113 9.68267H116.802V15.1185H123.113C123.173 15.1234 123.236 15.1258 123.297 15.1258C124.794 15.1258 126.01 13.9119 126.01 12.4175C126.01 12.3885 126.01 12.3571 126.008 12.3281C126.008 11.0175 125.104 9.68267 123.11 9.68267H123.113Z" fill="#4687E6"/>
<path d="M145.186 26.1425H134.022C134.02 26.1425 134.015 26.1425 134.01 26.1425C133.004 26.1425 132.186 25.3325 132.181 24.329V8.16896C132.181 7.16304 132.997 6.34814 134.005 6.34814C134.012 6.34814 134.017 6.34814 134.024 6.34814H144.752C144.769 6.34814 144.786 6.34814 144.803 6.34814C145.723 6.34814 146.472 7.09291 146.474 8.01178C146.474 8.94758 145.714 9.70686 144.776 9.70686C144.769 9.70686 144.759 9.70686 144.752 9.70686H135.81V14.4294H143.337C144.27 14.4294 145.028 15.1862 145.028 16.1172C145.028 17.0385 144.279 17.7857 143.356 17.7857C143.349 17.7857 143.344 17.7857 143.337 17.7857H135.81V22.7862H145.186C145.193 22.7862 145.203 22.7862 145.21 22.7862C146.147 22.7862 146.908 23.5455 146.908 24.4813C146.906 25.4002 146.157 26.145 145.236 26.145C145.219 26.145 145.203 26.145 145.186 26.145V26.1425Z" fill="#4687E6"/>
<path d="M48.8441 43.7316V28.9741H59.2808V31.7403H51.9935V34.8887H59.15V37.655H51.9935V40.9919H59.2808V43.7316H48.8441Z" fill="#F05F30"/>
<path d="M71.3844 43.7315L67.6801 38.3344L63.9589 43.7315H60.2159L65.5797 36.1726L60.5309 28.9813H64.2787L67.668 34.0205L71.0185 28.9813H74.8051L69.7563 36.1484L75.1201 43.7388L71.3844 43.7315Z" fill="#F05F30"/>
<path d="M76.5276 43.7316V28.9741H83.437C83.4685 28.9741 83.5025 28.9741 83.5364 28.9741C84.2317 28.9741 84.9221 29.1022 85.5714 29.3537C86.1553 29.5834 86.6882 29.934 87.1316 30.3814C87.5507 30.8142 87.8778 31.3341 88.0837 31.8999C88.2969 32.4754 88.4059 33.0848 88.4059 33.699C88.4059 33.7087 88.4059 33.7207 88.4059 33.7328C88.4059 33.7401 88.4059 33.7498 88.4059 33.757C88.4059 34.376 88.292 34.9927 88.0716 35.5706C87.8584 36.1316 87.5313 36.6442 87.1122 37.0746C86.6689 37.5147 86.1407 37.8653 85.5593 38.1023C84.9173 38.361 84.2292 38.494 83.5388 38.494C83.5073 38.494 83.471 38.494 83.4395 38.494H79.6529V43.734H76.5301L76.5276 43.7316ZM83.0203 35.7278C83.0446 35.7278 83.0688 35.7278 83.093 35.7278C83.6333 35.7278 84.1542 35.5367 84.566 35.1909C84.9657 34.8113 85.191 34.2842 85.191 33.7328C85.191 33.1815 84.9657 32.6544 84.566 32.2747C84.1566 31.929 83.6381 31.7379 83.1027 31.7379C83.0761 31.7379 83.047 31.7379 83.0203 31.7403H79.6698V35.7278H83.0203Z" fill="#F05F30"/>
<path d="M90.3344 43.7316V28.9741H93.4886V40.9411H99.7415V43.7316H90.3344Z" fill="#F05F30"/>
<path d="M108.306 43.9951C108.279 43.9951 108.252 43.9951 108.226 43.9951C107.198 43.9951 106.181 43.8017 105.224 43.4293C104.308 43.0787 103.472 42.537 102.775 41.8479C102.079 41.1611 101.532 40.3366 101.166 39.4298C100.788 38.4553 100.592 37.4131 100.592 36.3661C100.592 35.3191 100.788 34.2793 101.166 33.3024C101.9 31.4622 103.371 30.009 105.224 29.2981C106.181 28.9281 107.203 28.7371 108.23 28.7371C108.255 28.7371 108.281 28.7371 108.303 28.7371C108.33 28.7371 108.359 28.7371 108.386 28.7371C109.418 28.7371 110.445 28.9281 111.409 29.2981C112.322 29.6583 113.156 30.1976 113.858 30.8795C114.544 31.571 115.084 32.398 115.44 33.3048C115.823 34.2793 116.022 35.3215 116.022 36.3685C116.022 37.4155 115.823 38.4577 115.44 39.4322C114.709 41.27 113.238 42.7208 111.39 43.4317C110.428 43.8065 109.405 44 108.373 44C108.349 44 108.327 44 108.303 44L108.306 43.9951ZM108.306 41.2119C108.325 41.2119 108.344 41.2119 108.364 41.2119C108.979 41.2119 109.592 41.0838 110.154 40.8323C110.692 40.5929 111.176 40.2447 111.574 39.8119C111.973 39.3694 112.284 38.8495 112.482 38.2885C112.695 37.6888 112.804 37.0528 112.804 36.4145C112.804 36.3975 112.804 36.3782 112.804 36.3613C112.804 36.3516 112.804 36.3443 112.804 36.3347C112.804 35.7011 112.695 35.07 112.482 34.4727C112.284 33.9069 111.973 33.3846 111.574 32.9373C111.179 32.4996 110.694 32.1514 110.154 31.9168C109.568 31.6774 108.938 31.5517 108.306 31.5517C107.671 31.5517 107.043 31.6774 106.457 31.9168C105.919 32.149 105.437 32.4972 105.05 32.9373C104.655 33.387 104.347 33.9093 104.146 34.4727C103.933 35.07 103.824 35.7011 103.824 36.3347C103.824 36.3443 103.824 36.3516 103.824 36.3613C103.824 36.3782 103.824 36.3975 103.824 36.4145C103.824 37.0528 103.933 37.6888 104.146 38.2885C104.345 38.8495 104.652 39.3669 105.05 39.8119C105.44 40.2471 105.922 40.5953 106.457 40.8323C107.017 41.0814 107.625 41.2095 108.24 41.2095C108.262 41.2095 108.286 41.2095 108.306 41.2095V41.2119Z" fill="#F05F30"/>
<path d="M126.584 43.7316L123.682 38.4916H121.378V43.7316H118.224V28.9741H125.165C125.194 28.9741 125.223 28.9741 125.252 28.9741C125.928 28.9741 126.601 29.0974 127.234 29.3344C128.399 29.772 129.32 30.6909 129.758 31.854C129.986 32.4367 130.105 33.063 130.105 33.6893C130.105 33.7062 130.105 33.7256 130.105 33.7425C130.105 33.7667 130.105 33.7933 130.105 33.8199C130.105 34.3809 130.01 34.9395 129.826 35.469C129.656 35.9333 129.407 36.3637 129.087 36.7409C128.791 37.0891 128.438 37.389 128.045 37.6235C127.684 37.846 127.287 38.008 126.873 38.1023L130.199 43.7195L126.584 43.734V43.7316ZM124.692 35.7278C124.719 35.7278 124.746 35.7278 124.772 35.7278C125.32 35.7278 125.853 35.5391 126.277 35.1909C126.681 34.8137 126.914 34.2866 126.914 33.7328C126.914 33.1791 126.684 32.652 126.277 32.2747C125.858 31.929 125.33 31.7379 124.784 31.7379C124.755 31.7379 124.724 31.7379 124.695 31.7403H121.395V35.7278H124.695H124.692Z" fill="#F05F30"/>
<path d="M132.479 43.7316V28.9741H142.94V31.7403H135.633V34.8887H142.765V37.655H135.633V40.9919H142.947V43.7316H132.479Z" fill="#F05F30"/>
</svg>
