<svg width="50" height="50" viewBox="0 0 50 50" fill="none" xmlns="http://www.w3.org/2000/svg">
<g clip-path="url(#clip0_2007_6)">
<path d="M24.9998 11.9173C28.2907 11.9173 30.9584 9.24952 30.9584 5.95865C30.9584 2.66778 28.2907 0 24.9998 0C21.7089 0 19.0411 2.66778 19.0411 5.95865C19.0411 9.24952 21.7089 11.9173 24.9998 11.9173Z" fill="#FEFEFE"/>
<path d="M5.95865 30.9584C9.24952 30.9584 11.9173 28.2906 11.9173 24.9997C11.9173 21.7089 9.24952 19.0411 5.95865 19.0411C2.66778 19.0411 0 21.7089 0 24.9997C0 28.2906 2.66778 30.9584 5.95865 30.9584Z" fill="#FEFEFE"/>
<path d="M24.9998 50C28.2907 50 30.9584 47.3322 30.9584 44.0413C30.9584 40.7505 28.2907 38.0827 24.9998 38.0827C21.7089 38.0827 19.0411 40.7505 19.0411 44.0413C19.0411 47.3322 21.7089 50 24.9998 50Z" fill="#FEFEFE"/>
<path d="M44.0414 30.9584C47.3323 30.9584 50.0001 28.2906 50.0001 24.9997C50.0001 21.7089 47.3323 19.0411 44.0414 19.0411C40.7505 19.0411 38.0828 21.7089 38.0828 24.9997C38.0828 28.2906 40.7505 30.9584 44.0414 30.9584Z" fill="#FEFEFE"/>
<path d="M24.9997 15.7611C27.3237 15.7611 29.2077 13.8772 29.2077 11.5532C29.2077 9.22918 27.3237 7.34521 24.9997 7.34521C22.6757 7.34521 20.7917 9.22918 20.7917 11.5532C20.7917 13.8772 22.6757 15.7611 24.9997 15.7611Z" fill="#00AFEF"/>
<path d="M15.4914 19.6994C17.8154 19.6994 19.6994 17.8154 19.6994 15.4914C19.6994 13.1674 17.8154 11.2834 15.4914 11.2834C13.1674 11.2834 11.2834 13.1674 11.2834 15.4914C11.2834 17.8154 13.1674 19.6994 15.4914 19.6994Z" fill="#00AFEF"/>
<path d="M11.5532 29.2077C13.8772 29.2077 15.7611 27.3237 15.7611 24.9997C15.7611 22.6757 13.8772 20.7917 11.5532 20.7917C9.22918 20.7917 7.34521 22.6757 7.34521 24.9997C7.34521 27.3237 9.22918 29.2077 11.5532 29.2077Z" fill="#00AFEF"/>
<path d="M15.4914 38.716C17.8154 38.716 19.6994 36.8321 19.6994 34.5081C19.6994 32.1841 17.8154 30.3001 15.4914 30.3001C13.1674 30.3001 11.2834 32.1841 11.2834 34.5081C11.2834 36.8321 13.1674 38.716 15.4914 38.716Z" fill="#00AFEF"/>
<path d="M24.9997 42.6548C27.3237 42.6548 29.2077 40.7708 29.2077 38.4468C29.2077 36.1229 27.3237 34.2389 24.9997 34.2389C22.6757 34.2389 20.7917 36.1229 20.7917 38.4468C20.7917 40.7708 22.6757 42.6548 24.9997 42.6548Z" fill="#00AFEF"/>
<path d="M34.508 38.716C36.832 38.716 38.716 36.8321 38.716 34.5081C38.716 32.1841 36.832 30.3001 34.508 30.3001C32.184 30.3001 30.3 32.1841 30.3 34.5081C30.3 36.8321 32.184 38.716 34.508 38.716Z" fill="#00AFEF"/>
<path d="M38.4468 29.2077C40.7708 29.2077 42.6548 27.3237 42.6548 24.9997C42.6548 22.6757 40.7708 20.7917 38.4468 20.7917C36.1229 20.7917 34.2389 22.6757 34.2389 24.9997C34.2389 27.3237 36.1229 29.2077 38.4468 29.2077Z" fill="#00AFEF"/>
<path d="M34.508 19.6994C36.832 19.6994 38.716 17.8154 38.716 15.4914C38.716 13.1674 36.832 11.2834 34.508 11.2834C32.184 11.2834 30.3 13.1674 30.3 15.4914C30.3 17.8154 32.184 19.6994 34.508 19.6994Z" fill="#00AFEF"/>
<path d="M11.5358 17.4944C14.8267 17.4944 17.4944 14.8267 17.4944 11.5358C17.4944 8.24493 14.8267 5.57715 11.5358 5.57715C8.24493 5.57715 5.57715 8.24493 5.57715 11.5358C5.57715 14.8267 8.24493 17.4944 11.5358 17.4944Z" fill="#FEFEFE"/>
<path d="M11.5358 44.4229C14.8267 44.4229 17.4944 41.7551 17.4944 38.4642C17.4944 35.1733 14.8267 32.5056 11.5358 32.5056C8.24493 32.5056 5.57715 35.1733 5.57715 38.4642C5.57715 41.7551 8.24493 44.4229 11.5358 44.4229Z" fill="#FEFEFE"/>
<path d="M38.4643 44.4229C41.7551 44.4229 44.4229 41.7551 44.4229 38.4642C44.4229 35.1733 41.7551 32.5056 38.4643 32.5056C35.1734 32.5056 32.5056 35.1733 32.5056 38.4642C32.5056 41.7551 35.1734 44.4229 38.4643 44.4229Z" fill="#FEFEFE"/>
<path d="M38.4643 17.4944C41.7551 17.4944 44.4229 14.8267 44.4229 11.5358C44.4229 8.24493 41.7551 5.57715 38.4643 5.57715C35.1734 5.57715 32.5056 8.24493 32.5056 11.5358C32.5056 14.8267 35.1734 17.4944 38.4643 17.4944Z" fill="#FEFEFE"/>
</g>
<defs>
<clipPath id="clip0_2007_6">
<rect width="50" height="50" fill="white"/>
</clipPath>
</defs>
</svg>
