<svg width="178" height="50" viewBox="0 0 178 50" fill="none" xmlns="http://www.w3.org/2000/svg">
<path fill-rule="evenodd" clip-rule="evenodd" d="M70.9232 32.6247H48.4123C48.3782 32.4846 48.413 32.4306 48.4905 32.2167L48.8214 31.4288C49.36 30.1233 51.1513 28.3851 52.431 27.7442C53.8776 27.0197 53.8462 26.9754 55.6283 26.4681C56.2148 26.3011 56.875 26.1994 57.5069 26.11C60.1954 25.7298 62.8722 26.0786 65.3116 27.0034C65.5908 27.1092 65.8254 27.2149 66.094 27.3392C66.6181 27.5818 67.0453 27.8696 67.5106 28.1591C67.9135 28.4098 68.7309 29.0757 69.0405 29.4013C69.7785 30.1773 70.6507 31.4543 70.9233 32.6247H70.9232ZM58.6225 45.8539C61.6524 45.8539 62.939 45.6537 65.6903 44.8019C67.2541 44.3178 69.071 43.2932 70.3401 42.3038C71.9327 41.0622 72.9569 39.5537 73.5548 37.6405C73.5981 37.5021 73.6806 37.2172 73.6945 37.0507C73.378 37.0244 71.3589 36.374 70.9232 36.2725C70.8916 36.6521 70.5114 37.6099 70.3239 37.9589C70.1688 38.2475 69.5939 39.0813 69.3801 39.3008C69.0011 39.69 68.6601 40.0991 68.2287 40.4348C67.24 41.2043 66.6132 41.6844 65.4091 42.1861C62.0583 43.582 57.8866 43.7215 54.4482 42.4425C53.8458 42.2184 53.3419 42.004 52.7726 41.6869L51.9831 41.2121C51.214 40.7001 50.305 39.8868 49.7458 39.1703C48.9929 38.2056 48.1208 36.4495 48.1208 35.2512H74.0835C74.2798 35.2512 74.1819 35.1858 74.1821 34.6662C74.1822 34.4272 74.1496 34.1561 74.1185 33.9029C74.0086 33.0093 73.819 32.1026 73.4864 31.2766C73.0852 30.2799 72.3796 28.9969 71.6407 28.2106C70.1077 26.5794 69.004 25.799 66.8252 24.8569C66.5959 24.7578 66.5025 24.7053 66.2375 24.618C64.4754 24.0375 63.4878 23.726 61.5434 23.5747C58.6343 23.3482 55.6491 23.5876 52.9549 24.6692C52.2958 24.9337 51.3954 25.3266 50.797 25.6718C50.4602 25.8661 50.1415 26.0714 49.8123 26.2918C49.4916 26.5064 49.2264 26.7205 48.9323 26.9678L47.3803 28.528C46.624 29.4543 46.0834 30.4112 45.671 31.5844C45.4382 32.2464 45.1533 33.3771 45.1555 34.2302C45.1562 34.5125 45.0825 34.6597 45.1257 34.9376C45.1655 35.1937 45.135 35.4222 45.1679 35.6758C45.3738 37.2592 45.7758 38.3906 46.6229 39.7163C46.7348 39.8915 46.8298 40.0043 46.9441 40.1732C47.1632 40.4967 47.409 40.7679 47.6716 41.0504C48.046 41.453 47.8451 41.3275 48.4467 41.8313C48.6065 41.9651 48.6838 42.0593 48.8571 42.1989C48.9425 42.2676 48.9735 42.3132 49.0588 42.3862C49.4999 42.7638 50.6782 43.5162 51.1858 43.809C51.6802 44.0942 52.2348 44.3373 52.7676 44.5611C52.9839 44.652 53.1227 44.72 53.3534 44.802C54.9007 45.3523 56.9081 45.8538 58.6224 45.8538L58.6225 45.8539Z" fill="#FF6940"/>
<path fill-rule="evenodd" clip-rule="evenodd" d="M121.005 25.8641C123.811 25.8641 126.671 26.5895 128.874 28.2542C129.123 28.4418 129.324 28.5755 129.549 28.7951C129.68 28.9228 129.758 28.9538 129.891 29.0854C130.008 29.201 130.089 29.2856 130.206 29.4025C131.652 30.8496 132.527 32.4677 132.527 34.8134C132.527 36.6013 131.518 38.4549 130.426 39.5687L129.769 40.1766C129.651 40.2902 129.554 40.3548 129.427 40.4662C129.024 40.8179 128.425 41.2113 127.96 41.4792L126.709 42.1246C123.12 43.9315 117.317 43.6167 113.866 41.5165C112.986 40.9808 113.147 41.0866 112.329 40.4769C111.731 40.0311 110.894 39.0731 110.483 38.4811C109.824 37.5311 109.442 36.3942 109.265 35.2248C109.03 33.6696 109.519 31.9796 110.406 30.7281C110.938 29.9765 110.989 29.9755 111.609 29.354C112.883 28.0771 114.826 27.1089 116.525 26.5387C117.781 26.1171 119.316 25.8642 121.005 25.8642L121.005 25.8641ZM132.528 41.4279V45.1729L135.445 45.1242C135.445 44.4796 135.494 43.9735 135.493 43.3733C135.493 42.7841 135.462 42.1029 135.493 41.5249L135.549 39.7813C135.62 39.1508 135.591 37.0665 135.591 36.2724C135.591 35.5443 135.437 33.9085 135.295 33.2118C135.204 32.7597 135.121 32.3056 134.977 31.8761C134.903 31.6527 134.841 31.4531 134.77 31.2566C134.298 29.941 133.104 28.0928 132.042 27.2745C131.885 27.1542 131.723 27.0125 131.566 26.8745C130.158 25.6359 127.216 24.2411 125.393 23.8573C125.178 23.8121 124.939 23.7538 124.681 23.6942C121.606 22.985 117.929 23.3181 115.006 24.3375C114.737 24.4311 114.541 24.5161 114.267 24.62C113.766 24.8098 112.64 25.3618 112.147 25.66C111.401 26.1111 110.987 26.374 110.301 26.9267C110.055 27.1254 108.481 28.7128 108.246 29.0538C107.648 29.9238 107.567 30.0061 107.098 31.0667C106.762 31.8276 106.575 32.6512 106.453 33.5337C106.372 34.1209 106.365 34.9081 106.426 35.4871C106.618 37.314 107.339 38.9075 108.419 40.3514C109.55 41.8637 111.668 43.4922 113.441 44.2283C115.478 45.0745 116.093 45.2588 118.31 45.6314C120.006 45.9164 122.433 45.8812 124.089 45.5831C124.692 45.4746 125.234 45.3494 125.786 45.1898C126.844 44.8842 127.835 44.5297 128.817 44.0385L131.959 41.9292C132.086 41.8229 132.127 41.8075 132.249 41.6838C132.354 41.5773 132.411 41.5062 132.528 41.4278L132.528 41.4279Z" fill="#7351C4"/>
<path fill-rule="evenodd" clip-rule="evenodd" d="M75.7166 45.0757L78.6824 45.1729L78.557 40.4347C78.5021 40.0716 78.5365 37.8144 78.5365 37.2451C78.5365 35.4121 78.7103 33.9521 79.1789 32.2459C79.3616 31.5805 79.7361 30.8755 80.1201 30.3664C80.6409 29.676 81.0454 29.2539 81.6817 28.7187C81.7619 28.6513 81.7749 28.6282 81.8627 28.5592C84.0422 26.8457 86.9737 25.8642 89.8648 25.8642C91.6569 25.8642 92.1503 25.9175 93.8236 26.2814C94.5127 26.4313 95.1888 26.6489 95.817 26.9136L97.239 27.5824C97.4763 27.7097 97.6434 27.8367 97.8715 27.9709L98.7747 28.6238C98.8935 28.7299 98.9493 28.7561 99.0661 28.8674C99.4693 29.2516 99.7156 29.4259 100.103 29.9213C100.624 30.5866 100.972 31.0948 101.305 31.8802C102.086 33.7216 101.874 37.0644 101.874 39.677C101.874 41.0713 101.874 42.4655 101.874 43.8597C101.874 44.1861 101.854 44.5698 101.868 44.8873C101.882 45.2182 101.943 45.1246 102.7 45.1243C103.409 45.124 104.036 45.1729 104.791 45.1729V35.2997C104.791 32.9604 104.454 31.5389 103.566 30.0567C103.456 29.8735 103.392 29.747 103.274 29.5701C101.546 26.9844 99.4242 25.378 96.301 24.3381C95.8763 24.1967 95.5068 24.0762 95.0672 23.9673C93.9414 23.6882 93.4218 23.6088 92.3 23.4769C89.1682 23.1085 85.3317 23.664 82.5065 25.0205C81.7969 25.3613 81.7086 25.4281 81.062 25.8127L80.0808 26.4848C79.3633 27.077 78.6423 27.6697 78.0777 28.4206C77.5998 29.0562 77.1136 29.7289 76.7527 30.451C76.6817 30.5929 76.6506 30.6916 76.591 30.8242C76.5221 30.9771 76.4828 31.0404 76.4153 31.2322C76.0366 32.3073 75.8268 33.3268 75.765 34.4726C75.7551 34.6546 75.7648 34.8709 75.7653 35.0566C75.7662 35.4866 75.7141 35.7152 75.7162 36.1262C75.7316 39.1078 75.7166 42.0936 75.7166 45.0757Z" fill="#7351C4"/>
<path fill-rule="evenodd" clip-rule="evenodd" d="M142.929 28.15C142.929 28.3231 142.215 28.6043 142.054 28.6851C140.544 29.4396 138.995 30.5295 137.61 31.4861C136.972 31.9265 136.87 31.9898 136.492 32.5565C136.391 32.7076 136.265 32.8422 136.22 33.0137C136.381 33.2335 136.729 33.3169 137.15 33.8821C137.3 34.0835 137.936 34.8133 138.067 34.8133C138.527 34.8133 141.403 32.6916 142.276 32.1657C142.505 32.0279 142.705 31.9167 142.929 31.7979V45.0757C143.576 45.0757 144.607 45.1749 145.313 45.1718C145.65 45.1703 145.785 45.2216 146.138 45.2216V30.1928C146.138 30.0299 146.558 29.886 146.819 29.755C148.14 29.0922 150.566 28.3224 152.042 28.0248L153.042 27.8582C152.862 27.5188 151.292 25.2804 151.243 25.2804C150.495 25.2804 149.227 25.6086 148.55 25.8453C148.13 25.9924 147.744 26.1453 147.353 26.3018C146.999 26.444 146.523 26.65 146.138 26.7396V13.4131H142.929V28.15H142.929Z" fill="#1179DB"/>
<path fill-rule="evenodd" clip-rule="evenodd" d="M15 41.2764C15.0089 41.5265 15.0511 41.6561 15.0493 41.9624C15.0428 43.0831 15.0972 44.1064 15.0972 45.173H17.9658C17.9658 42.2602 17.8685 39.4771 17.8685 36.5643C17.8685 36.1679 17.8828 35.7431 17.9377 35.3689C17.9668 35.1706 17.9567 34.9843 17.9852 34.7842C18.1067 33.9317 18.2603 32.9395 18.5562 32.1452C18.7809 31.5415 19.0499 30.9737 19.3953 30.4554C19.9402 29.6378 19.9844 29.6479 20.58 29.0628C22.3667 27.3074 25.183 26.3287 27.7726 25.9957C30.4768 25.648 33.9066 26.1082 36.3109 27.4536C37.4663 28.1001 38.3082 28.7662 39.2013 29.669C40.1833 30.6619 40.2429 31.4352 40.9558 32.3886C41.052 32.5173 41.176 32.6532 41.2546 32.7706C41.7247 32.7315 43.5006 32.243 43.8313 32.2356C43.6924 31.6392 42.7787 29.9636 42.4123 29.4238C41.9648 28.7647 41.8265 28.6102 41.3404 28.0642C41.2546 27.9678 41.2546 27.9436 41.1692 27.8465C41.0042 27.6591 40.6514 27.3009 40.4562 27.1493C40.0238 26.8133 39.7224 26.5082 39.2612 26.2047C38.2794 25.5587 38.2256 25.4832 37.0254 24.8908C33.8859 23.3415 29.7806 23.0131 26.2518 23.6475C24.985 23.8753 23.2743 24.3803 22.1478 24.9407C21.4747 25.2756 21.0996 25.4082 20.4066 25.8739L19.3484 26.6148C19.2406 26.6996 19.2188 26.7245 19.1056 26.8096L17.9318 27.8727C17.1774 28.7755 17.0743 28.7939 16.389 29.9285C15.4585 31.4688 15.4112 32.3904 15.1663 34.1041C15.0713 34.7691 15.0003 36.9127 15.0003 37.537V41.2763L15 41.2764Z" fill="#FF6940"/>
<path fill-rule="evenodd" clip-rule="evenodd" d="M153.061 24.3078C153.105 24.499 153.282 24.7208 153.384 24.9082C153.657 25.4102 154.176 26.2533 154.811 26.2533C155.193 26.2533 155.769 26.2274 156.075 26.1561C156.075 26.4551 156.032 26.5336 156.025 26.7868C155.985 28.1324 156.021 30.3356 156.027 31.7009C156.028 32.1736 155.978 32.5072 155.978 33.0139C155.978 35.2568 155.906 37.5383 156.027 39.7742C156.072 40.6116 155.981 41.5335 156.068 42.3106C156.091 42.5126 156.067 42.733 156.073 42.9375C156.081 43.1774 156.116 43.2438 156.124 43.5196C156.134 43.8931 156.19 44.2914 156.456 44.5006C157.245 45.1215 157.782 45.1732 158.798 45.1732C159.558 45.1732 160.765 44.9386 161.491 44.7551C161.932 44.6437 162.292 44.5509 162.719 44.4268C162.94 44.3625 163.133 44.3093 163.329 44.2593C163.557 44.2013 163.75 44.1088 164 44.1032C163.956 43.9127 163.444 43.1052 163.31 42.8968C163.18 42.6954 163.086 42.5387 162.958 42.3247C162.827 42.1065 162.7 41.9274 162.59 41.72L159.284 42.3523C159.361 41.4271 159.333 40.7746 159.333 39.8232C159.333 38.9476 159.381 38.1623 159.381 37.2454L159.346 27.6507C159.318 27.4497 159.333 27.2358 159.334 27.0306C159.335 26.7327 159.289 26.6531 159.283 26.4007C159.263 25.5957 159.187 24.8152 158.987 24.1677C158.816 23.6161 158.823 23.5547 158.404 23.4861C157.299 23.305 155.709 23.3668 154.668 23.5817C154.302 23.6572 154.097 23.7355 153.79 23.8706C153.653 23.9313 153.549 23.9904 153.421 24.0852C153.29 24.1825 153.225 24.2643 153.061 24.3081L153.061 24.3078Z" fill="#1179DB"/>
<path fill-rule="evenodd" clip-rule="evenodd" d="M155.443 20.2709C155.443 20.9625 155.627 21.3555 156.063 21.7419C157.101 22.6604 159.118 22.4715 159.779 21.2524C160.171 20.5284 159.813 19.6442 159.247 19.14C158.712 18.6632 157.799 18.441 156.943 18.7076C156.249 18.9238 155.443 19.4947 155.443 20.2708V20.2709Z" fill="#1179DB"/>
<path fill-rule="evenodd" clip-rule="evenodd" d="M48.2322 20.0031H50.9406V12.1506C51.0649 12.2418 51.1788 12.4648 51.2641 12.6076C51.3661 12.7786 51.4809 12.9277 51.5922 13.1058C51.8058 13.4476 51.9938 13.7559 52.2168 14.0882L53.1633 15.5752C53.8202 16.6532 54.7633 17.9888 55.3911 19.0409C55.4796 19.1891 55.9525 20.0031 56.0818 20.0031H58.2394V7.32889H55.8983V15.0895L55.2095 14.1253C55.0951 13.9525 54.9935 13.8177 54.8696 13.6388L50.8158 7.77519C50.7344 7.66678 50.5664 7.32889 50.4356 7.32889H48.2322V20.0031ZM93.5399 9.12003V7.32889C90.8483 7.32889 91.1981 7.09748 91.1988 8.01765V17.2017C91.0715 18.0913 88.4019 18.2727 87.1753 17.8746L86.6168 17.6526C86.6093 17.6468 86.5999 17.637 86.5929 17.6306L86.5078 17.532C86.2017 17.208 86.2386 17.2847 86.2409 16.6969L86.241 7.3288H83.7163C83.7163 8.53261 83.6285 16.9921 83.7968 17.7182C83.9232 18.2633 84.227 18.7375 84.5942 19.0329L85.2038 19.4793C85.7967 19.8404 86.9916 20.0798 87.7124 20.1384C89.833 20.3108 93.1709 19.984 93.5293 17.5586C93.5334 17.531 93.5369 17.4596 93.5399 17.3509V9.11994V9.12003ZM36.1135 17.2019C36.1135 18.4716 37.1599 19.3584 38.1398 19.721C39.5244 20.2334 41.9833 20.2855 43.3485 19.9392C44.2537 19.7097 45.0396 19.3684 45.6234 18.6332C45.8406 18.3597 46.1206 17.8129 46.1206 17.3396V7.3288H43.5959V17.1559C43.5959 17.9887 41.5777 18.0743 40.9334 18.0743C40.3262 18.0743 39.5761 17.8588 39.0976 17.5688C38.9253 17.4643 38.8218 17.3419 38.8218 17.0641V7.3288H36.1134V17.2018L36.1135 17.2019ZM31.9361 16.3294C31.9361 16.9914 31.8058 17.2676 31.0798 17.631C29.9198 18.2117 27.6121 18.0409 27.1822 17.2736C27.1314 17.1829 27.0733 16.5117 27.0702 16.3753H24.9127C24.6818 16.3753 24.6223 16.0874 24.5936 17.0668C24.5766 17.6435 24.8198 18.2796 25.1809 18.7245C26.6047 20.4789 30.4557 20.5705 32.2733 19.6975C33.8331 18.9486 34.8096 17.4672 34.3962 15.6135C34.0702 14.1512 32.9024 13.3126 31.5956 12.8127C30.2611 12.3022 28.6986 12.1835 27.8347 11.7532C27.2354 11.4548 26.8993 10.9166 27.2678 10.19C27.7488 9.24161 29.683 9.20671 30.6238 9.4223C31.5669 9.63843 31.3852 9.84996 31.3852 10.6352C31.7058 10.6352 31.8331 10.6811 32.1656 10.6811H33.91C33.91 9.63507 34.0231 9.2424 33.406 8.43003C32.0405 6.63262 27.379 6.4627 25.543 8.37259C25.2794 8.64686 25.1666 8.84046 25.0044 9.16562C24.1316 10.916 24.7553 12.8499 26.4421 13.6972C27.0499 14.0025 27.7229 14.2094 28.4737 14.3743C29.3939 14.5764 31.936 15.0476 31.936 16.3294H31.9361ZM60.3051 17.0182C60.3051 19.0073 62.7879 20.0031 64.3906 20.0031H69.5318V17.8907H65.0791C64.2747 17.8907 63.5411 17.8026 63.0134 17.5233C63.0134 17.232 62.9675 17.1398 62.9675 16.8344V15.2272H69.5318V12.7015H62.8298V9.67077H69.5318V7.3288H60.3051V17.0181V17.0182ZM76.8766 17.8908H73.9846V9.67095H77.4274C77.7769 9.67095 78.9882 9.81223 78.9882 10.3139C78.9882 10.8793 79.0244 17.0302 78.9054 17.257C78.6959 17.6562 77.45 17.8909 76.8766 17.8909V17.8908ZM71.4599 20.0032H77.4274C78.3208 20.0032 79.4286 19.6808 80.1562 19.2429C80.8583 18.8204 81.467 18.1179 81.467 17.0183V10.1761C81.467 8.10981 79.1388 7.32898 77.4734 7.32898H71.4599V20.0032Z" fill="#395576"/>
<path fill-rule="evenodd" clip-rule="evenodd" d="M108.622 7.83047V4H100.904V7.83047H108.622ZM97.8235 6.87018V10.5783L100.554 7.93182V4.22373L97.8235 6.87009V6.87018ZM98.07 10.8249H101.701L103.548 9.03473H107.505L108.402 8.18002H100.799L98.07 10.8249Z" fill="#FF6940"/>
<path fill-rule="evenodd" clip-rule="evenodd" d="M111.525 13.215V9.38452H103.807V13.215H111.525ZM100.973 16.2095H104.604L106.451 14.4193H110.408L111.305 13.5646H103.702L100.973 16.2095ZM100.727 12.2548V15.9629L103.457 13.3164V9.60834L100.727 12.2547V12.2548Z" fill="#7351C4"/>
<path fill-rule="evenodd" clip-rule="evenodd" d="M103.629 17.6392V21.3473L106.36 18.701V14.9929L103.629 17.6392ZM114.428 18.5995V14.769H106.71V18.5995H114.428ZM103.876 21.594H111.432L114.208 18.9492H106.605L103.876 21.594Z" fill="#1179DB"/>
</svg>
