<svg width="50" height="50" viewBox="0 0 50 50" fill="none" xmlns="http://www.w3.org/2000/svg">
<g clip-path="url(#clip0_13_34)">
<path fill-rule="evenodd" clip-rule="evenodd" d="M21.6112 39.4534H23.7003V37.3643H25.7894V39.4534H27.8784V41.5424H25.7894V43.6315H23.7003V41.5424H21.6112V39.4534ZM25.7913 41.5424V39.4534H23.7022V41.5424H25.7913Z" fill="#FFCB57"/>
<path fill-rule="evenodd" clip-rule="evenodd" d="M39.3807 22.2381H41.4698V20.1491H43.5589V22.2381H45.6479V24.3272H43.5589V26.4163H41.4698V24.3272H39.3807V22.2381ZM43.5608 24.3272V22.2381H41.4717V24.3272H43.5608Z" fill="#FFCB57"/>
<path fill-rule="evenodd" clip-rule="evenodd" d="M3.84555 41.5749H5.93462V39.4859H8.02368V41.5749H10.1128V43.664H8.02368V45.7531H5.93462V43.664H3.84555V41.5749ZM8.0256 43.664V41.5749H5.93653V43.664H8.0256Z" fill="#FFCB57"/>
<path fill-rule="evenodd" clip-rule="evenodd" d="M5.151 10.3651H7.24007V8.27599H9.32914V10.3651H11.4182V12.4541H9.32914V14.5432H7.24007V12.4541H5.151V10.3651ZM9.33105 12.4541V10.3651H7.24198V12.4541H9.33105Z" fill="#FFCB57"/>
<path fill-rule="evenodd" clip-rule="evenodd" d="M23.1804 4.67508H25.2695V2.58601H27.3586V4.67508H29.4476V6.76414H27.3586V8.85321H25.2695V6.76414H23.1804V4.67508ZM27.3605 6.76414V4.67508H25.2714V6.76414H27.3605Z" fill="#FFCB57"/>
<path fill-rule="evenodd" clip-rule="evenodd" d="M40.8601 43.0256H42.9492V40.9365H45.0382V43.0256H47.1273V45.1147H45.0382V47.2037H42.9492V45.1147H40.8601V43.0256ZM45.0401 45.1147V43.0256H42.9511V45.1147H45.0401Z" fill="#FFCB57"/>
<path d="M8.37537 33.9411H37.3261V35.7932L42.844 32.1655L37.3261 28.5378V30.3899H31.6819L32.2343 29.5891C32.8039 28.7615 33.255 27.8459 33.5589 26.8674C33.8532 25.9232 34.0099 24.9159 34.0099 23.8685C34.0099 21.0799 32.8803 18.555 31.0531 16.7297C29.2259 14.9025 26.7011 13.7729 23.9144 13.7729C21.1258 13.7729 18.6009 14.9025 16.7756 16.7297C14.9484 18.557 13.8188 21.0818 13.8188 23.8685V24.3807H12.672L15.6059 27.5765L18.5397 24.3807H17.393V23.8685C17.393 22.068 18.1231 20.4358 19.3043 19.2565C20.4855 18.0753 22.1158 17.3452 23.9163 17.3452C25.7167 17.3452 27.349 18.0753 28.5283 19.2565C29.7095 20.4377 30.4396 22.068 30.4396 23.8685C30.4396 25.669 29.7095 27.3012 28.5283 28.4805C27.3471 29.6617 25.7167 30.3918 23.9163 30.3918H8.37728V33.9411H8.37537ZM36.3035 34.9637H7.35281V29.3674H23.9144C25.4339 29.3674 26.8081 28.7519 27.8039 27.7561C28.7997 26.7603 29.4151 25.3861 29.4151 23.8666C29.4151 22.3471 28.7997 20.9729 27.8039 19.9771C26.8081 18.9813 25.4339 18.3658 23.9144 18.3658C22.3949 18.3658 21.0206 18.9813 20.0248 19.9771C19.1418 20.8601 18.5589 22.0394 18.4384 23.3544H20.8639L15.6059 29.0826L10.3478 23.3544H12.8077C12.9377 20.4874 14.1533 17.9033 16.0531 16.0034C18.0657 13.9908 20.8448 12.7466 23.9163 12.7466C26.9858 12.7466 29.7668 13.9908 31.7794 16.0034C33.792 18.0161 35.0363 20.7951 35.0363 23.8666C35.0363 25.0115 34.8605 26.12 34.5375 27.1655C34.2966 27.9377 33.9755 28.6755 33.5818 29.3654H36.3092V26.6456L44.7056 32.1636L36.3092 37.6816V34.9618L36.3035 34.9637Z" fill="#00A550"/>
<path fill-rule="evenodd" clip-rule="evenodd" d="M36.0875 17.3089L36.7221 17.7599C36.919 17.305 37.0279 16.8043 37.0279 16.2768C37.0279 15.2427 36.6093 14.3062 35.9308 13.6277C35.2523 12.9511 34.3158 12.5306 33.2817 12.5306C32.2477 12.5306 31.3112 12.9492 30.6326 13.6277C30.258 14.0023 29.9637 14.4553 29.7745 14.9599C29.4859 14.7726 29.1877 14.5967 28.8819 14.4381C29.1227 13.8609 29.4744 13.341 29.9102 12.9052C30.7741 12.0432 31.9648 11.508 33.2817 11.508C34.5986 11.508 35.7894 12.0413 36.6533 12.9052C37.5153 13.7691 38.0505 14.9599 38.0505 16.2768C38.0505 17.0241 37.8784 17.7313 37.5707 18.362L38.1575 18.7787L37.0031 19.3081L35.8486 19.8375L35.9671 18.5742L36.0856 17.3108L36.0875 17.3089Z" fill="#00A859"/>
</g>
<defs>
<clipPath id="clip0_13_34">
<rect width="50" height="50" fill="white"/>
</clipPath>
</defs>
</svg>
