<svg width="50" height="50" viewBox="0 0 50 50" fill="none" xmlns="http://www.w3.org/2000/svg">
<g clip-path="url(#clip0_13_55)">
<path fill-rule="evenodd" clip-rule="evenodd" d="M1.57629 15.5467H3.66609V13.4569H5.75589V15.5467H7.84569V17.6365H5.75589V19.7263H3.66609V17.6365H1.57629V15.5467ZM5.75589 17.6365V15.5467H3.66609V17.6365H5.75589Z" fill="#FFCB57"/>
<path fill-rule="evenodd" clip-rule="evenodd" d="M35.1569 9.99724H37.2467V7.90744H39.3365V9.99724H41.4263V12.087H39.3365V14.1768H37.2467V12.087H35.1569V9.99724ZM39.3365 12.087V9.99724H37.2467V12.087H39.3365Z" fill="#FFCB57"/>
<path fill-rule="evenodd" clip-rule="evenodd" d="M17.6585 5.10506H19.7483V3.01526H21.8381V5.10506H23.9279V7.19486H21.8381V9.28466H19.7483V7.19486H17.6585V5.10506ZM21.8381 7.19486V5.10506H19.7483V7.19486H21.8381Z" fill="#FFCB57"/>
<path fill-rule="evenodd" clip-rule="evenodd" d="M8.2422 38.9692H10.332V36.8794H12.4218V38.9692H14.5116V41.059H12.4218V43.1488H10.332V41.059H8.2422V38.9692ZM12.4218 41.059V38.9692H10.332V41.059H12.4218Z" fill="#FFCB57"/>
<path d="M15.7718 20.8712C16.4291 18.5506 17.5317 16.8021 19.0796 15.6256C20.6282 14.449 22.6027 13.8608 25.0004 13.8608C29.6025 13.8608 31.6939 15.9839 33.5002 17.8177C34.5126 18.8456 35.4275 19.7743 36.6365 20.0765C37.6229 20.3227 38.5492 20.287 39.4137 19.9677C40.2928 19.6435 41.1224 19.0251 41.9016 18.1127L42.1023 17.873C42.4265 17.4789 42.5939 17.2766 42.9993 17.5837L43.0001 17.5821C43.3008 17.8096 43.2342 18.0331 43.092 18.4897L43.0066 18.7627C42.3282 20.9996 41.2215 22.6839 39.6867 23.8149C38.1527 24.946 36.2091 25.5115 33.8561 25.5115C29.2539 25.5115 27.1625 23.3884 25.3555 21.5545C24.3431 20.5267 23.4282 19.598 22.2192 19.2957C21.2027 19.0414 20.2504 19.0877 19.364 19.433C18.458 19.7865 17.6065 20.4536 16.8086 21.4334L16.8102 21.4343L16.694 21.5781C16.4113 21.9331 16.2699 22.1103 15.8677 21.83L15.8661 21.8283C15.5565 21.6098 15.6101 21.4261 15.7182 21.0605L15.7726 20.8704L15.7718 20.8712ZM19.6947 16.4373C18.7343 17.1669 17.9632 18.1622 17.3839 19.4208C17.8982 19.013 18.4344 18.6993 18.9918 18.4824C20.0814 18.0574 21.2401 17.9981 22.467 18.3044C23.9523 18.6758 24.9638 19.702 26.0835 20.8387C27.75 22.5303 29.6789 24.4877 33.8561 24.4877C35.9873 24.4877 37.7301 23.9888 39.083 22.991C40.0808 22.2557 40.8778 21.2417 41.4734 19.949C40.9282 20.3812 40.3595 20.7071 39.7655 20.9256C38.7044 21.3164 37.579 21.3636 36.3887 21.0662C34.9034 20.6949 33.8918 19.6687 32.7722 18.5319C31.1057 16.8403 29.1776 14.8829 24.9996 14.8829C22.8261 14.8829 21.0573 15.4005 19.6947 16.4365V16.4373ZM6.99823 31.2178C7.67912 28.9874 8.78577 27.308 10.319 26.1802C11.8522 25.0524 13.7941 24.4885 16.1431 24.4885C20.7452 24.4885 22.8367 26.6116 24.6437 28.4455C25.6561 29.4733 26.571 30.402 27.78 30.7043C28.7494 30.9464 29.6602 30.9155 30.5125 30.6117C31.3771 30.3037 32.1945 29.7114 32.9623 28.8363C33.046 28.7404 33.15 28.6161 33.232 28.517H33.2345C33.5457 28.1424 33.7106 27.9369 34.1128 28.2042C34.4557 28.4317 34.3744 28.6876 34.1989 29.245L34.1144 29.5107C33.4262 31.7086 32.3171 33.3629 30.788 34.4744C29.2604 35.5843 27.3307 36.1392 24.9996 36.1392C20.3975 36.1392 18.3061 34.0161 16.499 32.1823C15.4866 31.1544 14.5717 30.2257 13.3627 29.9235C12.3804 29.6781 11.4581 29.713 10.5977 30.0267C9.72342 30.346 8.8979 30.957 8.12194 31.8589L8.11951 31.8605C8.05613 31.9336 7.96269 32.0482 7.88875 32.1392C7.59299 32.5008 7.42968 32.6933 7.03398 32.4382C6.69028 32.2188 6.7626 31.9767 6.92348 31.4583L6.99742 31.2178H6.99823ZM10.9219 27.0041C9.92086 27.7402 9.12215 28.7559 8.52577 30.0502C9.07584 29.6139 9.65029 29.2864 10.2499 29.0679C11.3062 28.6827 12.4267 28.6372 13.6105 28.933C15.0958 29.3043 16.1074 30.3313 17.227 31.4672C18.8935 33.1589 20.8224 35.1163 24.9996 35.1163C27.1113 35.1163 28.8412 34.6263 30.1883 33.6472C31.2032 32.9095 32.0124 31.8865 32.6145 30.5792C32.0523 31.0244 31.4648 31.3567 30.8514 31.5753C29.8073 31.9474 28.6998 31.9873 27.5314 31.6956C26.0461 31.3242 25.0345 30.298 23.9149 29.1613C22.2484 27.4697 20.3195 25.5123 16.1423 25.5123C14.0143 25.5123 12.2739 26.0096 10.9211 27.0041H10.9219Z" fill="#53CCD9"/>
<path fill-rule="evenodd" clip-rule="evenodd" d="M42.4704 30.1957H44.5602V28.1059H46.65V30.1957H48.7398V32.2855H46.65V34.3753H44.5602V32.2855H42.4704V30.1957ZM46.65 32.2855V30.1957H44.5602V32.2855H46.65Z" fill="#FFCB57"/>
<path fill-rule="evenodd" clip-rule="evenodd" d="M28.2521 42.81H30.3419V40.7202H32.4317V42.81H34.5215V44.8998H32.4317V46.9896H30.3419V44.8998H28.2521V42.81ZM32.4317 44.8998V42.81H30.3419V44.8998H32.4317Z" fill="#FFCB57"/>
</g>
<defs>
<clipPath id="clip0_13_55">
<rect width="50" height="50" fill="white"/>
</clipPath>
</defs>
</svg>
