<svg width="64" height="64" viewBox="0 0 64 64" fill="none" xmlns="http://www.w3.org/2000/svg">
<path d="M29 29H15V41H29V29Z" fill="#FFCB57"/>
<path d="M49 29H35V41H49V29Z" fill="#FFCB57"/>
<path d="M39 10H25V16H39V10Z" fill="#FFCB57"/>
<path d="M32 59C29.794 59 28 57.206 28 55C28 52.794 29.794 51 32 51C34.206 51 36 52.794 36 55C36 57.206 34.206 59 32 59ZM32 53C30.897 53 30 53.897 30 55C30 56.103 30.897 57 32 57C33.103 57 34 56.103 34 55C34 53.897 33.103 53 32 53Z" fill="#E56565"/>
<path d="M33 46H31V52H33V46Z" fill="#E56565"/>
<path d="M1 1V7H63V1H1ZM61 5H3V3H61V5Z" fill="#395576"/>
<path d="M59 61H5V9H3V63H61V9H59V61Z" fill="#395576"/>
<path d="M14 34H7V56H11V54H9V36H14V42H30V28H14V34ZM16 30H28V40H16V30Z" fill="#395576"/>
<path d="M34 28V42H50V36H55V54H53V56H57V34H50V28H34ZM48 40H36V30H48V40Z" fill="#395576"/>
<path d="M46 32H38V34H46V32Z" fill="#3F3A34"/>
<path d="M42 36H38V38H42V36Z" fill="#3F3A34"/>
<path d="M35 24H41V26H43V22H35V24Z" fill="#395576"/>
<path d="M21 26H23V24H29V22H21V26Z" fill="#395576"/>
<path d="M24 17H31V24H33V17H40V9H24V17ZM26 11H38V15H26V11Z" fill="#395576"/>
<path d="M43 44H41V46H35V48H43V44Z" fill="#395576"/>
<path d="M29 46H23V44H21V48H29V46Z" fill="#395576"/>
<path d="M46 36H44V38H46V36Z" fill="#3F3A34"/>
<path d="M26 32H18V34H26V32Z" fill="#3F3A34"/>
<path d="M26 36H22V38H26V36Z" fill="#3F3A34"/>
<path d="M20 36H18V38H20V36Z" fill="#3F3A34"/>
<path d="M16 58C14.346 58 13 56.654 13 55C13 53.346 14.346 52 16 52C17.654 52 19 53.346 19 55C19 56.654 17.654 58 16 58ZM16 54C15.449 54 15 54.449 15 55C15 55.551 15.449 56 16 56C16.551 56 17 55.551 17 55C17 54.449 16.551 54 16 54Z" fill="#E56565"/>
<path d="M48 58C46.346 58 45 56.654 45 55C45 53.346 46.346 52 48 52C49.654 52 51 53.346 51 55C51 56.654 49.654 58 48 58ZM48 54C47.449 54 47 54.449 47 55C47 55.551 47.449 56 48 56C48.551 56 49 55.551 49 55C49 54.449 48.551 54 48 54Z" fill="#E56565"/>
</svg>
