<svg width="50" height="50" viewBox="0 0 50 50" fill="none" xmlns="http://www.w3.org/2000/svg">
<g clip-path="url(#clip0_17_20)">
<path d="M44.5736 0H5.42636C2.42946 0 0 2.42946 0 5.42636V44.5736C0 47.5705 2.42946 50 5.42636 50H44.5736C47.5705 50 50 47.5705 50 44.5736V5.42636C50 2.42946 47.5705 0 44.5736 0Z" fill="#060606"/>
<path d="M11.0683 11L21.8788 26.4437L11 39H13.4484L22.9727 28.0067L30.6681 39H39L27.5813 22.6877L37.7071 11H35.2588L26.4873 21.1246L19.4002 11H11.0683ZM14.6688 12.9269H18.4965L35.3989 37.0728H31.5712L14.6688 12.9269Z" fill="white"/>
</g>
<defs>
<clipPath id="clip0_17_20">
<rect width="50" height="50" fill="white"/>
</clipPath>
</defs>
</svg>
