<svg width="50" height="47" viewBox="0 0 50 47" fill="none" xmlns="http://www.w3.org/2000/svg">
<g clip-path="url(#clip0_1_2)">
<path fill-rule="evenodd" clip-rule="evenodd" d="M4.59951 0.209924C4.46417 0.690637 4.41249 1.27115 4.41396 1.86705C4.41666 2.96541 4.52123 3.94514 4.91113 4.97049C5.18056 5.6796 5.55658 6.33786 5.88795 7.00437C5.26521 6.8055 4.71547 6.37635 4.17636 6.01507C3.05003 5.26025 1.66043 4.30759 1.22241 4.2219C1.02149 9.19139 3.7051 10.4771 4.07575 11.0753C3.20676 11.0231 0.971278 9.96976 0.0142886 9.85904C-0.0289033 10.966 0.675256 12.3521 1.36683 13.2097C2.18397 14.2225 2.54805 14.1804 3.30838 14.8111C2.78509 15.1829 0.598897 15.2576 3.05176e-05 15.638C0.97203 17.4786 1.84592 17.5314 3.45967 18.3499C3.26591 18.7217 0.855543 19.4884 0.572303 19.898C0.808173 20.3533 1.70911 20.8312 2.56083 21.1126C3.42316 21.3979 4.33822 21.2502 4.76913 21.3845C4.90339 21.4265 5.00809 21.5572 5.40777 21.9294C6.43039 22.8815 7.44249 23.8392 8.45543 24.8042C10.1514 26.4211 11.9615 28.2667 13.6785 29.7326C14.4439 30.3861 17.7767 31.1037 18.3047 31.5859C18.6429 31.896 21.229 36.0065 21.2207 36.0434L17.0146 40.569C16.8845 40.7079 16.4738 41.0561 16.5022 41.2535C16.5687 41.7077 18.2388 41.7661 18.6919 41.7371C19.5841 41.6802 20.2124 41.3982 20.8584 41.3733C20.6994 41.6384 20.319 42.337 19.978 42.8931C19.8495 43.1028 19.1746 43.9394 19.3095 44.1864C19.439 44.4232 20.4223 44.581 20.7092 44.5971C21.3793 44.6345 21.8825 44.4657 22.5358 44.416L22.1207 46.9987C23.6285 47.0404 24.4269 46.0806 25 45.4778C25.573 46.0806 26.3715 47.0404 27.8793 46.9987L27.4642 44.416C28.1174 44.4657 28.6207 44.6345 29.2908 44.5971C29.5777 44.581 30.561 44.4232 30.6905 44.1864C30.8254 43.9394 30.1505 43.1028 30.022 42.8931C29.681 42.337 29.3006 41.6384 29.1416 41.3733C29.7876 41.3982 30.4159 41.6802 31.3081 41.7371C31.7612 41.7661 33.4313 41.7077 33.4978 41.2535C33.5262 41.0561 33.1155 40.7079 32.9854 40.569L28.7792 36.0434C28.7709 36.0065 31.3571 31.896 31.6953 31.5859C32.2233 31.1037 35.5561 30.3861 36.3215 29.7326C38.0385 28.2667 39.8486 26.4211 41.5446 24.8042C42.5575 23.8392 43.5696 22.8815 44.5922 21.9294C44.9919 21.5572 45.0966 21.4265 45.2309 21.3845C45.6618 21.2502 46.5768 21.3979 47.4392 21.1126C48.2909 20.8312 49.1918 20.3533 49.4277 19.898C49.1445 19.4884 46.7341 18.7217 46.5403 18.3499C48.1541 17.5314 49.028 17.4786 50 15.638C49.4011 15.2576 47.2149 15.1829 46.6916 14.8111C47.4519 14.1804 47.816 14.2225 48.6332 13.2097C49.3247 12.3521 50.0289 10.966 49.9857 9.85904C49.0287 9.96976 46.7932 11.0231 45.9242 11.0753C46.2949 10.4771 48.9785 9.19139 48.7776 4.2219C48.3396 4.30759 46.95 5.26025 45.8236 6.01507C45.2845 6.37635 44.7348 6.8055 44.112 7.00437C44.4434 6.33786 44.8194 5.6796 45.0889 4.97049C45.4788 3.94514 45.5833 2.96541 45.586 1.86705C45.5875 1.27115 45.5358 0.690637 45.4005 0.209924C45.3568 0.0553005 45.2827 -0.000448927 45.1985 2.58924e-05C45.0415 0.00089174 42.902 1.77423 42.6977 1.96547L34.7035 8.47232C34.1056 8.96359 34.1154 8.79397 33.812 9.64976C33.533 10.4368 31.4859 15.2147 31.4976 15.6222C31.5107 16.0812 32.6233 18.5217 32.589 18.7923C32.5676 18.9611 31.1718 20.3453 30.8805 20.6686C30.4952 20.6735 29.9396 20.3658 29.5145 20.3131C29.4093 20.4668 27.4299 22.483 27.2788 22.5172C26.6152 22.4598 25.5099 21.3346 25 21.3581C24.4901 21.3346 23.3848 22.4598 22.7212 22.5172C22.5701 22.483 20.5907 20.4668 20.4855 20.3131C20.0604 20.3658 19.5048 20.6735 19.1195 20.6686C18.8281 20.3453 17.4324 18.9611 17.411 18.7923C17.3767 18.5217 18.4893 16.0812 18.5024 15.6222C18.5141 15.2147 16.467 10.4368 16.188 9.64976C15.8846 8.79397 15.8944 8.96359 15.2965 8.47232L7.30225 1.96547C7.09802 1.77423 4.9585 0.00089174 4.80152 2.58924e-05C4.71725 -0.000448927 4.64315 0.0553005 4.59951 0.209924ZM27.2437 12.2309C27.3538 11.5452 27.6544 11.8254 27.0698 11.2608C26.9529 11.1481 26.4697 10.6441 26.3487 10.5954C26.141 10.512 23.8792 10.5322 23.585 10.593C23.5281 11.1843 23.6676 11.4977 23.3886 11.9482C22.3438 13.6348 22.6858 12.9697 22.6858 15.917C22.6858 16.3745 22.6451 17.043 22.6827 17.4738C22.7141 17.8326 22.757 17.7965 22.9867 18.009C23.1253 18.1373 23.2189 18.2384 23.3583 18.3767L24.9264 19.861C25.1784 19.7877 27.1177 17.9198 27.2408 17.6865C27.0983 17.3723 26.7595 17.1085 26.7522 16.8012C26.7433 16.4258 27.0747 16.2693 27.1134 15.9081C27.2066 15.0386 26.4945 14.8989 27.1445 13.9936L28.3539 13.9705C28.3627 13.713 27.8358 12.6229 27.6759 12.4999L27.2906 12.2698C27.2825 12.2436 27.259 12.2444 27.2437 12.2309Z" fill="#044DA2"/>
</g>
<defs>
<clipPath id="clip0_1_2">
<rect width="50" height="47" fill="white"/>
</clipPath>
</defs>
</svg>
