<svg width="85" height="85" viewBox="0 0 85 85" fill="none" xmlns="http://www.w3.org/2000/svg">
<path d="M43.2305 74.541C33.751 74.2422 24.7363 74.0098 15.7217 73.6611C13.7793 73.5781 11.8037 73.2793 9.91113 72.8311C6.3584 72.001 3.90137 69.8594 2.63965 66.3564C1.62695 63.5342 1.26172 60.6289 0.996094 57.6738C0.415039 50.7344 0.415039 43.7949 0.697266 36.8555C0.863281 32.9375 0.962891 28.9863 2.00879 25.1846C2.63965 22.9102 3.40332 20.6855 5.24609 19.042C7.18848 17.2988 9.46289 16.2529 12.0527 16.1367C19.1582 15.7881 26.2471 15.3564 33.3525 15.29C42.915 15.1904 52.4941 15.3232 62.0566 15.5059C66.1904 15.5889 70.3574 15.8047 74.458 16.3359C78.21 16.834 81.0156 18.9258 82.5098 22.5781C83.6553 25.3838 84.0869 28.3223 84.3359 31.3105C84.9834 38.7979 85 46.2852 84.6348 53.7725C84.4521 57.5742 84.2695 61.3926 83.1904 65.0947C81.9619 69.3447 79.3555 72.1504 75.0059 73.1133C73.3125 73.4785 71.5527 73.6113 69.8262 73.6777C60.7949 73.9932 51.7803 74.2754 43.2305 74.541ZM34.0498 55.665C41.6201 51.7471 49.1074 47.8623 56.7441 43.8945C49.124 39.9102 41.6367 36.0088 34.0498 32.041C34.0498 39.96 34.0498 47.7461 34.0498 55.665Z" fill="white"/>
</svg>
