<svg width="100" height="50" viewBox="0 0 100 50" fill="none" xmlns="http://www.w3.org/2000/svg">
<path d="M83.1626 16.4128L83.153 16.4361C83.1098 16.3346 83.0683 16.2324 83.023 16.1302C82.3764 14.7049 81.5012 13.4639 80.4038 12.4028C79.3055 11.3468 78.0172 10.5126 76.5368 9.90745C75.0574 9.30428 73.4923 9 71.8297 9C70.1307 9 68.5492 9.30428 67.0919 9.90745C65.6366 10.5116 64.3462 11.3468 63.2315 12.4028C62.1052 13.465 61.2338 14.7049 60.605 16.1302C60.5652 16.2243 60.5293 16.3205 60.4896 16.4149C60.4498 16.3208 60.4122 16.2246 60.3687 16.1302C59.7165 14.7049 58.8412 13.4639 57.7421 12.4028C56.6466 11.3468 55.3607 10.5126 53.8834 9.90745C52.4031 9.30428 50.8317 9 49.1764 9C47.4701 9 45.8893 9.30428 44.4385 9.90745C43.0857 10.4662 41.8895 11.2311 40.8325 12.1776L40.8322 11.7848C40.8322 10.3996 39.6683 9.27432 38.2315 9.27432H19.9935C18.5574 9.27432 17.3928 10.3996 17.3928 11.7848C17.3928 13.1718 18.5584 14.2934 19.9935 14.2934H34.3264L17.5134 36.129C17.1795 36.562 17 37.0868 17 37.6251V39.2628C17 40.6487 18.1656 41.7734 19.6028 41.7734L39.0134 41.773C40.3857 41.773 41.5081 40.7472 41.6067 39.4478C42.4663 40.1087 43.4207 40.6612 44.474 41.0919C45.9544 41.7004 47.5167 42 49.1794 42C51.6909 42 53.9291 41.3541 55.8999 40.0547C57.4925 39.0087 58.7515 37.7072 59.6665 36.1501V39.5348C59.6665 40.2268 59.9102 40.8121 60.409 41.2855C60.8987 41.7633 61.5056 41.9999 62.2229 41.9999C62.896 41.9999 63.4855 41.7632 64.0027 41.2855C64.52 40.8121 64.7755 40.2278 64.7755 39.5348V30.7468H64.7664C64.7664 30.7451 64.7755 30.7354 64.7755 30.7354C64.7755 30.7354 59.1157 30.7354 58.4008 30.7354C57.8657 30.7354 57.3781 30.8722 56.9567 31.1553C56.5297 31.4363 56.2254 31.8173 56.0511 32.2893L55.6331 33.1167C55.0511 34.3311 54.189 35.29 53.0426 36.0025C51.9006 36.7169 50.6144 37.071 49.18 37.071C48.2365 37.071 47.3319 36.9012 46.4549 36.5559C45.587 36.209 44.8337 35.7241 44.2056 35.097C43.5768 34.4717 43.0741 33.7448 42.6921 32.9237C42.3139 32.1017 42.1232 31.2396 42.1232 30.3298V28.1272L58.4611 28.1269H59.6683H64.7766V20.668C64.7766 19.7649 64.9526 18.8978 65.3134 18.0774C65.672 17.2574 66.1768 16.5295 66.8304 15.9034C67.4749 15.278 68.2268 14.7922 69.0814 14.4435C69.9281 14.0983 70.8521 13.9268 71.8317 13.9268C72.7752 13.9268 73.6854 14.0986 74.5568 14.4435C75.4283 14.7932 76.1818 15.278 76.8061 15.9034C77.4349 16.5298 77.9359 17.2563 78.3197 18.0774C78.6996 18.8974 78.8924 19.7642 78.8924 20.668V39.5341C78.8924 40.226 79.1378 40.8114 79.6293 41.2848C80.1228 41.7626 80.7276 41.9992 81.4471 41.9992C82.1194 41.9992 82.7113 41.7625 83.2307 41.2848C83.7407 40.8114 84 40.227 84 39.5341V36.1511V22.7587V20.6607C84 19.1636 83.7027 17.7302 83.1625 16.4127L83.1626 16.4128ZM23.5148 36.755L37.1255 19.0757C37.0537 19.5979 37.014 20.1291 37.014 20.6691V30.3299C37.014 31.9303 37.3367 33.4416 37.9907 34.8702C38.2933 35.5392 38.6537 36.1673 39.057 36.7554C39.0423 36.7554 39.0284 36.7544 39.0137 36.7544H23.5148V36.755ZM56.2339 23.1954H42.1223V20.6681C42.1223 19.765 42.2966 18.8979 42.6574 18.0775C43.0182 17.2575 43.5208 16.5296 44.1743 15.9035C44.8171 15.2781 45.5724 14.7923 46.423 14.4436C47.2731 14.0984 48.1937 13.9269 49.1805 13.9269C50.1213 13.9269 51.0269 14.0987 51.9004 14.4436C52.7757 14.7933 53.5272 15.2781 54.1514 15.9035C54.7803 16.5299 55.2812 17.2564 55.665 18.0775C56.0467 18.8975 56.2338 19.7643 56.2338 20.6681V23.1954H56.2339Z" fill="#00AFEF"/>
</svg>
